<svg width="482" height="482" xmlns="http://www.w3.org/2000/svg" xmlns:xlink="http://www.w3.org/1999/xlink" overflow="hidden"><defs><clipPath id="clip0"><path d="M-1-1 481-1 481 481-1 481Z" fill-rule="evenodd" clip-rule="evenodd"/></clipPath><linearGradient x1="-4.88883e-14" y1="0" x2="480" y2="480" gradientUnits="userSpaceOnUse" spreadMethod="reflect" id="fill1"><stop offset="0" stop-color="#155898"/><stop offset="0.015873" stop-color="#155997"/><stop offset="0.031746" stop-color="#155B97"/><stop offset="0.047619" stop-color="#155D97"/><stop offset="0.0634921" stop-color="#155F97"/><stop offset="0.0793651" stop-color="#156197"/><stop offset="0.0952381" stop-color="#156297"/><stop offset="0.111111" stop-color="#156496"/><stop offset="0.126984" stop-color="#156696"/><stop offset="0.142857" stop-color="#156896"/><stop offset="0.15873" stop-color="#156995"/><stop offset="0.174603" stop-color="#146B95"/><stop offset="0.190476" stop-color="#156C95"/><stop offset="0.206349" stop-color="#156E94"/><stop offset="0.222222" stop-color="#147094"/><stop offset="0.238095" stop-color="#157193"/><stop offset="0.253968" stop-color="#157393"/><stop offset="0.269841" stop-color="#157492"/><stop offset="0.285714" stop-color="#157591"/><stop offset="0.301587" stop-color="#157791"/><stop offset="0.31746" stop-color="#157890"/><stop offset="0.333333" stop-color="#157A8F"/><stop offset="0.349206" stop-color="#157B8F"/><stop offset="0.365079" stop-color="#157C8E"/><stop offset="0.380952" stop-color="#147D8D"/><stop offset="0.396825" stop-color="#157F8C"/><stop offset="0.412698" stop-color="#14808B"/><stop offset="0.428571" stop-color="#15818A"/><stop offset="0.444444" stop-color="#14828A"/><stop offset="0.460317" stop-color="#148389"/><stop offset="0.47619" stop-color="#158488"/><stop offset="0.492063" stop-color="#158687"/><stop offset="0.507937" stop-color="#158786"/><stop offset="0.52381" stop-color="#158884"/><stop offset="0.539683" stop-color="#158983"/><stop offset="0.555556" stop-color="#158A82"/><stop offset="0.571429" stop-color="#158A81"/><stop offset="0.587302" stop-color="#158B80"/><stop offset="0.603175" stop-color="#158C7F"/><stop offset="0.619048" stop-color="#158D7D"/><stop offset="0.634921" stop-color="#158E7C"/><stop offset="0.650794" stop-color="#158F7B"/><stop offset="0.666667" stop-color="#158F7A"/><stop offset="0.68254" stop-color="#159078"/><stop offset="0.698413" stop-color="#159177"/><stop offset="0.714286" stop-color="#159175"/><stop offset="0.730159" stop-color="#159274"/><stop offset="0.746032" stop-color="#159373"/><stop offset="0.761905" stop-color="#159371"/><stop offset="0.777778" stop-color="#159470"/><stop offset="0.793651" stop-color="#15946E"/><stop offset="0.809524" stop-color="#15956C"/><stop offset="0.825397" stop-color="#15956B"/><stop offset="0.84127" stop-color="#159569"/><stop offset="0.857143" stop-color="#159668"/><stop offset="0.873016" stop-color="#159666"/><stop offset="0.888889" stop-color="#159664"/><stop offset="0.904762" stop-color="#159762"/><stop offset="0.920635" stop-color="#159761"/><stop offset="0.936508" stop-color="#15975F"/><stop offset="0.952381" stop-color="#15975D"/><stop offset="0.968254" stop-color="#15975B"/><stop offset="0.984127" stop-color="#159759"/><stop offset="1" stop-color="#159858"/></linearGradient><linearGradient x1="256" y1="72" x2="358" y2="72" gradientUnits="userSpaceOnUse" spreadMethod="reflect" id="fill2"><stop offset="0" stop-color="#FF0000"/><stop offset="0.5" stop-color="#FF6000"/><stop offset="1" stop-color="#FFC000"/></linearGradient><linearGradient x1="48" y1="144" x2="186" y2="144" gradientUnits="userSpaceOnUse" spreadMethod="reflect" id="fill3"><stop offset="0" stop-color="#FF0000"/><stop offset="0.5" stop-color="#FF6000"/><stop offset="1" stop-color="#FFC000"/></linearGradient><linearGradient x1="318" y1="144" x2="432" y2="144" gradientUnits="userSpaceOnUse" spreadMethod="reflect" id="fill4"><stop offset="0" stop-color="#FF0000"/><stop offset="0.5" stop-color="#FF6000"/><stop offset="1" stop-color="#FFC000"/></linearGradient><linearGradient x1="147" y1="216" x2="273" y2="216" gradientUnits="userSpaceOnUse" spreadMethod="reflect" id="fill5"><stop offset="0" stop-color="#FF0000"/><stop offset="0.5" stop-color="#FF6000"/><stop offset="1" stop-color="#FFC000"/></linearGradient><clipPath id="clip6"><path d="M276 280 432 280 432 436 276 436Z" fill-rule="evenodd" clip-rule="evenodd"/></clipPath><clipPath id="clip7"><path d="M276 280 432 280 432 436 276 436Z" fill-rule="evenodd" clip-rule="evenodd"/></clipPath><clipPath id="clip8"><path d="M276 280 432 280 432 436 276 436Z" fill-rule="evenodd" clip-rule="evenodd"/></clipPath><clipPath id="clip9"><path d="M77 280 209 280 209 411 77 411Z" fill-rule="evenodd" clip-rule="evenodd"/></clipPath><clipPath id="clip10"><path d="M77 280 209 280 209 411 77 411Z" fill-rule="evenodd" clip-rule="evenodd"/></clipPath><clipPath id="clip11"><path d="M77 280 209 280 209 411 77 411Z" fill-rule="evenodd" clip-rule="evenodd"/></clipPath></defs><g clip-path="url(#clip0)" transform="translate(1 1)"><rect x="0" y="0" width="480" height="480" fill="url(#fill1)"/><rect x="256" y="48" width="102" height="48" fill="url(#fill2)"/><rect x="137" y="48" width="87" height="48"/><rect x="390" y="48" width="42" height="48"/><rect x="48" y="120" width="138" height="48" fill="url(#fill3)"/><rect x="219" y="120" width="67" height="48"/><rect x="318" y="120" width="114" height="48" fill="url(#fill4)"/><rect x="48" y="192" width="67" height="48"/><rect x="147" y="192" width="126" height="48" fill="url(#fill5)"/><rect x="305" y="192" width="75" height="48"/><rect x="399" y="216" width="24" height="24"/><g clip-path="url(#clip6)"><g clip-path="url(#clip7)"><g clip-path="url(#clip8)"><path d="M332.875 291.375 332.875 412.86 347.305 398.43C349.275 396.595 352.36 396.703 354.195 398.673 355.94 400.545 355.94 403.448 354.195 405.32L331.445 428.07C329.542 429.971 326.458 429.971 324.555 428.07L301.805 405.32C299.904 403.417 299.904 400.333 301.805 398.43 303.708 396.529 306.792 396.529 308.695 398.43L323.125 412.86 323.125 291.375C323.125 288.683 325.308 286.5 328 286.5 330.692 286.5 332.875 288.683 332.875 291.375Z" fill="#FFFFFF"/><path d="M384.875 424.625 384.875 303.14 399.305 317.57C401.14 319.54 404.225 319.649 406.195 317.813 408.165 315.978 408.274 312.893 406.438 310.923 406.36 310.839 406.279 310.758 406.195 310.68L383.445 287.93C381.542 286.029 378.458 286.029 376.555 287.93L353.805 310.68C351.904 312.583 351.904 315.667 353.805 317.57 355.708 319.471 358.792 319.471 360.695 317.57L375.125 303.14 375.125 424.625C375.125 427.317 377.308 429.5 380 429.5 382.692 429.5 384.875 427.317 384.875 424.625Z" fill="#FFFFFF"/></g></g></g><g clip-path="url(#clip9)"><g clip-path="url(#clip10)"><g clip-path="url(#clip11)"><path d="M31.3854 111.896 31.3854 19.1042 69.5938 19.1042 69.5938 47.7604 99.6146 47.7604 99.6146 111.896 31.3854 111.896ZM77.7813 22.5156 94.8385 39.5729 77.7813 39.5729 77.7813 22.5156ZM77.7813 10.9167 23.1979 10.9167 23.1979 120.083 107.802 120.083 107.802 40.9375 77.7813 10.9167Z" fill="#FFFFFF" transform="matrix(1.00763 0 -0 1 77 280)"/></g></g></g><path d="M221 405C221 414.941 220.328 423 219.5 423L66.4999 423C65.6715 423 65 414.941 65 405" stroke="#FFFFFF" stroke-width="8" stroke-miterlimit="8" fill="none" fill-rule="evenodd"/></g></svg>