<svg width="768" height="1344" xmlns="http://www.w3.org/2000/svg" xmlns:xlink="http://www.w3.org/1999/xlink" overflow="hidden"><defs><clipPath id="clip0"><path d="M0 0 768 0 768 1344 0 1344Z" fill-rule="evenodd" clip-rule="evenodd"/></clipPath><linearGradient x1="255" y1="1129.5" x2="698" y2="1129.5" gradientUnits="userSpaceOnUse" spreadMethod="reflect" id="fill1"><stop offset="0" stop-color="#57E3FF"/><stop offset="0.00515464" stop-color="#56E2FE"/><stop offset="0.0103093" stop-color="#56E2FE"/><stop offset="0.0154639" stop-color="#56E2FE"/><stop offset="0.0206186" stop-color="#56E2FE"/><stop offset="0.0257732" stop-color="#56E2FE"/><stop offset="0.0309278" stop-color="#56E2FE"/><stop offset="0.0360825" stop-color="#56E2FE"/><stop offset="0.0412371" stop-color="#56E2FE"/><stop offset="0.0463918" stop-color="#56E2FE"/><stop offset="0.0515464" stop-color="#56E2FE"/><stop offset="0.056701" stop-color="#56E2FE"/><stop offset="0.0618557" stop-color="#56E1FE"/><stop offset="0.0670103" stop-color="#56E1FD"/><stop offset="0.0721649" stop-color="#56E1FD"/><stop offset="0.0773196" stop-color="#56E1FD"/><stop offset="0.0824742" stop-color="#56E1FD"/><stop offset="0.0876289" stop-color="#56E0FD"/><stop offset="0.0927835" stop-color="#55E0FD"/><stop offset="0.0979381" stop-color="#55E0FC"/><stop offset="0.103093" stop-color="#55E0FC"/><stop offset="0.108247" stop-color="#55DFFC"/><stop offset="0.113402" stop-color="#55DFFC"/><stop offset="0.118557" stop-color="#55DFFC"/><stop offset="0.123711" stop-color="#55DFFB"/><stop offset="0.128866" stop-color="#55DEFB"/><stop offset="0.134021" stop-color="#54DEFB"/><stop offset="0.139175" stop-color="#54DEFB"/><stop offset="0.14433" stop-color="#54DDFA"/><stop offset="0.149485" stop-color="#54DDFA"/><stop offset="0.154639" stop-color="#54DDFA"/><stop offset="0.159794" stop-color="#54DCF9"/><stop offset="0.164948" stop-color="#54DCF9"/><stop offset="0.170103" stop-color="#53DBF9"/><stop offset="0.175258" stop-color="#53DBF8"/><stop offset="0.180412" stop-color="#53DBF8"/><stop offset="0.185567" stop-color="#53DAF8"/><stop offset="0.190722" stop-color="#53DAF7"/><stop offset="0.195876" stop-color="#52D9F7"/><stop offset="0.201031" stop-color="#52D9F7"/><stop offset="0.206186" stop-color="#52D8F6"/><stop offset="0.21134" stop-color="#52D8F6"/><stop offset="0.216495" stop-color="#52D7F5"/><stop offset="0.221649" stop-color="#51D7F5"/><stop offset="0.226804" stop-color="#51D6F5"/><stop offset="0.231959" stop-color="#51D6F4"/><stop offset="0.237113" stop-color="#51D5F4"/><stop offset="0.242268" stop-color="#50D5F3"/><stop offset="0.247423" stop-color="#50D4F3"/><stop offset="0.252577" stop-color="#50D4F2"/><stop offset="0.257732" stop-color="#50D3F2"/><stop offset="0.262887" stop-color="#4FD3F2"/><stop offset="0.268041" stop-color="#4FD2F1"/><stop offset="0.273196" stop-color="#4FD1F1"/><stop offset="0.278351" stop-color="#4FD1F0"/><stop offset="0.283505" stop-color="#4ED0F0"/><stop offset="0.28866" stop-color="#4ED0EF"/><stop offset="0.293814" stop-color="#4ECFEF"/><stop offset="0.298969" stop-color="#4DCEEE"/><stop offset="0.304124" stop-color="#4DCEED"/><stop offset="0.309278" stop-color="#4DCDED"/><stop offset="0.314433" stop-color="#4DCCEC"/><stop offset="0.319588" stop-color="#4CCCEC"/><stop offset="0.324742" stop-color="#4CCBEB"/><stop offset="0.329897" stop-color="#4CCAEB"/><stop offset="0.335052" stop-color="#4BC9EA"/><stop offset="0.340206" stop-color="#4BC9E9"/><stop offset="0.345361" stop-color="#4BC8E9"/><stop offset="0.350515" stop-color="#4AC7E8"/><stop offset="0.35567" stop-color="#4AC6E8"/><stop offset="0.360825" stop-color="#4AC6E7"/><stop offset="0.365979" stop-color="#49C5E6"/><stop offset="0.371134" stop-color="#49C4E6"/><stop offset="0.376289" stop-color="#49C3E5"/><stop offset="0.381443" stop-color="#48C2E4"/><stop offset="0.386598" stop-color="#48C2E4"/><stop offset="0.391753" stop-color="#47C1E3"/><stop offset="0.396907" stop-color="#47C0E2"/><stop offset="0.402062" stop-color="#47BFE2"/><stop offset="0.407216" stop-color="#46BEE1"/><stop offset="0.412371" stop-color="#46BDE0"/><stop offset="0.417526" stop-color="#46BDE0"/><stop offset="0.42268" stop-color="#45BCDF"/><stop offset="0.427835" stop-color="#45BBDE"/><stop offset="0.43299" stop-color="#44BADD"/><stop offset="0.438144" stop-color="#44B9DD"/><stop offset="0.443299" stop-color="#44B8DC"/><stop offset="0.448454" stop-color="#43B7DB"/><stop offset="0.453608" stop-color="#43B6DA"/><stop offset="0.458763" stop-color="#42B5DA"/><stop offset="0.463918" stop-color="#42B4D9"/><stop offset="0.469072" stop-color="#41B3D8"/><stop offset="0.474227" stop-color="#41B2D7"/><stop offset="0.479381" stop-color="#41B1D6"/><stop offset="0.484536" stop-color="#40B0D6"/><stop offset="0.489691" stop-color="#40AFD5"/><stop offset="0.494845" stop-color="#3FAED4"/><stop offset="0.5" stop-color="#3FADD3"/><stop offset="0.505155" stop-color="#3EACD2"/><stop offset="0.510309" stop-color="#3EABD1"/><stop offset="0.515464" stop-color="#3DAAD1"/><stop offset="0.520619" stop-color="#3DA9D0"/><stop offset="0.525773" stop-color="#3CA8CF"/><stop offset="0.530928" stop-color="#3CA7CE"/><stop offset="0.536082" stop-color="#3BA6CD"/><stop offset="0.541237" stop-color="#3BA5CC"/><stop offset="0.546392" stop-color="#3AA4CB"/><stop offset="0.551546" stop-color="#3AA3CA"/><stop offset="0.556701" stop-color="#39A1C9"/><stop offset="0.561856" stop-color="#39A0C9"/><stop offset="0.56701" stop-color="#389FC8"/><stop offset="0.572165" stop-color="#389EC7"/><stop offset="0.57732" stop-color="#379DC6"/><stop offset="0.582474" stop-color="#379CC5"/><stop offset="0.587629" stop-color="#369BC4"/><stop offset="0.592784" stop-color="#3699C3"/><stop offset="0.597938" stop-color="#3598C2"/><stop offset="0.603093" stop-color="#3597C1"/><stop offset="0.608247" stop-color="#3496C0"/><stop offset="0.613402" stop-color="#3495BF"/><stop offset="0.618557" stop-color="#3393BE"/><stop offset="0.623711" stop-color="#3392BD"/><stop offset="0.628866" stop-color="#3291BC"/><stop offset="0.634021" stop-color="#3190BB"/><stop offset="0.639175" stop-color="#318EBA"/><stop offset="0.64433" stop-color="#308DB9"/><stop offset="0.649485" stop-color="#308CB8"/><stop offset="0.654639" stop-color="#2F8AB7"/><stop offset="0.659794" stop-color="#2F89B6"/><stop offset="0.664948" stop-color="#2E88B5"/><stop offset="0.670103" stop-color="#2D86B3"/><stop offset="0.675258" stop-color="#2D85B2"/><stop offset="0.680412" stop-color="#2C84B1"/><stop offset="0.685567" stop-color="#2C82B0"/><stop offset="0.690722" stop-color="#2B81AF"/><stop offset="0.695876" stop-color="#2A80AE"/><stop offset="0.701031" stop-color="#2A7EAD"/><stop offset="0.706186" stop-color="#297DAC"/><stop offset="0.71134" stop-color="#297CAB"/><stop offset="0.716495" stop-color="#287AA9"/><stop offset="0.721649" stop-color="#2779A8"/><stop offset="0.726804" stop-color="#2777A7"/><stop offset="0.731959" stop-color="#2676A6"/><stop offset="0.737113" stop-color="#2574A5"/><stop offset="0.742268" stop-color="#2573A4"/><stop offset="0.747423" stop-color="#2472A2"/><stop offset="0.752577" stop-color="#2370A1"/><stop offset="0.757732" stop-color="#236FA0"/><stop offset="0.762887" stop-color="#226D9F"/><stop offset="0.768041" stop-color="#216C9E"/><stop offset="0.773196" stop-color="#216A9C"/><stop offset="0.778351" stop-color="#20699B"/><stop offset="0.783505" stop-color="#1F679A"/><stop offset="0.78866" stop-color="#1F6699"/><stop offset="0.793814" stop-color="#1E6497"/><stop offset="0.798969" stop-color="#1D6296"/><stop offset="0.804124" stop-color="#1D6195"/><stop offset="0.809278" stop-color="#1C5F94"/><stop offset="0.814433" stop-color="#1B5E92"/><stop offset="0.819588" stop-color="#1B5C91"/><stop offset="0.824742" stop-color="#1A5B90"/><stop offset="0.829897" stop-color="#19598E"/><stop offset="0.835052" stop-color="#18578D"/><stop offset="0.840206" stop-color="#18568C"/><stop offset="0.845361" stop-color="#17548A"/><stop offset="0.850515" stop-color="#165389"/><stop offset="0.85567" stop-color="#165188"/><stop offset="0.860825" stop-color="#154F86"/><stop offset="0.865979" stop-color="#144E85"/><stop offset="0.871134" stop-color="#134C84"/><stop offset="0.876289" stop-color="#134A82"/><stop offset="0.881443" stop-color="#124981"/><stop offset="0.886598" stop-color="#114780"/><stop offset="0.891753" stop-color="#10457E"/><stop offset="0.896907" stop-color="#10437D"/><stop offset="0.902062" stop-color="#0F427B"/><stop offset="0.907216" stop-color="#0E407A"/><stop offset="0.912371" stop-color="#0D3E79"/><stop offset="0.917526" stop-color="#0C3D77"/><stop offset="0.92268" stop-color="#0C3B76"/><stop offset="0.927835" stop-color="#0B3974"/><stop offset="0.93299" stop-color="#0A3773"/><stop offset="0.938144" stop-color="#093671"/><stop offset="0.943299" stop-color="#093470"/><stop offset="0.948454" stop-color="#08326F"/><stop offset="0.953608" stop-color="#07306D"/><stop offset="0.958763" stop-color="#062E6C"/><stop offset="0.963918" stop-color="#052C6A"/><stop offset="0.969072" stop-color="#042B69"/><stop offset="0.974227" stop-color="#042967"/><stop offset="0.979381" stop-color="#032766"/><stop offset="0.984536" stop-color="#022564"/><stop offset="0.989691" stop-color="#012363"/><stop offset="0.994845" stop-color="#002161"/><stop offset="1" stop-color="#002060"/></linearGradient></defs><g clip-path="url(#clip0)"><rect x="0" y="0" width="768" height="1344" fill="#FFFFFF"/><rect x="0" y="0" width="768" height="1344" fill="#FFFFFF" transform="matrix(-1 -8.74228e-08 -8.74228e-08 1 768 0)"/><text font-family="Segoe UI,Segoe UI_MSFontService,sans-serif" font-weight="400" font-size="24" transform="translate(304.815 192)">“My pet dog ate my homework!”</text><rect x="257.5" y="296.5" width="111" height="27" stroke="#000000" stroke-width="3" stroke-miterlimit="8" fill="#00B0F0"/><text fill="#FFFFFF" font-family="Segoe UI,Segoe UI_MSFontService,sans-serif" font-weight="400" font-size="16" transform="translate(300.761 316)">pet</text><rect x="367.5" y="296.5" width="111" height="27" stroke="#000000" stroke-width="3" stroke-miterlimit="8" fill="#00B0F0"/><text fill="#FFFFFF" font-family="Segoe UI,Segoe UI_MSFontService,sans-serif" font-weight="400" font-size="16" transform="translate(408.21 316)">dog</text><rect x="478.5" y="296.5" width="111" height="27" stroke="#000000" stroke-width="3" stroke-miterlimit="8" fill="#00B0F0"/><text fill="#FFFFFF" font-family="Segoe UI,Segoe UI_MSFontService,sans-serif" font-weight="400" font-size="16" transform="translate(522.421 316)">ate</text><rect x="589.5" y="296.5" width="111" height="27" stroke="#000000" stroke-width="3" stroke-miterlimit="8" fill="#00B0F0"/><text fill="#FFFFFF" font-family="Segoe UI,Segoe UI_MSFontService,sans-serif" font-weight="400" font-size="16" transform="translate(606.945 316)">homework</text><path d="M256 337C250.477 337 246 332.685 246 327.362L246 291.638C246 286.315 250.477 282 256 282" stroke="#000000" stroke-width="6" stroke-miterlimit="8" fill="none" fill-rule="evenodd"/><rect x="52" y="290" width="137" height="39"/><text fill="#FFFFFF" font-family="Segoe UI,Segoe UI_MSFontService,sans-serif" font-weight="400" font-size="19" transform="translate(80.657 316)">Figure 1.2</text><path d="M189 309 245.438 309" stroke="#000000" stroke-width="6" stroke-miterlimit="8" fill="none" fill-rule="evenodd"/><path d="M10.0001 55C4.47718 55 0 50.6851 0 45.3624L0 9.63763C-1.75056e-15 4.31491 4.47718 0 10.0001 0" stroke="#000000" stroke-width="6" stroke-miterlimit="8" fill="none" fill-rule="evenodd" transform="matrix(-1 -8.74228e-08 -8.74228e-08 1 710 282)"/><path d="M256 213C250.477 213 246 208.685 246 203.362L246 167.638C246 162.315 250.477 158 256 158" stroke="#000000" stroke-width="6" stroke-miterlimit="8" fill="none" fill-rule="evenodd"/><path d="M189 185 245.438 185" stroke="#000000" stroke-width="6" stroke-miterlimit="8" fill="none" fill-rule="evenodd"/><path d="M10.0001 55C4.47718 55 0 50.6851 0 45.3624L0 9.63763C-1.75056e-15 4.31491 4.47718 0 10.0001 0" stroke="#000000" stroke-width="6" stroke-miterlimit="8" fill="none" fill-rule="evenodd" transform="matrix(-1 -8.74228e-08 -8.74228e-08 1 710 158)"/><rect x="52" y="166" width="137" height="39"/><text fill="#FFFFFF" font-family="Segoe UI,Segoe UI_MSFontService,sans-serif" font-weight="400" font-size="19" transform="translate(80.657 192)">Figure 1.1</text><rect x="255.5" y="422.5" width="111" height="28" stroke="#000000" stroke-width="3" stroke-miterlimit="8" fill="#00B0F0"/><text fill="#FFFFFF" font-family="Segoe UI,Segoe UI_MSFontService,sans-serif" font-weight="400" font-size="16" transform="translate(298.898 442)">pet</text><rect x="366.5" y="422.5" width="111" height="28" stroke="#000000" stroke-width="3" stroke-miterlimit="8" fill="#FFC000"/><text font-family="Segoe UI,Segoe UI_MSFontService,sans-serif" font-weight="400" font-size="16" transform="translate(407.261 442)">dog</text><rect x="477.5" y="422.5" width="111" height="28" stroke="#000000" stroke-width="3" stroke-miterlimit="8" fill="#FFC000"/><text font-family="Segoe UI,Segoe UI_MSFontService,sans-serif" font-weight="400" font-size="16" transform="translate(521.946 442)">ate</text><rect x="366.5" y="490.5" width="110" height="27" stroke="#000000" stroke-width="3" stroke-miterlimit="8" fill="#FFC000"/><text font-family="Segoe UI,Segoe UI_MSFontService,sans-serif" font-weight="400" font-size="16" transform="translate(409.411 510)">pet</text><rect x="587.5" y="490.5" width="111" height="27" stroke="#000000" stroke-width="3" stroke-miterlimit="8" fill="#FFC000"/><text font-family="Segoe UI,Segoe UI_MSFontService,sans-serif" font-weight="400" font-size="16" transform="translate(605.048 510)">homework</text><rect x="476.5" y="490.5" width="111" height="27" stroke="#000000" stroke-width="3" stroke-miterlimit="8" fill="#FFC000"/><text font-family="Segoe UI,Segoe UI_MSFontService,sans-serif" font-weight="400" font-size="16" transform="translate(520.998 510)">ate</text><rect x="255.5" y="559.5" width="111" height="27" stroke="#000000" stroke-width="3" stroke-miterlimit="8" fill="#00B0F0"/><text fill="#FFFFFF" font-family="Segoe UI,Segoe UI_MSFontService,sans-serif" font-weight="400" font-size="16" transform="translate(299.877 579)">ate</text><rect x="366.5" y="559.5" width="111" height="27" stroke="#000000" stroke-width="3" stroke-miterlimit="8" fill="#FFC000"/><text font-family="Segoe UI,Segoe UI_MSFontService,sans-serif" font-weight="400" font-size="16" transform="translate(410.195 579)">pet</text><rect x="588.5" y="559.5" width="111" height="27" stroke="#000000" stroke-width="3" stroke-miterlimit="8" fill="#FFC000"/><text font-family="Segoe UI,Segoe UI_MSFontService,sans-serif" font-weight="400" font-size="16" transform="translate(605.872 579)">homework</text><rect x="477.5" y="559.5" width="111" height="27" stroke="#000000" stroke-width="3" stroke-miterlimit="8" fill="#FFC000"/><text font-family="Segoe UI,Segoe UI_MSFontService,sans-serif" font-weight="400" font-size="16" transform="translate(518.592 579)">dog</text><rect x="255.5" y="626.5" width="111" height="28" stroke="#000000" stroke-width="3" stroke-miterlimit="8" fill="#00B0F0"/><text fill="#FFFFFF" font-family="Segoe UI,Segoe UI_MSFontService,sans-serif" font-weight="400" font-size="16" transform="translate(273.404 646)">homework</text><rect x="365.5" y="626.5" width="111" height="28" stroke="#000000" stroke-width="3" stroke-miterlimit="8" fill="#FFC000"/><text font-family="Segoe UI,Segoe UI_MSFontService,sans-serif" font-weight="400" font-size="16" transform="translate(406.787 646)">dog</text><rect x="476.5" y="626.5" width="111" height="28" stroke="#000000" stroke-width="3" stroke-miterlimit="8" fill="#FFC000"/><text font-family="Segoe UI,Segoe UI_MSFontService,sans-serif" font-weight="400" font-size="16" transform="translate(520.838 646)">ate</text><path d="M255 669C249.477 669 245 664.685 245 659.362L245 415.638C245 410.315 249.477 406 255 406" stroke="#000000" stroke-width="6" stroke-miterlimit="8" fill="none" fill-rule="evenodd"/><rect x="52" y="518" width="137" height="39"/><text fill="#FFFFFF" font-family="Segoe UI,Segoe UI_MSFontService,sans-serif" font-weight="400" font-size="19" transform="translate(80.6569 545)">Figure 1.3</text><path d="M189 538 244.964 538" stroke="#000000" stroke-width="6" stroke-miterlimit="8" fill="none" fill-rule="evenodd"/><path d="M10 263C4.47715 263 0 258.685 0 253.362L0 9.63758C-2.09272e-15 4.31489 4.47715 0 10 0" stroke="#000000" stroke-width="6" stroke-miterlimit="8" fill="none" fill-rule="evenodd" transform="matrix(-1 -8.74228e-08 -8.74228e-08 1 710 406)"/><rect x="255" y="1114" width="443" height="31" fill="url(#fill1)"/><text fill="#FFFFFF" font-family="Segoe UI,Segoe UI_MSFontService,sans-serif" font-weight="400" font-size="19" transform="translate(615.877 1136)">Common<tspan fill="#000000" x="-354.376" y="0">Unique</tspan></text><rect x="589.5" y="1170.5" width="111" height="28" stroke="#000000" stroke-width="3" stroke-miterlimit="8" fill="#124982"/><text fill="#FFFFFF" font-family="Segoe UI,Segoe UI_MSFontService,sans-serif" font-weight="400" font-size="16" transform="translate(633.386 1190)">pet</text><rect x="257.5" y="1170.5" width="111" height="28" stroke="#000000" stroke-width="3" stroke-miterlimit="8" fill="#56E0FD"/><text font-family="Segoe UI,Segoe UI_MSFontService,sans-serif" font-weight="400" font-size="16" transform="translate(274.75 1190)">homework</text><rect x="367.5" y="1170.5" width="111" height="28" stroke="#000000" stroke-width="3" stroke-miterlimit="8" fill="#4AC6E7"/><text font-family="Segoe UI,Segoe UI_MSFontService,sans-serif" font-weight="400" font-size="16" transform="translate(411.713 1190)">ate</text><rect x="478.5" y="1170.5" width="111" height="28" stroke="#000000" stroke-width="3" stroke-miterlimit="8" fill="#2D86B3"/><text fill="#FFFFFF" font-family="Segoe UI,Segoe UI_MSFontService,sans-serif" font-weight="400" font-size="16" transform="translate(519.464 1190)">dog</text><path d="M10 111C4.47715 111 0 106.685 0 101.362L0 9.6376C0 4.3149 4.47715 0 10 0" stroke="#000000" stroke-width="6" stroke-miterlimit="8" fill="none" fill-rule="evenodd" transform="matrix(-1 -8.74228e-08 -8.74228e-08 1 710 1100)"/><path d="M255 1210C249.477 1210 245 1205.69 245 1200.36L245 1108.64C245 1103.31 249.477 1099 255 1099" stroke="#000000" stroke-width="6" stroke-miterlimit="8" fill="none" fill-rule="evenodd"/><rect x="53" y="1135" width="136" height="39"/><text fill="#FFFFFF" font-family="Segoe UI,Segoe UI_MSFontService,sans-serif" font-weight="400" font-size="19" transform="translate(80.8849 1161)">Figure 1.5</text><path d="M189 1155 244.49 1155" stroke="#000000" stroke-width="6" stroke-miterlimit="8" fill="none" fill-rule="evenodd"/><text font-family="Segoe UI,Segoe UI_MSFontService,sans-serif" font-weight="400" font-size="32" transform="translate(293.845 1300)">[“homework”, “ate”, “dog”]</text><path d="M11 55C4.92487 55 0 50.2536 0 44.3987L0 10.6013C-1.75056e-15 4.74638 4.92487 0 11 0" stroke="#000000" stroke-width="6" stroke-miterlimit="8" fill="none" fill-rule="evenodd" transform="matrix(-1 -8.74228e-08 -8.74228e-08 1 710 1263)"/><path d="M189 1290 245.439 1290.11" stroke="#000000" stroke-width="6" stroke-miterlimit="8" fill="none" fill-rule="evenodd"/><path d="M256 1318C250.477 1318 246 1313.69 246 1308.36L246 1272.64C246 1267.31 250.477 1263 256 1263" stroke="#000000" stroke-width="6" stroke-miterlimit="8" fill="none" fill-rule="evenodd"/><rect x="52" y="1271" width="137" height="39"/><text fill="#FFFFFF" font-family="Segoe UI,Segoe UI_MSFontService,sans-serif" font-weight="400" font-size="19" transform="translate(80.6569 1297)">Figure 1.6</text><path d="M562 256.5 574.75 256.5 574.75 212 600.25 212 600.25 256.5 613 256.5 587.5 282Z" fill="#124982" fill-rule="evenodd"/><path d="M341 256.5 353.75 256.5 353.75 212 379.25 212 379.25 256.5 392 256.5 366.5 282Z" fill="#124982" fill-rule="evenodd"/><text fill="#002060" font-family="Segoe UI,Segoe UI_MSFontService,sans-serif" font-weight="400" font-size="21" transform="translate(459.561 241)">Text <tspan x="-47.0733" y="25">Preprocessing</tspan></text><path d="M562 378.5 574.75 378.5 574.75 334 600.25 334 600.25 378.5 613 378.5 587.5 404Z" fill="#124982" fill-rule="evenodd"/><path d="M341 378.5 353.75 378.5 353.75 334 379.25 334 379.25 378.5 392 378.5 366.5 404Z" fill="#124982" fill-rule="evenodd"/><text fill="#002060" font-family="Segoe UI,Segoe UI_MSFontService,sans-serif" font-weight="400" font-size="21" transform="translate(441.558 364)">Context<tspan x="-15.6667" y="25">Generation</tspan><tspan x="11.4002" y="-213">Input</tspan></text><rect x="255.5" y="490.5" width="111" height="27" stroke="#000000" stroke-width="3" stroke-miterlimit="8" fill="#00B0F0"/><text fill="#FFFFFF" font-family="Segoe UI,Segoe UI_MSFontService,sans-serif" font-weight="400" font-size="16" transform="translate(296.307 510)">dog<tspan fill="#00B0F0" font-size="15" x="-26.7501" y="-98">Target Word</tspan></text><path d="M562 714.5 574.75 714.5 574.75 670 600.25 670 600.25 714.5 613 714.5 587.5 740Z" fill="#124982" fill-rule="evenodd"/><path d="M341 714.5 353.75 714.5 353.75 670 379.25 670 379.25 714.5 392 714.5 366.5 740Z" fill="#124982" fill-rule="evenodd"/><text fill="#002060" font-family="Segoe UI,Segoe UI_MSFontService,sans-serif" font-weight="400" font-size="21" transform="translate(434.538 700)">Similarity <tspan x="-5.05334" y="25">Evaluation</tspan></text><rect x="254.5" y="755.5" width="111" height="27" stroke="#000000" stroke-width="3" stroke-miterlimit="8" fill="#00B0F0"/><text fill="#FFFFFF" font-family="Segoe UI,Segoe UI_MSFontService,sans-serif" font-weight="400" font-size="16" transform="translate(298.375 775)">pet</text><rect x="365.5" y="755.5" width="111" height="27" stroke="#000000" stroke-width="3" stroke-miterlimit="8" fill="#FFC000"/><text font-family="Segoe UI,Segoe UI_MSFontService,sans-serif" font-weight="400" font-size="16" transform="translate(406.787 775)">dog</text><rect x="365.5" y="823.5" width="111" height="27" stroke="#000000" stroke-width="3" stroke-miterlimit="8" fill="#FFC000"/><text font-family="Segoe UI,Segoe UI_MSFontService,sans-serif" font-weight="400" font-size="16" transform="translate(408.937 843)">pet</text><rect x="586.5" y="823.5" width="111" height="27" stroke="#000000" stroke-width="3" stroke-miterlimit="8" fill="#FFC000"/><text font-family="Segoe UI,Segoe UI_MSFontService,sans-serif" font-weight="400" font-size="16" transform="translate(604.574 843)">homework</text><rect x="476.5" y="823.5" width="111" height="27" stroke="#000000" stroke-width="3" stroke-miterlimit="8" fill="#FFC000"/><text font-family="Segoe UI,Segoe UI_MSFontService,sans-serif" font-weight="400" font-size="16" transform="translate(520.524 843)">ate</text><rect x="255.5" y="892.5" width="111" height="27" stroke="#000000" stroke-width="3" stroke-miterlimit="8" fill="#00B0F0"/><text fill="#FFFFFF" font-family="Segoe UI,Segoe UI_MSFontService,sans-serif" font-weight="400" font-size="16" transform="translate(299.403 912)">ate</text><rect x="366.5" y="892.5" width="111" height="27" stroke="#000000" stroke-width="3" stroke-miterlimit="8" fill="#FFC000"/><text font-family="Segoe UI,Segoe UI_MSFontService,sans-serif" font-weight="400" font-size="16" transform="translate(409.72 912)">pet</text><rect x="587.5" y="891.5" width="111" height="28" stroke="#000000" stroke-width="3" stroke-miterlimit="8" fill="#FFC000"/><text font-family="Segoe UI,Segoe UI_MSFontService,sans-serif" font-weight="400" font-size="16" transform="translate(605.398 912)">homework</text><rect x="477.5" y="891.5" width="111" height="28" stroke="#000000" stroke-width="3" stroke-miterlimit="8" fill="#FFC000"/><text font-family="Segoe UI,Segoe UI_MSFontService,sans-serif" font-weight="400" font-size="16" transform="translate(518.118 912)">dog</text><rect x="255.5" y="959.5" width="111" height="28" stroke="#000000" stroke-width="3" stroke-miterlimit="8" fill="#00B0F0"/><text fill="#FFFFFF" font-family="Segoe UI,Segoe UI_MSFontService,sans-serif" font-weight="400" font-size="16" transform="translate(272.93 979)">homework</text><rect x="365.5" y="959.5" width="111" height="28" stroke="#000000" stroke-width="3" stroke-miterlimit="8" fill="#FFC000"/><text font-family="Segoe UI,Segoe UI_MSFontService,sans-serif" font-weight="400" font-size="16" transform="translate(406.313 979)">dog</text><rect x="476.5" y="959.5" width="111" height="28" stroke="#000000" stroke-width="3" stroke-miterlimit="8" fill="#FFC000"/><text font-family="Segoe UI,Segoe UI_MSFontService,sans-serif" font-weight="400" font-size="16" transform="translate(520.998 979)">ate</text><path d="M255 1034C249.477 1034 245 1029.69 245 1024.36L245 735.637C245 730.315 249.477 726 255 726" stroke="#000000" stroke-width="6" stroke-miterlimit="8" fill="none" fill-rule="evenodd"/><rect x="52" y="861" width="137" height="39"/><text fill="#FFFFFF" font-family="Segoe UI,Segoe UI_MSFontService,sans-serif" font-weight="400" font-size="19" transform="translate(80.0658 887)">Figure 1.4</text><path d="M189 880 245.081 880" stroke="#000000" stroke-width="6" stroke-miterlimit="8" fill="none" fill-rule="evenodd"/><path d="M11 308C4.92487 308 1.2254e-15 303.254 0 297.399L0 10.6015C-2.45079e-15 4.74644 4.92487 0 11-1.22539e-15" stroke="#000000" stroke-width="6" stroke-miterlimit="8" fill="none" fill-rule="evenodd" transform="matrix(-1 -8.74228e-08 -8.74228e-08 1 710 726)"/><rect x="254.5" y="823.5" width="111" height="27" stroke="#000000" stroke-width="3" stroke-miterlimit="8" fill="#00B0F0"/><text fill="#FFFFFF" font-family="Segoe UI,Segoe UI_MSFontService,sans-serif" font-weight="400" font-size="16" transform="translate(295.63 843)">dog<tspan fill="#00B0F0" font-size="15" x="-26.7501" y="-98">Target Word</tspan></text><rect x="477.5" y="755.5" width="111" height="27" stroke="#000000" stroke-width="3" stroke-miterlimit="8" fill="#FFC000"/><text font-family="Segoe UI,Segoe UI_MSFontService,sans-serif" font-weight="400" font-size="16" transform="translate(521.235 775)">ate</text><rect x="341.5" y="798.5" width="49" height="19" stroke="#000000" stroke-width="3" stroke-miterlimit="8" fill="#0070C0"/><text fill="#FFFFFF" font-family="Segoe UI,Segoe UI_MSFontService,sans-serif" font-weight="400" font-size="14" transform="translate(356.341 813)">0.8</text><path d="M310.5 782.5 365.882 798.126" stroke="#000000" stroke-width="3" stroke-miterlimit="8" fill="none" fill-rule="evenodd"/><path d="M0 0 55.6134 15.6016" stroke="#000000" stroke-width="3" stroke-miterlimit="8" fill="none" fill-rule="evenodd" transform="matrix(-1 -8.74228e-08 -8.74228e-08 1 421.113 782.5)"/><rect x="452.5" y="797.5" width="49" height="20" stroke="#000000" stroke-width="3" stroke-miterlimit="8" fill="#0070C0"/><text fill="#FFFFFF" font-family="Segoe UI,Segoe UI_MSFontService,sans-serif" font-weight="400" font-size="14" transform="translate(467.445 813)">0.4</text><path d="M310.5 782.5 476.986 797.54" stroke="#000000" stroke-width="3" stroke-miterlimit="8" fill="none" fill-rule="evenodd"/><path d="M0 0 55.7276 15.0402" stroke="#000000" stroke-width="3" stroke-miterlimit="8" fill="none" fill-rule="evenodd" transform="matrix(-1 -8.74228e-08 -8.74228e-08 1 532.228 782.5)"/><rect x="342.5" y="866.5" width="49" height="20" stroke="#000000" stroke-width="3" stroke-miterlimit="8" fill="#0070C0"/><text fill="#FFFFFF" font-family="Segoe UI,Segoe UI_MSFontService,sans-serif" font-weight="400" font-size="14" transform="translate(357.536 882)">0.8</text><path d="M310.5 850.5 367.24 866.887" stroke="#000000" stroke-width="3" stroke-miterlimit="8" fill="none" fill-rule="evenodd"/><path d="M0 0 53.9841 16.3855" stroke="#000000" stroke-width="3" stroke-miterlimit="8" fill="none" fill-rule="evenodd" transform="matrix(-1 -8.74228e-08 -8.74228e-08 1 421.484 850.5)"/><rect x="452.5" y="866.5" width="48" height="20" stroke="#000000" stroke-width="3" stroke-miterlimit="8" fill="#0070C0"/><text fill="#FFFFFF" font-family="Segoe UI,Segoe UI_MSFontService,sans-serif" font-weight="400" font-size="14" transform="translate(466.971 882)">0.5</text><path d="M310.5 850.5 476.674 866.887" stroke="#000000" stroke-width="3" stroke-miterlimit="8" fill="none" fill-rule="evenodd"/><path d="M0 0 55.4904 16.3855" stroke="#000000" stroke-width="3" stroke-miterlimit="8" fill="none" fill-rule="evenodd" transform="matrix(-1 -8.74228e-08 -8.74228e-08 1 531.99 850.5)"/><rect x="563.5" y="866.5" width="49" height="19" stroke="#000000" stroke-width="3" stroke-miterlimit="8" fill="#0070C0"/><text fill="#FFFFFF" font-family="Segoe UI,Segoe UI_MSFontService,sans-serif" font-weight="400" font-size="14" transform="translate(578.265 881)">0.1</text><path d="M310.5 850.5 587.968 866.647" stroke="#000000" stroke-width="3" stroke-miterlimit="8" fill="none" fill-rule="evenodd"/><path d="M0 0 54.7026 16.1457" stroke="#000000" stroke-width="3" stroke-miterlimit="8" fill="none" fill-rule="evenodd" transform="matrix(-1 -8.74228e-08 -8.74228e-08 1 642.203 850.5)"/><rect x="342.5" y="935.5" width="49" height="19" stroke="#000000" stroke-width="3" stroke-miterlimit="8" fill="#0070C0"/><text fill="#FFFFFF" font-family="Segoe UI,Segoe UI_MSFontService,sans-serif" font-weight="400" font-size="14" transform="translate(357.536 950)">0.4</text><path d="M310.5 919.5 366.697 935.208" stroke="#000000" stroke-width="3" stroke-miterlimit="8" fill="none" fill-rule="evenodd"/><path d="M0 0 54.7678 15.7391" stroke="#000000" stroke-width="3" stroke-miterlimit="8" fill="none" fill-rule="evenodd" transform="matrix(-1 -8.74228e-08 -8.74228e-08 1 422.268 919.5)"/><rect x="452.5" y="934.5" width="48" height="20" stroke="#000000" stroke-width="3" stroke-miterlimit="8" fill="#0070C0"/><text fill="#FFFFFF" font-family="Segoe UI,Segoe UI_MSFontService,sans-serif" font-weight="400" font-size="14" transform="translate(467.012 950)">0.5</text><path d="M0 0 56.2733 15.4213" stroke="#000000" stroke-width="3" stroke-miterlimit="8" fill="none" fill-rule="evenodd" transform="matrix(-1 -8.74228e-08 -8.74228e-08 1 532.773 919.5)"/><path d="M310.5 919.5 476.172 934.874" stroke="#000000" stroke-width="3" stroke-miterlimit="8" fill="none" fill-rule="evenodd"/><rect x="563.5" y="934.5" width="49" height="19" stroke="#000000" stroke-width="3" stroke-miterlimit="8" fill="#0070C0"/><text fill="#FFFFFF" font-family="Segoe UI,Segoe UI_MSFontService,sans-serif" font-weight="400" font-size="14" transform="translate(578.265 949)">0.1</text><path d="M310.5 919.5 587.425 934.511" stroke="#000000" stroke-width="3" stroke-miterlimit="8" fill="none" fill-rule="evenodd"/><path d="M0 0 55.5265 15.0576" stroke="#000000" stroke-width="3" stroke-miterlimit="8" fill="none" fill-rule="evenodd" transform="matrix(1 0 0 -1 587.5 934.558)"/><rect x="341.5" y="1002.5" width="49" height="19" stroke="#000000" stroke-width="3" stroke-miterlimit="8" fill="#0070C0"/><text fill="#FFFFFF" font-family="Segoe UI,Segoe UI_MSFontService,sans-serif" font-weight="400" font-size="14" transform="translate(356.341 1017)">0.1</text><path d="M310.5 987.5 365.518 1002.92" stroke="#000000" stroke-width="3" stroke-miterlimit="8" fill="none" fill-rule="evenodd"/><path d="M0 0 55.1394 15.4213" stroke="#000000" stroke-width="3" stroke-miterlimit="8" fill="none" fill-rule="evenodd" transform="matrix(-1 -8.74228e-08 -8.74228e-08 1 420.639 987.5)"/><rect x="451.5" y="1002.5" width="49" height="20" stroke="#000000" stroke-width="3" stroke-miterlimit="8" fill="#0070C0"/><text fill="#FFFFFF" font-family="Segoe UI,Segoe UI_MSFontService,sans-serif" font-weight="400" font-size="14" transform="translate(466.441 1018)">0.1</text><path d="M0 0 56.4944 15.7603" stroke="#000000" stroke-width="3" stroke-miterlimit="8" fill="none" fill-rule="evenodd" transform="matrix(-1 -8.74228e-08 -8.74228e-08 1 531.994 987.5)"/><path d="M475.617 1003.26 310.5 987.5" stroke="#000000" stroke-width="3" stroke-miterlimit="8" fill="none" fill-rule="evenodd"/><text fill="#002060" font-family="Segoe UI,Segoe UI_MSFontService,sans-serif" font-weight="700" font-size="15" transform="translate(633.659 1164)">0.6<tspan x="-115.294" y="0">0.47</tspan><tspan x="-226.301" y="1">0.33</tspan><tspan x="-332.116" y="0">0.1</tspan></text><path d="M561 1076.5 573.75 1076.5 573.75 1033 599.25 1033 599.25 1076.5 612 1076.5 586.5 1102Z" fill="#124982" fill-rule="evenodd"/><path d="M340 1076.5 352.75 1076.5 352.75 1033 378.25 1033 378.25 1076.5 391 1076.5 365.5 1102Z" fill="#124982" fill-rule="evenodd"/><text fill="#002060" font-family="Segoe UI,Segoe UI_MSFontService,sans-serif" font-weight="400" font-size="21" transform="translate(438.278 1062)">Average<tspan x="-1.84" y="25">and Sort</tspan><tspan fill="#000000" font-size="19" x="-106.408" y="-983">Parameters: window size = 2, list size = 3</tspan></text><path d="M561 1247.5 573.75 1247.5 573.75 1203 599.25 1203 599.25 1247.5 612 1247.5 586.5 1273Z" fill="#124982" fill-rule="evenodd"/><path d="M340 1247.5 352.75 1247.5 352.75 1203 378.25 1203 378.25 1247.5 391 1247.5 365.5 1273Z" fill="#124982" fill-rule="evenodd"/><text fill="#002060" font-family="Segoe UI,Segoe UI_MSFontService,sans-serif" font-weight="400" font-size="21" transform="translate(406.002 1230)">Postprocessing<tspan x="11.7133" y="25">and Filtering</tspan></text><rect x="53" y="37" width="192" height="71"/><text fill="#FFFFFF" font-family="Segoe UI,Segoe UI_MSFontService,sans-serif" font-weight="400" font-size="32" transform="translate(91.6773 84)">Figure 1</text></g></svg>