<?xml version="1.0" encoding="UTF-8"?>
<svg overflow="hidden" viewBox="0 0 1155 1251" xmlns="http://www.w3.org/2000/svg">
<defs>
<clipPath id="b">
<path d="m-2-2h1155v1251h-1155z" clip-rule="evenodd" fill-rule="evenodd"/>
</clipPath>
<linearGradient id="a" x1="241" x2="684" y1="1031.5" y2="1031.5" gradientUnits="userSpaceOnUse" spreadMethod="reflect">
<stop stop-color="#57E3FF" offset="0"/>
<stop stop-color="#56E2FE" offset=".0051546"/>
<stop stop-color="#56E2FE" offset=".010309"/>
<stop stop-color="#56E2FE" offset=".015464"/>
<stop stop-color="#56E2FE" offset=".020619"/>
<stop stop-color="#56E2FE" offset=".025773"/>
<stop stop-color="#56E2FE" offset=".030928"/>
<stop stop-color="#56E2FE" offset=".036082"/>
<stop stop-color="#56E2FE" offset=".041237"/>
<stop stop-color="#56E2FE" offset=".046392"/>
<stop stop-color="#56E2FE" offset=".051546"/>
<stop stop-color="#56E2FE" offset=".056701"/>
<stop stop-color="#56E1FE" offset=".061856"/>
<stop stop-color="#56E1FD" offset=".06701"/>
<stop stop-color="#56E1FD" offset=".072165"/>
<stop stop-color="#56E1FD" offset=".07732"/>
<stop stop-color="#56E1FD" offset=".082474"/>
<stop stop-color="#56E0FD" offset=".087629"/>
<stop stop-color="#55E0FD" offset=".092784"/>
<stop stop-color="#55E0FC" offset=".097938"/>
<stop stop-color="#55E0FC" offset=".10309"/>
<stop stop-color="#55DFFC" offset=".10825"/>
<stop stop-color="#55DFFC" offset=".1134"/>
<stop stop-color="#55DFFC" offset=".11856"/>
<stop stop-color="#55DFFB" offset=".12371"/>
<stop stop-color="#55DEFB" offset=".12887"/>
<stop stop-color="#54DEFB" offset=".13402"/>
<stop stop-color="#54DEFB" offset=".13918"/>
<stop stop-color="#54DDFA" offset=".14433"/>
<stop stop-color="#54DDFA" offset=".14948"/>
<stop stop-color="#54DDFA" offset=".15464"/>
<stop stop-color="#54DCF9" offset=".15979"/>
<stop stop-color="#54DCF9" offset=".16495"/>
<stop stop-color="#53DBF9" offset=".1701"/>
<stop stop-color="#53DBF8" offset=".17526"/>
<stop stop-color="#53DBF8" offset=".18041"/>
<stop stop-color="#53DAF8" offset=".18557"/>
<stop stop-color="#53DAF7" offset=".19072"/>
<stop stop-color="#52D9F7" offset=".19588"/>
<stop stop-color="#52D9F7" offset=".20103"/>
<stop stop-color="#52D8F6" offset=".20619"/>
<stop stop-color="#52D8F6" offset=".21134"/>
<stop stop-color="#52D7F5" offset=".2165"/>
<stop stop-color="#51D7F5" offset=".22165"/>
<stop stop-color="#51D6F5" offset=".2268"/>
<stop stop-color="#51D6F4" offset=".23196"/>
<stop stop-color="#51D5F4" offset=".23711"/>
<stop stop-color="#50D5F3" offset=".24227"/>
<stop stop-color="#50D4F3" offset=".24742"/>
<stop stop-color="#50D4F2" offset=".25258"/>
<stop stop-color="#50D3F2" offset=".25773"/>
<stop stop-color="#4FD3F2" offset=".26289"/>
<stop stop-color="#4FD2F1" offset=".26804"/>
<stop stop-color="#4FD1F1" offset=".2732"/>
<stop stop-color="#4FD1F0" offset=".27835"/>
<stop stop-color="#4ED0F0" offset=".2835"/>
<stop stop-color="#4ED0EF" offset=".28866"/>
<stop stop-color="#4ECFEF" offset=".29381"/>
<stop stop-color="#4DCEEE" offset=".29897"/>
<stop stop-color="#4DCEED" offset=".30412"/>
<stop stop-color="#4DCDED" offset=".30928"/>
<stop stop-color="#4DCCEC" offset=".31443"/>
<stop stop-color="#4CCCEC" offset=".31959"/>
<stop stop-color="#4CCBEB" offset=".32474"/>
<stop stop-color="#4CCAEB" offset=".3299"/>
<stop stop-color="#4BC9EA" offset=".33505"/>
<stop stop-color="#4BC9E9" offset=".34021"/>
<stop stop-color="#4BC8E9" offset=".34536"/>
<stop stop-color="#4AC7E8" offset=".35052"/>
<stop stop-color="#4AC6E8" offset=".35567"/>
<stop stop-color="#4AC6E7" offset=".36082"/>
<stop stop-color="#49C5E6" offset=".36598"/>
<stop stop-color="#49C4E6" offset=".37113"/>
<stop stop-color="#49C3E5" offset=".37629"/>
<stop stop-color="#48C2E4" offset=".38144"/>
<stop stop-color="#48C2E4" offset=".3866"/>
<stop stop-color="#47C1E3" offset=".39175"/>
<stop stop-color="#47C0E2" offset=".39691"/>
<stop stop-color="#47BFE2" offset=".40206"/>
<stop stop-color="#46BEE1" offset=".40722"/>
<stop stop-color="#46BDE0" offset=".41237"/>
<stop stop-color="#46BDE0" offset=".41753"/>
<stop stop-color="#45BCDF" offset=".42268"/>
<stop stop-color="#45BBDE" offset=".42784"/>
<stop stop-color="#44BADD" offset=".43299"/>
<stop stop-color="#44B9DD" offset=".43814"/>
<stop stop-color="#44B8DC" offset=".4433"/>
<stop stop-color="#43B7DB" offset=".44845"/>
<stop stop-color="#43B6DA" offset=".45361"/>
<stop stop-color="#42B5DA" offset=".45876"/>
<stop stop-color="#42B4D9" offset=".46392"/>
<stop stop-color="#41B3D8" offset=".46907"/>
<stop stop-color="#41B2D7" offset=".47423"/>
<stop stop-color="#41B1D6" offset=".47938"/>
<stop stop-color="#40B0D6" offset=".48454"/>
<stop stop-color="#40AFD5" offset=".48969"/>
<stop stop-color="#3FAED4" offset=".49484"/>
<stop stop-color="#3FADD3" offset=".5"/>
<stop stop-color="#3EACD2" offset=".50516"/>
<stop stop-color="#3EABD1" offset=".51031"/>
<stop stop-color="#3DAAD1" offset=".51546"/>
<stop stop-color="#3DA9D0" offset=".52062"/>
<stop stop-color="#3CA8CF" offset=".52577"/>
<stop stop-color="#3CA7CE" offset=".53093"/>
<stop stop-color="#3BA6CD" offset=".53608"/>
<stop stop-color="#3BA5CC" offset=".54124"/>
<stop stop-color="#3AA4CB" offset=".54639"/>
<stop stop-color="#3AA3CA" offset=".55155"/>
<stop stop-color="#39A1C9" offset=".5567"/>
<stop stop-color="#39A0C9" offset=".56186"/>
<stop stop-color="#389FC8" offset=".56701"/>
<stop stop-color="#389EC7" offset=".57216"/>
<stop stop-color="#379DC6" offset=".57732"/>
<stop stop-color="#379CC5" offset=".58247"/>
<stop stop-color="#369BC4" offset=".58763"/>
<stop stop-color="#3699C3" offset=".59278"/>
<stop stop-color="#3598C2" offset=".59794"/>
<stop stop-color="#3597C1" offset=".60309"/>
<stop stop-color="#3496C0" offset=".60825"/>
<stop stop-color="#3495BF" offset=".6134"/>
<stop stop-color="#3393BE" offset=".61856"/>
<stop stop-color="#3392BD" offset=".62371"/>
<stop stop-color="#3291BC" offset=".62887"/>
<stop stop-color="#3190BB" offset=".63402"/>
<stop stop-color="#318EBA" offset=".63918"/>
<stop stop-color="#308DB9" offset=".64433"/>
<stop stop-color="#308CB8" offset=".64948"/>
<stop stop-color="#2F8AB7" offset=".65464"/>
<stop stop-color="#2F89B6" offset=".65979"/>
<stop stop-color="#2E88B5" offset=".66495"/>
<stop stop-color="#2D86B3" offset=".6701"/>
<stop stop-color="#2D85B2" offset=".67526"/>
<stop stop-color="#2C84B1" offset=".68041"/>
<stop stop-color="#2C82B0" offset=".68557"/>
<stop stop-color="#2B81AF" offset=".69072"/>
<stop stop-color="#2A80AE" offset=".69588"/>
<stop stop-color="#2A7EAD" offset=".70103"/>
<stop stop-color="#297DAC" offset=".70619"/>
<stop stop-color="#297CAB" offset=".71134"/>
<stop stop-color="#287AA9" offset=".7165"/>
<stop stop-color="#2779A8" offset=".72165"/>
<stop stop-color="#2777A7" offset=".7268"/>
<stop stop-color="#2676A6" offset=".73196"/>
<stop stop-color="#2574A5" offset=".73711"/>
<stop stop-color="#2573A4" offset=".74227"/>
<stop stop-color="#2472A2" offset=".74742"/>
<stop stop-color="#2370A1" offset=".75258"/>
<stop stop-color="#236FA0" offset=".75773"/>
<stop stop-color="#226D9F" offset=".76289"/>
<stop stop-color="#216C9E" offset=".76804"/>
<stop stop-color="#216A9C" offset=".7732"/>
<stop stop-color="#20699B" offset=".77835"/>
<stop stop-color="#1F679A" offset=".7835"/>
<stop stop-color="#1F6699" offset=".78866"/>
<stop stop-color="#1E6497" offset=".79381"/>
<stop stop-color="#1D6296" offset=".79897"/>
<stop stop-color="#1D6195" offset=".80412"/>
<stop stop-color="#1C5F94" offset=".80928"/>
<stop stop-color="#1B5E92" offset=".81443"/>
<stop stop-color="#1B5C91" offset=".81959"/>
<stop stop-color="#1A5B90" offset=".82474"/>
<stop stop-color="#19598E" offset=".8299"/>
<stop stop-color="#18578D" offset=".83505"/>
<stop stop-color="#18568C" offset=".84021"/>
<stop stop-color="#17548A" offset=".84536"/>
<stop stop-color="#165389" offset=".85052"/>
<stop stop-color="#165188" offset=".85567"/>
<stop stop-color="#154F86" offset=".86082"/>
<stop stop-color="#144E85" offset=".86598"/>
<stop stop-color="#134C84" offset=".87113"/>
<stop stop-color="#134A82" offset=".87629"/>
<stop stop-color="#124981" offset=".88144"/>
<stop stop-color="#114780" offset=".8866"/>
<stop stop-color="#10457E" offset=".89175"/>
<stop stop-color="#10437D" offset=".89691"/>
<stop stop-color="#0F427B" offset=".90206"/>
<stop stop-color="#0E407A" offset=".90722"/>
<stop stop-color="#0D3E79" offset=".91237"/>
<stop stop-color="#0C3D77" offset=".91753"/>
<stop stop-color="#0C3B76" offset=".92268"/>
<stop stop-color="#0B3974" offset=".92784"/>
<stop stop-color="#0A3773" offset=".93299"/>
<stop stop-color="#093671" offset=".93814"/>
<stop stop-color="#093470" offset=".9433"/>
<stop stop-color="#08326F" offset=".94845"/>
<stop stop-color="#07306D" offset=".95361"/>
<stop stop-color="#062E6C" offset=".95876"/>
<stop stop-color="#052C6A" offset=".96392"/>
<stop stop-color="#042B69" offset=".96907"/>
<stop stop-color="#042967" offset=".97423"/>
<stop stop-color="#032766" offset=".97938"/>
<stop stop-color="#022564" offset=".98454"/>
<stop stop-color="#012363" offset=".98969"/>
<stop stop-color="#002161" offset=".99484"/>
<stop stop-color="#002060" offset="1"/>
</linearGradient>
</defs>
<g transform="translate(2 2)" clip-path="url(#b)">
<rect transform="matrix(-1 -8.7423e-8 -8.7423e-8 1 1152 -1)" width="1154" height="1249" fill="#fff"/>
<text transform="translate(248.61 97)" font-family="Calibri,Calibri_MSFontService,sans-serif" font-size="32" font-weight="400">“My pet dog ate my homework!”</text>
<rect x="242.5" y="197.5" width="111" height="28" fill="#00B0F0" stroke="#000" stroke-miterlimit="8" stroke-width="3"/>
<text transform="translate(284.32 218)" fill="#FFFFFF" font-family="Calibri,Calibri_MSFontService,sans-serif" font-size="20" font-weight="400">pet</text>
<rect x="352.5" y="197.5" width="111" height="28" fill="#00B0F0" stroke="#000" stroke-miterlimit="8" stroke-width="3"/>
<text transform="translate(392.72 218)" fill="#FFFFFF" font-family="Calibri,Calibri_MSFontService,sans-serif" font-size="20" font-weight="400">dog</text>
<rect x="463.5" y="197.5" width="111" height="28" fill="#00B0F0" stroke="#000" stroke-miterlimit="8" stroke-width="3"/>
<text transform="translate(505.88 218)" fill="#FFFFFF" font-family="Calibri,Calibri_MSFontService,sans-serif" font-size="20" font-weight="400">eat</text>
<rect x="574.5" y="197.5" width="111" height="28" fill="#00B0F0" stroke="#000" stroke-miterlimit="8" stroke-width="3"/>
<text transform="translate(585.99 218)" fill="#FFFFFF" font-family="Calibri,Calibri_MSFontService,sans-serif" font-size="20" font-weight="400">homework</text>
<path d="m241 239c-5.523 0-10-4.315-10-9.638v-35.724c0-5.323 4.477-9.638 10-9.638" fill="none" fill-rule="evenodd" stroke="#000" stroke-miterlimit="8" stroke-width="6"/>
<rect x="38" y="192" width="137" height="39"/>
<text transform="translate(58.2 219)" fill="#FFFFFF" font-family="Calibri,Calibri_MSFontService,sans-serif" font-size="24" font-weight="400">Figure 1.2</text>
<path d="m175 211h56.438" fill="none" fill-rule="evenodd" stroke="#000" stroke-miterlimit="8" stroke-width="6"/>
<path transform="matrix(-1 -8.7423e-8 -8.7423e-8 1 696 184)" d="M11 55C4.92487 55 0 50.2536 0 44.3987L0 10.6013C-1.75056e-15 4.74638 4.92487 0 11 0" fill="none" fill-rule="evenodd" stroke="#000" stroke-miterlimit="8" stroke-width="6"/>
<path d="m241 114c-5.523 0-10-4.315-10-9.638v-35.724c0-5.3227 4.477-9.6376 10-9.6376" fill="none" fill-rule="evenodd" stroke="#000" stroke-miterlimit="8" stroke-width="6"/>
<path d="m175 87 56.438 2e-4" fill="none" fill-rule="evenodd" stroke="#000" stroke-miterlimit="8" stroke-width="6"/>
<path transform="matrix(-1 -8.7423e-8 -8.7423e-8 1 696 59)" d="M11 55C4.92487 55 0 50.2536 0 44.3987L0 10.6013C-1.75056e-15 4.74638 4.92487 0 11 0" fill="none" fill-rule="evenodd" stroke="#000" stroke-miterlimit="8" stroke-width="6"/>
<rect x="38" y="67" width="137" height="39"/>
<text transform="translate(58.2 94)" fill="#FFFFFF" font-family="Calibri,Calibri_MSFontService,sans-serif" font-size="24" font-weight="400">Figure 1.1</text>
<rect x="241.5" y="324.5" width="110" height="27" fill="#00B0F0" stroke="#000" stroke-miterlimit="8" stroke-width="3"/>
<text transform="translate(282.46 344)" fill="#FFFFFF" font-family="Calibri,Calibri_MSFontService,sans-serif" font-size="20" font-weight="400">pet</text>
<rect x="351.5" y="324.5" width="111" height="27" fill="#FFC000" stroke="#000" stroke-miterlimit="8" stroke-width="3"/>
<text transform="translate(391.77 344)" font-family="Calibri,Calibri_MSFontService,sans-serif" font-size="20" font-weight="400">dog</text>
<rect x="463.5" y="324.5" width="111" height="27" fill="#FFC000" stroke="#000" stroke-miterlimit="8" stroke-width="3"/>
<text transform="translate(505.4 345)" font-family="Calibri,Calibri_MSFontService,sans-serif" font-size="20" font-weight="400">eat</text>
<rect x="351.5" y="391.5" width="111" height="28" fill="#FFC000" stroke="#000" stroke-miterlimit="8" stroke-width="3"/>
<text transform="translate(392.97 412)" font-family="Calibri,Calibri_MSFontService,sans-serif" font-size="20" font-weight="400">pet</text>
<rect x="572.5" y="391.5" width="111" height="28" fill="#FFC000" stroke="#000" stroke-miterlimit="8" stroke-width="3"/>
<text transform="translate(584.09 412)" font-family="Calibri,Calibri_MSFontService,sans-serif" font-size="20" font-weight="400">homework</text>
<rect x="462.5" y="391.5" width="111" height="28" fill="#FFC000" stroke="#000" stroke-miterlimit="8" stroke-width="3"/>
<text transform="translate(504.45 412)" font-family="Calibri,Calibri_MSFontService,sans-serif" font-size="20" font-weight="400">eat</text>
<rect x="241.5" y="460.5" width="111" height="28" fill="#00B0F0" stroke="#000" stroke-miterlimit="8" stroke-width="3"/>
<text transform="translate(283.33 481)" fill="#FFFFFF" font-family="Calibri,Calibri_MSFontService,sans-serif" font-size="20" font-weight="400">eat</text>
<rect x="352.5" y="460.5" width="111" height="28" fill="#FFC000" stroke="#000" stroke-miterlimit="8" stroke-width="3"/>
<text transform="translate(393.76 481)" font-family="Calibri,Calibri_MSFontService,sans-serif" font-size="20" font-weight="400">pet</text>
<rect x="573.5" y="460.5" width="111" height="28" fill="#FFC000" stroke="#000" stroke-miterlimit="8" stroke-width="3"/>
<text transform="translate(584.92 481)" font-family="Calibri,Calibri_MSFontService,sans-serif" font-size="20" font-weight="400">homework</text>
<rect x="463.5" y="460.5" width="111" height="28" fill="#FFC000" stroke="#000" stroke-miterlimit="8" stroke-width="3"/>
<text transform="translate(503.1 481)" font-family="Calibri,Calibri_MSFontService,sans-serif" font-size="20" font-weight="400">dog</text>
<rect x="241.5" y="528.5" width="111" height="27" fill="#00B0F0" stroke="#000" stroke-miterlimit="8" stroke-width="3"/>
<text transform="translate(252.45 549)" fill="#FFFFFF" font-family="Calibri,Calibri_MSFontService,sans-serif" font-size="20" font-weight="400">homework</text>
<rect x="351.5" y="528.5" width="111" height="27" fill="#FFC000" stroke="#000" stroke-miterlimit="8" stroke-width="3"/>
<text transform="translate(391.3 549)" font-family="Calibri,Calibri_MSFontService,sans-serif" font-size="20" font-weight="400">dog</text>
<rect x="462.5" y="528.5" width="111" height="27" fill="#FFC000" stroke="#000" stroke-miterlimit="8" stroke-width="3"/>
<text transform="translate(504.29 549)" font-family="Calibri,Calibri_MSFontService,sans-serif" font-size="20" font-weight="400">eat</text>
<path d="m241 571c-5.523 0-10-4.315-10-9.638v-243.72c0-5.323 4.477-9.638 10-9.638" fill="none" fill-rule="evenodd" stroke="#000" stroke-miterlimit="8" stroke-width="6"/>
<rect x="38" y="420" width="137" height="39"/>
<text transform="translate(58.2 447)" fill="#FFFFFF" font-family="Calibri,Calibri_MSFontService,sans-serif" font-size="24" font-weight="400">Figure 1.3</text>
<path d="m175 439h55.964" fill="none" fill-rule="evenodd" stroke="#000" stroke-miterlimit="8" stroke-width="6"/>
<path transform="matrix(-1 -8.7423e-8 -8.7423e-8 1 696 308)" d="M11 263C4.92487 263 0 258.254 0 252.399L0 10.6011C-4.18552e-15 4.74628 4.92487 0 11 0" fill="none" fill-rule="evenodd" stroke="#000" stroke-miterlimit="8" stroke-width="6"/>
<rect x="241" y="1016" width="443" height="31" fill="url(#a)"/>
<text transform="translate(599.73 1038)" fill="#FFFFFF" font-family="Calibri,Calibri_MSFontService,sans-serif" font-size="21" font-weight="400">Common<tspan x="-354.543" y="0" fill="#000000">Unique</tspan></text>
<rect x="575.5" y="1072.5" width="111" height="27" fill="#124982" stroke="#000" stroke-miterlimit="8" stroke-width="3"/>
<text transform="translate(616.95 1093)" fill="#FFFFFF" font-family="Calibri,Calibri_MSFontService,sans-serif" font-size="20" font-weight="400">pet</text>
<rect x="242.5" y="1072.5" width="111" height="27" fill="#56E0FD" stroke="#000" stroke-miterlimit="8" stroke-width="3"/>
<text transform="translate(253.8 1093)" font-family="Calibri,Calibri_MSFontService,sans-serif" font-size="20" font-weight="400">homework</text>
<rect x="353.5" y="1072.5" width="111" height="27" fill="#4AC6E7" stroke="#000" stroke-miterlimit="8" stroke-width="3"/>
<text transform="translate(395.17 1093)" font-family="Calibri,Calibri_MSFontService,sans-serif" font-size="20" font-weight="400">eat</text>
<rect x="464.5" y="1072.5" width="111" height="27" fill="#2D86B3" stroke="#000" stroke-miterlimit="8" stroke-width="3"/>
<text transform="translate(503.97 1093)" fill="#FFFFFF" font-family="Calibri,Calibri_MSFontService,sans-serif" font-size="20" font-weight="400">dog</text>
<path transform="matrix(-1 -8.7423e-8 -8.7423e-8 1 696 1001)" d="M11 112C4.92487 112 0 107.254 0 101.399L0 10.6013C-1.78239e-15 4.74636 4.92487 0 11 0" fill="none" fill-rule="evenodd" stroke="#000" stroke-miterlimit="8" stroke-width="6"/>
<path d="m241 1112c-6.075 0-11-4.75-11-10.6v-89.8c0-5.85 4.925-10.6 11-10.6" fill="none" fill-rule="evenodd" stroke="#000" stroke-miterlimit="8" stroke-width="6"/>
<rect x="38" y="1037" width="137" height="39"/>
<text transform="translate(58.427 1064)" fill="#FFFFFF" font-family="Calibri,Calibri_MSFontService,sans-serif" font-size="24" font-weight="400">Figure 1.5</text>
<path d="m175 1056h55.49" fill="none" fill-rule="evenodd" stroke="#000" stroke-miterlimit="8" stroke-width="6"/>
<text transform="translate(256.49 1201)" font-family="Calibri,Calibri_MSFontService,sans-serif" font-size="37" font-weight="400">[“homework”, “eat”, “dog”]</text>
<path transform="matrix(-1 -8.7423e-8 -8.7423e-8 1 695 1164)" d="M10 55C4.47715 55 0 50.6851 0 45.3624L0 9.63757C0 4.31489 4.47715 0 10 0" fill="none" fill-rule="evenodd" stroke="#000" stroke-miterlimit="8" stroke-width="6"/>
<path d="m175 1192 56.439 0.11" fill="none" fill-rule="evenodd" stroke="#000" stroke-miterlimit="8" stroke-width="6"/>
<path d="m241 1219c-5.523 0-10-4.31-10-9.64v-35.72c0-5.33 4.477-9.64 10-9.64" fill="none" fill-rule="evenodd" stroke="#000" stroke-miterlimit="8" stroke-width="6"/>
<rect x="38" y="1172" width="137" height="39"/>
<text transform="translate(58.2 1199)" fill="#FFFFFF" font-family="Calibri,Calibri_MSFontService,sans-serif" font-size="24" font-weight="400">Figure 1.6</text>
<rect x="762" y="308" width="322" height="49" fill="#7F7F7F"/>
<text transform="translate(802.19 344)" fill="#FFFFFF" font-family="Calibri,Calibri_MSFontService,sans-serif" font-size="32" font-weight="400">Text Preprocessing</text>
<rect x="762" y="501" width="322" height="48" fill="#C55A11"/>
<text transform="translate(795.77 536)" fill="#FFFFFF" font-family="Calibri,Calibri_MSFontService,sans-serif" font-size="32" font-weight="400">Context Generation</text>
<rect x="762" y="357" width="322" height="144" fill="#0D0D0D"/>
<text transform="translate(814.55 393)" fill="#FFFFFF" font-family="Calibri,Calibri_MSFontService,sans-serif" font-size="24" font-weight="400">Filters out stop words, <tspan x="-30.98" y="29">removes punctuation marks, </tspan><tspan x="-31.6934" y="58">and splits the document into </tspan><tspan x="15.6266" y="87">lemmatized words.</tspan></text>
<rect x="762" y="549" width="322" height="252" fill="#0D0D0D"/>
<text transform="translate(821.92 582)" fill="#FFFFFF" font-family="Calibri,Calibri_MSFontService,sans-serif" font-size="24" font-weight="400">For each token, a set <tspan x="-44.18" y="29">containing the words within K </tspan><tspan x="-38.0333" y="58">words away is created. If the </tspan><tspan x="-17.9933" y="87">window size is K and the </tspan><tspan x="-40.3134" y="116">position of the target word is </tspan><tspan x="-11.32" y="144">C, then all words in the </tspan><tspan x="-44.86" y="173">domain [C</tspan><tspan x="54.9733" y="173">-</tspan><tspan x="62.3066" y="173">K, C+K] excluding C </tspan><tspan x="36.3134" y="202">are returned.</tspan></text>
<rect x="762" y="801" width="322" height="48" fill="#002060"/>
<text transform="translate(775.62 836)" fill="#FFFFFF" font-family="Calibri,Calibri_MSFontService,sans-serif" font-size="32" font-weight="400">Uniqueness Evaluation</text>
<rect x="762" y="849" width="322" height="176" fill="#0D0D0D"/>
<text transform="translate(776.72 887)" fill="#FFFFFF" font-family="Calibri,Calibri_MSFontService,sans-serif" font-size="24" font-weight="400">Each target word is assigned a <tspan x="26.7333" y="29">uniqueness value, which </tspan><tspan x="11.66" y="58">defines the uniqueness of a </tspan><tspan x="22.0467" y="87">word in comparison to its </tspan><tspan x="106.707" y="116">context.</tspan></text>
<path d="m548 158.5h12.75v-44.5h25.5v44.5h12.75l-25.5 25.5z" fill="#124982" fill-rule="evenodd"/>
<path d="m327 158.5h12.75v-44.5h25.5v44.5h12.75l-25.5 25.5z" fill="#124982" fill-rule="evenodd"/>
<text transform="translate(443.11 141)" fill="#002060" font-family="Calibri,Calibri_MSFontService,sans-serif" font-size="24" font-weight="400">Text <tspan x="-48.1933" y="29">Preprocessing</tspan></text>
<path d="m548 279.5h12.75v-43.5h25.5v43.5h12.75l-25.5 25.5z" fill="#124982" fill-rule="evenodd"/>
<path d="m327 279.5h12.75v-43.5h25.5v43.5h12.75l-25.5 25.5z" fill="#124982" fill-rule="evenodd"/>
<text transform="translate(426.46 262)" fill="#002060" font-family="Calibri,Calibri_MSFontService,sans-serif" font-size="24" font-weight="400">Context<tspan x="-17.0267" y="29">Generation</tspan><tspan x="9.97006" y="-217">Input</tspan></text>
<rect x="240.5" y="391.5" width="111" height="28" fill="#00B0F0" stroke="#000" stroke-miterlimit="8" stroke-width="3"/>
<text transform="translate(280.82 412)" fill="#FFFFFF" font-family="Calibri,Calibri_MSFontService,sans-serif" font-size="20" font-weight="400">dog<tspan x="-29.5427" y="-96" fill="#00B0F0" font-size="19">Target Word</tspan></text>
<path d="m548 615.5h12.75v-43.5h25.5v43.5h12.75l-25.5 25.5z" fill="#124982" fill-rule="evenodd"/>
<path d="m327 615.5h12.75v-43.5h25.5v43.5h12.75l-25.5 25.5z" fill="#124982" fill-rule="evenodd"/>
<text transform="translate(418.91 598)" fill="#002060" font-family="Calibri,Calibri_MSFontService,sans-serif" font-size="24" font-weight="400">Similarity <tspan x="-5.26669" y="29">Evaluation</tspan></text>
<rect x="240.5" y="657.5" width="111" height="27" fill="#00B0F0" stroke="#000" stroke-miterlimit="8" stroke-width="3"/>
<text transform="translate(281.94 677)" fill="#FFFFFF" font-family="Calibri,Calibri_MSFontService,sans-serif" font-size="20" font-weight="400">pet</text>
<rect x="351.5" y="657.5" width="111" height="27" fill="#FFC000" stroke="#000" stroke-miterlimit="8" stroke-width="3"/>
<text transform="translate(391.3 677)" font-family="Calibri,Calibri_MSFontService,sans-serif" font-size="20" font-weight="400">dog</text>
<rect x="351.5" y="724.5" width="111" height="28" fill="#FFC000" stroke="#000" stroke-miterlimit="8" stroke-width="3"/>
<text transform="translate(392.5 745)" font-family="Calibri,Calibri_MSFontService,sans-serif" font-size="20" font-weight="400">pet</text>
<rect x="572.5" y="724.5" width="111" height="28" fill="#FFC000" stroke="#000" stroke-miterlimit="8" stroke-width="3"/>
<text transform="translate(583.62 745)" font-family="Calibri,Calibri_MSFontService,sans-serif" font-size="20" font-weight="400">homework</text>
<rect x="461.5" y="724.5" width="111" height="28" fill="#FFC000" stroke="#000" stroke-miterlimit="8" stroke-width="3"/>
<text transform="translate(503.98 745)" font-family="Calibri,Calibri_MSFontService,sans-serif" font-size="20" font-weight="400">eat</text>
<rect x="240.5" y="793.5" width="111" height="28" fill="#00B0F0" stroke="#000" stroke-miterlimit="8" stroke-width="3"/>
<text transform="translate(282.86 814)" fill="#FFFFFF" font-family="Calibri,Calibri_MSFontService,sans-serif" font-size="20" font-weight="400">eat</text>
<rect x="351.5" y="793.5" width="111" height="28" fill="#FFC000" stroke="#000" stroke-miterlimit="8" stroke-width="3"/>
<text transform="translate(393.28 814)" font-family="Calibri,Calibri_MSFontService,sans-serif" font-size="20" font-weight="400">pet</text>
<rect x="573.5" y="793.5" width="111" height="28" fill="#FFC000" stroke="#000" stroke-miterlimit="8" stroke-width="3"/>
<text transform="translate(584.44 814)" font-family="Calibri,Calibri_MSFontService,sans-serif" font-size="20" font-weight="400">homework</text>
<rect x="462.5" y="793.5" width="111" height="28" fill="#FFC000" stroke="#000" stroke-miterlimit="8" stroke-width="3"/>
<text transform="translate(502.63 814)" font-family="Calibri,Calibri_MSFontService,sans-serif" font-size="20" font-weight="400">dog</text>
<rect x="240.5" y="861.5" width="111" height="27" fill="#00B0F0" stroke="#000" stroke-miterlimit="8" stroke-width="3"/>
<text transform="translate(251.98 881)" fill="#FFFFFF" font-family="Calibri,Calibri_MSFontService,sans-serif" font-size="20" font-weight="400">homework</text>
<rect x="350.5" y="861.5" width="111" height="27" fill="#FFC000" stroke="#000" stroke-miterlimit="8" stroke-width="3"/>
<text transform="translate(390.82 881)" font-family="Calibri,Calibri_MSFontService,sans-serif" font-size="20" font-weight="400">dog</text>
<rect x="462.5" y="861.5" width="111" height="27" fill="#FFC000" stroke="#000" stroke-miterlimit="8" stroke-width="3"/>
<text transform="translate(504.45 881)" font-family="Calibri,Calibri_MSFontService,sans-serif" font-size="20" font-weight="400">eat</text>
<path d="m240 936c-5.523 0-10-4.315-10-9.637v-288.73c0-5.322 4.477-9.637 10-9.637" fill="none" fill-rule="evenodd" stroke="#000" stroke-miterlimit="8" stroke-width="6"/>
<rect x="37" y="762" width="137" height="39"/>
<text transform="translate(57.608 789)" fill="#FFFFFF" font-family="Calibri,Calibri_MSFontService,sans-serif" font-size="24" font-weight="400">Figure 1.4</text>
<path d="m174 782h56.081" fill="none" fill-rule="evenodd" stroke="#000" stroke-miterlimit="8" stroke-width="6"/>
<path transform="matrix(-1 -8.7423e-8 -8.7423e-8 1 695 628)" d="m10 308c-5.5228 0-10-4.315-10-9.637v-288.73c-2.4508e-15 -5.3226 4.4772-9.6375 10-9.6375" fill="none" fill-rule="evenodd" stroke="#000" stroke-miterlimit="8" stroke-width="6"/>
<rect x="240.5" y="724.5" width="111" height="28" fill="#00B0F0" stroke="#000" stroke-miterlimit="8" stroke-width="3"/>
<text transform="translate(280.14 745)" fill="#FFFFFF" font-family="Calibri,Calibri_MSFontService,sans-serif" font-size="20" font-weight="400">dog<tspan x="-29.3405" y="-96" fill="#00B0F0" font-size="19">Target Word</tspan></text>
<rect x="462.5" y="657.5" width="111" height="27" fill="#FFC000" stroke="#000" stroke-miterlimit="8" stroke-width="3"/>
<text transform="translate(504.69 677)" font-family="Calibri,Calibri_MSFontService,sans-serif" font-size="20" font-weight="400">eat</text>
<rect x="326.5" y="700.5" width="49" height="19" fill="#0070C0" stroke="#000" stroke-miterlimit="8" stroke-width="3"/>
<text transform="translate(340.68 715)" fill="#FFFFFF" font-family="Calibri,Calibri_MSFontService,sans-serif" font-size="16" font-weight="400">0.8</text>
<path d="m295.5 684.5 55.382 15.626" fill="none" fill-rule="evenodd" stroke="#000" stroke-miterlimit="8" stroke-width="3"/>
<path transform="matrix(-1 -8.7423e-8 -8.7423e-8 1 407.11 684.5)" d="m0 0 55.613 15.602" fill="none" fill-rule="evenodd" stroke="#000" stroke-miterlimit="8" stroke-width="3"/>
<rect x="438.5" y="699.5" width="48" height="19" fill="#0070C0" stroke="#000" stroke-miterlimit="8" stroke-width="3"/>
<text transform="translate(451.79 714)" fill="#FFFFFF" font-family="Calibri,Calibri_MSFontService,sans-serif" font-size="16" font-weight="400">0.4</text>
<path d="m295.5 684.5 166.49 15.04" fill="none" fill-rule="evenodd" stroke="#000" stroke-miterlimit="8" stroke-width="3"/>
<path transform="matrix(-1 -8.7423e-8 -8.7423e-8 1 518.23 684.5)" d="m0 0 55.728 15.04" fill="none" fill-rule="evenodd" stroke="#000" stroke-miterlimit="8" stroke-width="3"/>
<rect x="328.5" y="768.5" width="48" height="19" fill="#0070C0" stroke="#000" stroke-miterlimit="8" stroke-width="3"/>
<text transform="translate(341.88 783)" fill="#FFFFFF" font-family="Calibri,Calibri_MSFontService,sans-serif" font-size="16" font-weight="400">0.8</text>
<path d="m295.5 752.5 56.739 16.387" fill="none" fill-rule="evenodd" stroke="#000" stroke-miterlimit="8" stroke-width="3"/>
<path transform="matrix(-1 -8.7423e-8 -8.7423e-8 1 406.48 752.5)" d="m0 0 53.984 16.386" fill="none" fill-rule="evenodd" stroke="#000" stroke-miterlimit="8" stroke-width="3"/>
<rect x="437.5" y="768.5" width="49" height="19" fill="#0070C0" stroke="#000" stroke-miterlimit="8" stroke-width="3"/>
<text transform="translate(451.31 783)" fill="#FFFFFF" font-family="Calibri,Calibri_MSFontService,sans-serif" font-size="16" font-weight="400">0.5</text>
<path d="m295.5 752.5 166.17 16.387" fill="none" fill-rule="evenodd" stroke="#000" stroke-miterlimit="8" stroke-width="3"/>
<path transform="matrix(-1 -8.7423e-8 -8.7423e-8 1 516.99 752.5)" d="m0 0 55.49 16.386" fill="none" fill-rule="evenodd" stroke="#000" stroke-miterlimit="8" stroke-width="3"/>
<rect x="548.5" y="768.5" width="49" height="19" fill="#0070C0" stroke="#000" stroke-miterlimit="8" stroke-width="3"/>
<text transform="translate(562.61 783)" fill="#FFFFFF" font-family="Calibri,Calibri_MSFontService,sans-serif" font-size="16" font-weight="400">0.1</text>
<path d="m295.5 752.5 277.47 16.147" fill="none" fill-rule="evenodd" stroke="#000" stroke-miterlimit="8" stroke-width="3"/>
<path transform="matrix(-1 -8.7423e-8 -8.7423e-8 1 628.2 752.5)" d="m0 0 54.703 16.146" fill="none" fill-rule="evenodd" stroke="#000" stroke-miterlimit="8" stroke-width="3"/>
<rect x="328.5" y="836.5" width="48" height="20" fill="#0070C0" stroke="#000" stroke-miterlimit="8" stroke-width="3"/>
<text transform="translate(341.88 851)" fill="#FFFFFF" font-family="Calibri,Calibri_MSFontService,sans-serif" font-size="16" font-weight="400">0.4</text>
<path d="m295.5 820.5 56.739 16.387" fill="none" fill-rule="evenodd" stroke="#000" stroke-miterlimit="8" stroke-width="3"/>
<path transform="matrix(-1 -8.7423e-8 -8.7423e-8 1 407.27 821.5)" d="m0 0 54.768 15.739" fill="none" fill-rule="evenodd" stroke="#000" stroke-miterlimit="8" stroke-width="3"/>
<rect x="437.5" y="836.5" width="49" height="19" fill="#0070C0" stroke="#000" stroke-miterlimit="8" stroke-width="3"/>
<text transform="translate(451.35 851)" fill="#FFFFFF" font-family="Calibri,Calibri_MSFontService,sans-serif" font-size="16" font-weight="400">0.5</text>
<path transform="matrix(-1 -8.7423e-8 -8.7423e-8 1 518.77 821.5)" d="m0 0 56.273 15.421" fill="none" fill-rule="evenodd" stroke="#000" stroke-miterlimit="8" stroke-width="3"/>
<path d="m296.5 821.5 165.67 15.374" fill="none" fill-rule="evenodd" stroke="#000" stroke-miterlimit="8" stroke-width="3"/>
<rect x="548.5" y="836.5" width="49" height="19" fill="#0070C0" stroke="#000" stroke-miterlimit="8" stroke-width="3"/>
<text transform="translate(562.61 851)" fill="#FFFFFF" font-family="Calibri,Calibri_MSFontService,sans-serif" font-size="16" font-weight="400">0.1</text>
<path d="m296.5 821.5 276.92 15.011" fill="none" fill-rule="evenodd" stroke="#000" stroke-miterlimit="8" stroke-width="3"/>
<path transform="matrix(1 0 0 -1 573.5 836.56)" d="m0 0 55.526 15.058" fill="none" fill-rule="evenodd" stroke="#000" stroke-miterlimit="8" stroke-width="3"/>
<rect x="326.5" y="904.5" width="49" height="19" fill="#0070C0" stroke="#000" stroke-miterlimit="8" stroke-width="3"/>
<text transform="translate(340.68 919)" fill="#FFFFFF" font-family="Calibri,Calibri_MSFontService,sans-serif" font-size="16" font-weight="400">0.1</text>
<path d="m296.5 888.5 55.018 15.421" fill="none" fill-rule="evenodd" stroke="#000" stroke-miterlimit="8" stroke-width="3"/>
<path transform="matrix(-1 -8.7423e-8 -8.7423e-8 1 406.64 888.5)" d="m0 0 55.139 15.421" fill="none" fill-rule="evenodd" stroke="#000" stroke-miterlimit="8" stroke-width="3"/>
<rect x="437.5" y="904.5" width="48" height="19" fill="#0070C0" stroke="#000" stroke-miterlimit="8" stroke-width="3"/>
<text transform="translate(450.78 919)" fill="#FFFFFF" font-family="Calibri,Calibri_MSFontService,sans-serif" font-size="16" font-weight="400">0.1</text>
<path transform="matrix(-1 -8.7423e-8 -8.7423e-8 1 517.99 888.5)" d="m0 0 56.494 15.76" fill="none" fill-rule="evenodd" stroke="#000" stroke-miterlimit="8" stroke-width="3"/>
<path d="m461.62 904.26-165.12-15.76" fill="none" fill-rule="evenodd" stroke="#000" stroke-miterlimit="8" stroke-width="3"/>
<text transform="translate(617.67 1064)" fill="#002060" font-family="Calibri,Calibri_MSFontService,sans-serif" font-size="19" font-weight="700">0.6<tspan x="-115.794" y="0">0.47</tspan><tspan x="-226.8" y="1">0.33</tspan><tspan x="-332.116" y="1">0.1</tspan></text>
<path d="m546 978.5h12.75v-44.5h25.5v44.5h12.75l-25.5 25.5z" fill="#124982" fill-rule="evenodd"/>
<path d="m325 978.5h12.75v-44.5h25.5v44.5h12.75l-25.5 25.5z" fill="#124982" fill-rule="evenodd"/>
<text transform="translate(423.54 961)" fill="#002060" font-family="Calibri,Calibri_MSFontService,sans-serif" font-size="24" font-weight="400">Average<tspan x="-1.93332" y="29">and Sort</tspan><tspan x="302.851" y="-665" fill="#000000">Parameters: window size = 2, list size = 3</tspan></text>
<path d="m547 1148.5h12.75v-44.5h25.5v44.5h12.75l-25.5 25.5z" fill="#124982" fill-rule="evenodd"/>
<path d="m326 1148.5h12.75v-44.5h25.5v44.5h12.75l-25.5 25.5z" fill="#124982" fill-rule="evenodd"/>
<text transform="translate(426.03 1142)" fill="#002060" font-family="Calibri,Calibri_MSFontService,sans-serif" font-size="24" font-weight="400">Output</text>
<rect x="829" y="98" width="188" height="70"/>
<text transform="translate(853.38 147)" fill="#FFFFFF" font-family="Calibri,Calibri_MSFontService,sans-serif" font-size="43" font-weight="400">Figure 1</text>
</g>
</svg>
