<svg width="768" height="1344" xmlns="http://www.w3.org/2000/svg" xmlns:xlink="http://www.w3.org/1999/xlink" overflow="hidden"><defs><clipPath id="clip0"><path d="M0 0 768 0 768 1344 0 1344Z" fill-rule="evenodd" clip-rule="evenodd"/></clipPath><linearGradient x1="255" y1="1129.5" x2="698" y2="1129.5" gradientUnits="userSpaceOnUse" spreadMethod="reflect" id="fill1"><stop offset="0" stop-color="#57E3FF"/><stop offset="0.00515464" stop-color="#56E2FE"/><stop offset="0.0103093" stop-color="#56E2FE"/><stop offset="0.0154639" stop-color="#56E2FE"/><stop offset="0.0206186" stop-color="#56E2FE"/><stop offset="0.0257732" stop-color="#56E2FE"/><stop offset="0.0309278" stop-color="#56E2FE"/><stop offset="0.0360825" stop-color="#56E2FE"/><stop offset="0.0412371" stop-color="#56E2FE"/><stop offset="0.0463918" stop-color="#56E2FE"/><stop offset="0.0515464" stop-color="#56E2FE"/><stop offset="0.056701" stop-color="#56E2FE"/><stop offset="0.0618557" stop-color="#56E1FE"/><stop offset="0.0670103" stop-color="#56E1FD"/><stop offset="0.0721649" stop-color="#56E1FD"/><stop offset="0.0773196" stop-color="#56E1FD"/><stop offset="0.0824742" stop-color="#56E1FD"/><stop offset="0.0876289" stop-color="#56E0FD"/><stop offset="0.0927835" stop-color="#55E0FD"/><stop offset="0.0979381" stop-color="#55E0FC"/><stop offset="0.103093" stop-color="#55E0FC"/><stop offset="0.108247" stop-color="#55DFFC"/><stop offset="0.113402" stop-color="#55DFFC"/><stop offset="0.118557" stop-color="#55DFFC"/><stop offset="0.123711" stop-color="#55DFFB"/><stop offset="0.128866" stop-color="#55DEFB"/><stop offset="0.134021" stop-color="#54DEFB"/><stop offset="0.139175" stop-color="#54DEFB"/><stop offset="0.14433" stop-color="#54DDFA"/><stop offset="0.149485" stop-color="#54DDFA"/><stop offset="0.154639" stop-color="#54DDFA"/><stop offset="0.159794" stop-color="#54DCF9"/><stop offset="0.164948" stop-color="#54DCF9"/><stop offset="0.170103" stop-color="#53DBF9"/><stop offset="0.175258" stop-color="#53DBF8"/><stop offset="0.180412" stop-color="#53DBF8"/><stop offset="0.185567" stop-color="#53DAF8"/><stop offset="0.190722" stop-color="#53DAF7"/><stop offset="0.195876" stop-color="#52D9F7"/><stop offset="0.201031" stop-color="#52D9F7"/><stop offset="0.206186" stop-color="#52D8F6"/><stop offset="0.21134" stop-color="#52D8F6"/><stop offset="0.216495" stop-color="#52D7F5"/><stop offset="0.221649" stop-color="#51D7F5"/><stop offset="0.226804" stop-color="#51D6F5"/><stop offset="0.231959" stop-color="#51D6F4"/><stop offset="0.237113" stop-color="#51D5F4"/><stop offset="0.242268" stop-color="#50D5F3"/><stop offset="0.247423" stop-color="#50D4F3"/><stop offset="0.252577" stop-color="#50D4F2"/><stop offset="0.257732" stop-color="#50D3F2"/><stop offset="0.262887" stop-color="#4FD3F2"/><stop offset="0.268041" stop-color="#4FD2F1"/><stop offset="0.273196" stop-color="#4FD1F1"/><stop offset="0.278351" stop-color="#4FD1F0"/><stop offset="0.283505" stop-color="#4ED0F0"/><stop offset="0.28866" stop-color="#4ED0EF"/><stop offset="0.293814" stop-color="#4ECFEF"/><stop offset="0.298969" stop-color="#4DCEEE"/><stop offset="0.304124" stop-color="#4DCEED"/><stop offset="0.309278" stop-color="#4DCDED"/><stop offset="0.314433" stop-color="#4DCCEC"/><stop offset="0.319588" stop-color="#4CCCEC"/><stop offset="0.324742" stop-color="#4CCBEB"/><stop offset="0.329897" stop-color="#4CCAEB"/><stop offset="0.335052" stop-color="#4BC9EA"/><stop offset="0.340206" stop-color="#4BC9E9"/><stop offset="0.345361" stop-color="#4BC8E9"/><stop offset="0.350515" stop-color="#4AC7E8"/><stop offset="0.35567" stop-color="#4AC6E8"/><stop offset="0.360825" stop-color="#4AC6E7"/><stop offset="0.365979" stop-color="#49C5E6"/><stop offset="0.371134" stop-color="#49C4E6"/><stop offset="0.376289" stop-color="#49C3E5"/><stop offset="0.381443" stop-color="#48C2E4"/><stop offset="0.386598" stop-color="#48C2E4"/><stop offset="0.391753" stop-color="#47C1E3"/><stop offset="0.396907" stop-color="#47C0E2"/><stop offset="0.402062" stop-color="#47BFE2"/><stop offset="0.407216" stop-color="#46BEE1"/><stop offset="0.412371" stop-color="#46BDE0"/><stop offset="0.417526" stop-color="#46BDE0"/><stop offset="0.42268" stop-color="#45BCDF"/><stop offset="0.427835" stop-color="#45BBDE"/><stop offset="0.43299" stop-color="#44BADD"/><stop offset="0.438144" stop-color="#44B9DD"/><stop offset="0.443299" stop-color="#44B8DC"/><stop offset="0.448454" stop-color="#43B7DB"/><stop offset="0.453608" stop-color="#43B6DA"/><stop offset="0.458763" stop-color="#42B5DA"/><stop offset="0.463918" stop-color="#42B4D9"/><stop offset="0.469072" stop-color="#41B3D8"/><stop offset="0.474227" stop-color="#41B2D7"/><stop offset="0.479381" stop-color="#41B1D6"/><stop offset="0.484536" stop-color="#40B0D6"/><stop offset="0.489691" stop-color="#40AFD5"/><stop offset="0.494845" stop-color="#3FAED4"/><stop offset="0.5" stop-color="#3FADD3"/><stop offset="0.505155" stop-color="#3EACD2"/><stop offset="0.510309" stop-color="#3EABD1"/><stop offset="0.515464" stop-color="#3DAAD1"/><stop offset="0.520619" stop-color="#3DA9D0"/><stop offset="0.525773" stop-color="#3CA8CF"/><stop offset="0.530928" stop-color="#3CA7CE"/><stop offset="0.536082" stop-color="#3BA6CD"/><stop offset="0.541237" stop-color="#3BA5CC"/><stop offset="0.546392" stop-color="#3AA4CB"/><stop offset="0.551546" stop-color="#3AA3CA"/><stop offset="0.556701" stop-color="#39A1C9"/><stop offset="0.561856" stop-color="#39A0C9"/><stop offset="0.56701" stop-color="#389FC8"/><stop offset="0.572165" stop-color="#389EC7"/><stop offset="0.57732" stop-color="#379DC6"/><stop offset="0.582474" stop-color="#379CC5"/><stop offset="0.587629" stop-color="#369BC4"/><stop offset="0.592784" stop-color="#3699C3"/><stop offset="0.597938" stop-color="#3598C2"/><stop offset="0.603093" stop-color="#3597C1"/><stop offset="0.608247" stop-color="#3496C0"/><stop offset="0.613402" stop-color="#3495BF"/><stop offset="0.618557" stop-color="#3393BE"/><stop offset="0.623711" stop-color="#3392BD"/><stop offset="0.628866" stop-color="#3291BC"/><stop offset="0.634021" stop-color="#3190BB"/><stop offset="0.639175" stop-color="#318EBA"/><stop offset="0.64433" stop-color="#308DB9"/><stop offset="0.649485" stop-color="#308CB8"/><stop offset="0.654639" stop-color="#2F8AB7"/><stop offset="0.659794" stop-color="#2F89B6"/><stop offset="0.664948" stop-color="#2E88B5"/><stop offset="0.670103" stop-color="#2D86B3"/><stop offset="0.675258" stop-color="#2D85B2"/><stop offset="0.680412" stop-color="#2C84B1"/><stop offset="0.685567" stop-color="#2C82B0"/><stop offset="0.690722" stop-color="#2B81AF"/><stop offset="0.695876" stop-color="#2A80AE"/><stop offset="0.701031" stop-color="#2A7EAD"/><stop offset="0.706186" stop-color="#297DAC"/><stop offset="0.71134" stop-color="#297CAB"/><stop offset="0.716495" stop-color="#287AA9"/><stop offset="0.721649" stop-color="#2779A8"/><stop offset="0.726804" stop-color="#2777A7"/><stop offset="0.731959" stop-color="#2676A6"/><stop offset="0.737113" stop-color="#2574A5"/><stop offset="0.742268" stop-color="#2573A4"/><stop offset="0.747423" stop-color="#2472A2"/><stop offset="0.752577" stop-color="#2370A1"/><stop offset="0.757732" stop-color="#236FA0"/><stop offset="0.762887" stop-color="#226D9F"/><stop offset="0.768041" stop-color="#216C9E"/><stop offset="0.773196" stop-color="#216A9C"/><stop offset="0.778351" stop-color="#20699B"/><stop offset="0.783505" stop-color="#1F679A"/><stop offset="0.78866" stop-color="#1F6699"/><stop offset="0.793814" stop-color="#1E6497"/><stop offset="0.798969" stop-color="#1D6296"/><stop offset="0.804124" stop-color="#1D6195"/><stop offset="0.809278" stop-color="#1C5F94"/><stop offset="0.814433" stop-color="#1B5E92"/><stop offset="0.819588" stop-color="#1B5C91"/><stop offset="0.824742" stop-color="#1A5B90"/><stop offset="0.829897" stop-color="#19598E"/><stop offset="0.835052" stop-color="#18578D"/><stop offset="0.840206" stop-color="#18568C"/><stop offset="0.845361" stop-color="#17548A"/><stop offset="0.850515" stop-color="#165389"/><stop offset="0.85567" stop-color="#165188"/><stop offset="0.860825" stop-color="#154F86"/><stop offset="0.865979" stop-color="#144E85"/><stop offset="0.871134" stop-color="#134C84"/><stop offset="0.876289" stop-color="#134A82"/><stop offset="0.881443" stop-color="#124981"/><stop offset="0.886598" stop-color="#114780"/><stop offset="0.891753" stop-color="#10457E"/><stop offset="0.896907" stop-color="#10437D"/><stop offset="0.902062" stop-color="#0F427B"/><stop offset="0.907216" stop-color="#0E407A"/><stop offset="0.912371" stop-color="#0D3E79"/><stop offset="0.917526" stop-color="#0C3D77"/><stop offset="0.92268" stop-color="#0C3B76"/><stop offset="0.927835" stop-color="#0B3974"/><stop offset="0.93299" stop-color="#0A3773"/><stop offset="0.938144" stop-color="#093671"/><stop offset="0.943299" stop-color="#093470"/><stop offset="0.948454" stop-color="#08326F"/><stop offset="0.953608" stop-color="#07306D"/><stop offset="0.958763" stop-color="#062E6C"/><stop offset="0.963918" stop-color="#052C6A"/><stop offset="0.969072" stop-color="#042B69"/><stop offset="0.974227" stop-color="#042967"/><stop offset="0.979381" stop-color="#032766"/><stop offset="0.984536" stop-color="#022564"/><stop offset="0.989691" stop-color="#012363"/><stop offset="0.994845" stop-color="#002161"/><stop offset="1" stop-color="#002060"/></linearGradient><clipPath id="clip2"><path d="M646 1169 685 1169 685 1179 646 1179Z" fill-rule="evenodd" clip-rule="evenodd"/></clipPath><clipPath id="clip3"><path d="M646 1169 685 1169 685 1179 646 1179Z" fill-rule="evenodd" clip-rule="evenodd"/></clipPath><clipPath id="clip4"><path d="M646 1155 685 1155 685 1193 646 1193Z" fill-rule="evenodd" clip-rule="evenodd"/></clipPath></defs><g clip-path="url(#clip0)"><rect x="0" y="0" width="768" height="1344" fill="#FFFFFF"/><rect x="0" y="0" width="768" height="1344" fill="#FFFFFF" transform="matrix(-1 -8.74228e-08 -8.74228e-08 1 768 0)"/><text font-family="Segoe UI,Segoe UI_MSFontService,sans-serif" font-weight="400" font-size="21" transform="translate(283.128 102)">My friend's dad had a surgery last year to <tspan x="74.1467" y="25">remove his kidney cancer.</tspan></text><path d="M256 267C250.477 267 246 262.685 246 257.362L246 221.638C246 216.315 250.477 212 256 212" stroke="#000000" stroke-width="6" stroke-miterlimit="8" fill="none" fill-rule="evenodd"/><rect x="52" y="220" width="137" height="39"/><text fill="#FFFFFF" font-family="Segoe UI,Segoe UI_MSFontService,sans-serif" font-weight="400" font-size="19" transform="translate(95.0736 246)">Step 2</text><path d="M189 239 245.438 239" stroke="#000000" stroke-width="6" stroke-miterlimit="8" fill="none" fill-rule="evenodd"/><path d="M10 55C4.47715 55 0 50.6851 0 45.3624L0 9.63757C0 4.31489 4.47715 0 10 0" stroke="#000000" stroke-width="6" stroke-miterlimit="8" fill="none" fill-rule="evenodd" transform="matrix(-1 -8.74228e-08 -8.74228e-08 1 710 212)"/><path d="M256 132C250.477 132 246 127.685 246 122.362L246 87.6376C246 82.3149 250.477 78 256 78" stroke="#000000" stroke-width="6" stroke-miterlimit="8" fill="none" fill-rule="evenodd"/><path d="M189 105 245.438 105" stroke="#000000" stroke-width="6" stroke-miterlimit="8" fill="none" fill-rule="evenodd"/><path d="M10 54C4.47715 54 0 49.6851 0 44.3624L0 9.63756C-3.43747e-15 4.31488 4.47715 0 10 0" stroke="#000000" stroke-width="6" stroke-miterlimit="8" fill="none" fill-rule="evenodd" transform="matrix(-1 -8.74228e-08 -8.74228e-08 1 710 78)"/><rect x="52" y="85" width="137" height="39"/><text fill="#FFFFFF" font-family="Segoe UI,Segoe UI_MSFontService,sans-serif" font-weight="400" font-size="19" transform="translate(95.0736 112)">Step 1</text><rect x="255" y="1114" width="443" height="31" fill="url(#fill1)"/><text fill="#FFFFFF" font-family="Segoe UI,Segoe UI_MSFontService,sans-serif" font-weight="400" font-size="19" transform="translate(615.877 1136)">Common<tspan fill="#000000" x="-354.376" y="0">Unique</tspan></text><path d="M10 111C4.47715 111 0 106.685 0 101.362L0 9.6376C0 4.3149 4.47715 0 10 0" stroke="#000000" stroke-width="6" stroke-miterlimit="8" fill="none" fill-rule="evenodd" transform="matrix(-1 -8.74228e-08 -8.74228e-08 1 710 1100)"/><path d="M255 1210C249.477 1210 245 1205.69 245 1200.36L245 1108.64C245 1103.31 249.477 1099 255 1099" stroke="#000000" stroke-width="6" stroke-miterlimit="8" fill="none" fill-rule="evenodd"/><rect x="53" y="1135" width="136" height="39"/><text fill="#FFFFFF" font-family="Segoe UI,Segoe UI_MSFontService,sans-serif" font-weight="400" font-size="19" transform="translate(80.8849 1161)">Figure 1.5</text><path d="M189 1155 244.49 1155" stroke="#000000" stroke-width="6" stroke-miterlimit="8" fill="none" fill-rule="evenodd"/><text font-family="Segoe UI,Segoe UI_MSFontService,sans-serif" font-weight="400" font-size="27" transform="translate(274.991 1299)">friend, dad, cancer, kidney, surgery</text><path d="M11 55C4.92487 55 0 50.2536 0 44.3987L0 10.6013C-1.75056e-15 4.74638 4.92487 0 11 0" stroke="#000000" stroke-width="6" stroke-miterlimit="8" fill="none" fill-rule="evenodd" transform="matrix(-1 -8.74228e-08 -8.74228e-08 1 710 1263)"/><path d="M189 1290 245.439 1290.11" stroke="#000000" stroke-width="6" stroke-miterlimit="8" fill="none" fill-rule="evenodd"/><path d="M256 1318C250.477 1318 246 1313.69 246 1308.36L246 1272.64C246 1267.31 250.477 1263 256 1263" stroke="#000000" stroke-width="6" stroke-miterlimit="8" fill="none" fill-rule="evenodd"/><rect x="52" y="1271" width="137" height="39"/><text fill="#FFFFFF" font-family="Segoe UI,Segoe UI_MSFontService,sans-serif" font-weight="400" font-size="19" transform="translate(80.6569 1297)">Figure 1.6</text><path d="M562 181.5 574.75 181.5 574.75 137 600.25 137 600.25 181.5 613 181.5 587.5 207Z" fill="#124982" fill-rule="evenodd"/><path d="M341 181.5 353.75 181.5 353.75 137 379.25 137 379.25 181.5 392 181.5 366.5 207Z" fill="#124982" fill-rule="evenodd"/><text fill="#002060" font-family="Segoe UI,Segoe UI_MSFontService,sans-serif" font-weight="400" font-size="21" transform="translate(459.561 164)">Text <tspan x="-47.0733" y="25">Preprocessing</tspan></text><path d="M562 323.5 574.75 323.5 574.75 279 600.25 279 600.25 323.5 613 323.5 587.5 349Z" fill="#124982" fill-rule="evenodd"/><path d="M341 323.5 353.75 323.5 353.75 279 379.25 279 379.25 323.5 392 323.5 366.5 349Z" fill="#124982" fill-rule="evenodd"/><text fill="#002060" font-family="Segoe UI,Segoe UI_MSFontService,sans-serif" font-weight="400" font-size="21" transform="translate(441.558 309)">Context<tspan x="-15.6667" y="25">Generation</tspan><tspan x="11.4002" y="-238">Input</tspan></text><path d="M255 1024C249.477 1024 245 1019.69 245 1014.36L245 364.638C245 359.315 249.477 355 255 355" stroke="#000000" stroke-width="6" stroke-miterlimit="8" fill="none" fill-rule="evenodd"/><rect x="52" y="670" width="137" height="39"/><text fill="#FFFFFF" font-family="Segoe UI,Segoe UI_MSFontService,sans-serif" font-weight="400" font-size="19" transform="translate(94.5289 696)">Step 3</text><path d="M189 689 245.035 689" stroke="#000000" stroke-width="6" stroke-miterlimit="8" fill="none" fill-rule="evenodd"/><path d="M11 669C4.92487 669 0 664.254 0 658.399L0 10.6005C-1.33091e-15 4.74603 4.92487-1.33082e-15 11-1.33082e-15" stroke="#000000" stroke-width="6" stroke-miterlimit="8" fill="none" fill-rule="evenodd" transform="matrix(-1 -8.74228e-08 -8.74228e-08 1 710 355)"/><path d="M561 1076.5 573.75 1076.5 573.75 1033 599.25 1033 599.25 1076.5 612 1076.5 586.5 1102Z" fill="#124982" fill-rule="evenodd"/><path d="M340 1076.5 352.75 1076.5 352.75 1033 378.25 1033 378.25 1076.5 391 1076.5 365.5 1102Z" fill="#124982" fill-rule="evenodd"/><text fill="#002060" font-family="Segoe UI,Segoe UI_MSFontService,sans-serif" font-weight="400" font-size="21" transform="translate(438.278 1062)">Average<tspan x="-1.84" y="25">and Sort</tspan><tspan fill="#000000" font-size="19" x="-220.901" y="-1030">Parameters: window size = 2, list size = 5</tspan></text><path d="M561 1247.5 573.75 1247.5 573.75 1203 599.25 1203 599.25 1247.5 612 1247.5 586.5 1273Z" fill="#124982" fill-rule="evenodd"/><path d="M340 1247.5 352.75 1247.5 352.75 1203 378.25 1203 378.25 1247.5 391 1247.5 365.5 1273Z" fill="#124982" fill-rule="evenodd"/><text fill="#002060" font-family="Segoe UI,Segoe UI_MSFontService,sans-serif" font-weight="400" font-size="21" transform="translate(406.002 1230)">Postprocessing<tspan x="11.7133" y="25">and Filtering</tspan></text><rect x="295.5" y="212.5" width="74" height="27" stroke="#000000" stroke-width="3" stroke-miterlimit="8" fill="#00B0F0"/><text fill="#FFFFFF" font-family="Segoe UI,Segoe UI_MSFontService,sans-serif" font-weight="400" font-size="16" transform="translate(311.392 232)">friend</text><rect x="369.5" y="212.5" width="75" height="27" stroke="#000000" stroke-width="3" stroke-miterlimit="8" fill="#00B0F0"/><text fill="#FFFFFF" font-family="Segoe UI,Segoe UI_MSFontService,sans-serif" font-weight="400" font-size="16" transform="translate(393.133 232)">dad</text><rect x="444.5" y="212.5" width="75" height="27" stroke="#000000" stroke-width="3" stroke-miterlimit="8" fill="#00B0F0"/><text fill="#FFFFFF" font-family="Segoe UI,Segoe UI_MSFontService,sans-serif" font-weight="400" font-size="16" transform="translate(468.125 232)">had</text><rect x="519.5" y="212.5" width="75" height="27" stroke="#000000" stroke-width="3" stroke-miterlimit="8" fill="#00B0F0"/><text fill="#FFFFFF" font-family="Segoe UI,Segoe UI_MSFontService,sans-serif" font-weight="400" font-size="16" transform="translate(529.82 232)">surgery</text><rect x="594.5" y="212.5" width="74" height="27" stroke="#000000" stroke-width="3" stroke-miterlimit="8" fill="#00B0F0"/><text fill="#FFFFFF" font-family="Segoe UI,Segoe UI_MSFontService,sans-serif" font-weight="400" font-size="16" transform="translate(618.775 232)">last</text><rect x="295.5" y="239.5" width="74" height="28" stroke="#000000" stroke-width="3" stroke-miterlimit="8" fill="#00B0F0"/><text fill="#FFFFFF" font-family="Segoe UI,Segoe UI_MSFontService,sans-serif" font-weight="400" font-size="16" transform="translate(317.182 259)">year</text><rect x="369.5" y="239.5" width="75" height="28" stroke="#000000" stroke-width="3" stroke-miterlimit="8" fill="#00B0F0"/><text fill="#FFFFFF" font-family="Segoe UI,Segoe UI_MSFontService,sans-serif" font-weight="400" font-size="16" transform="translate(380.37 259)">remove</text><rect x="444.5" y="239.5" width="75" height="28" stroke="#000000" stroke-width="3" stroke-miterlimit="8" fill="#00B0F0"/><text fill="#FFFFFF" font-family="Segoe UI,Segoe UI_MSFontService,sans-serif" font-weight="400" font-size="16" transform="translate(458.517 259)">kidney</text><rect x="519.5" y="239.5" width="75" height="28" stroke="#000000" stroke-width="3" stroke-miterlimit="8" fill="#00B0F0"/><text fill="#FFFFFF" font-family="Segoe UI,Segoe UI_MSFontService,sans-serif" font-weight="400" font-size="16" transform="translate(533.437 259)">cancer</text><rect x="342.5" y="404.5" width="49" height="20" stroke="#000000" stroke-width="3" stroke-miterlimit="8" fill="#0070C0"/><path d="M0 0 37.3708 16.5744" stroke="#000000" stroke-width="3" stroke-miterlimit="8" fill="none" fill-rule="evenodd" transform="matrix(-1 -8.74228e-08 -8.74228e-08 1 404.871 388.5)"/><path d="M366.871 405.074 329.5 388.5" stroke="#000000" stroke-width="3" stroke-miterlimit="8" fill="none" fill-rule="evenodd"/><rect x="292.5" y="360.5" width="75" height="28" stroke="#000000" stroke-width="3" stroke-miterlimit="8" fill="#00B0F0"/><text fill="#FFFFFF" font-family="Segoe UI,Segoe UI_MSFontService,sans-serif" font-weight="400" font-size="16" transform="translate(308.677 381)">friend</text><rect x="367.5" y="360.5" width="74" height="28" stroke="#000000" stroke-width="3" stroke-miterlimit="8" fill="#FFC000"/><text font-family="Segoe UI,Segoe UI_MSFontService,sans-serif" font-weight="400" font-size="16" transform="translate(390.418 381)">dad</text><rect x="441.5" y="360.5" width="75" height="28" stroke="#000000" stroke-width="3" stroke-miterlimit="8" fill="#FFC000"/><text font-family="Segoe UI,Segoe UI_MSFontService,sans-serif" font-weight="400" font-size="16" transform="translate(465.41 381)">had</text><rect x="417.5" y="404.5" width="49" height="20" stroke="#000000" stroke-width="3" stroke-miterlimit="8" fill="#0070C0"/><path d="M0 0 37.3708 16.5745" stroke="#000000" stroke-width="3" stroke-miterlimit="8" fill="none" fill-rule="evenodd" transform="matrix(-1 -8.74228e-08 -8.74228e-08 1 478.871 388.5)"/><path d="M329.5 388.5 441.612 405.074" stroke="#000000" stroke-width="3" stroke-miterlimit="8" fill="none" fill-rule="evenodd"/><rect x="417.5" y="478.5" width="49" height="20" stroke="#000000" stroke-width="3" stroke-miterlimit="8" fill="#0070C0"/><path d="M0 0 37.3708 16.5744" stroke="#000000" stroke-width="3" stroke-miterlimit="8" fill="none" fill-rule="evenodd" transform="matrix(-1 -8.74228e-08 -8.74228e-08 1 478.871 462.5)"/><path d="M441.871 479.074 404.5 462.5" stroke="#000000" stroke-width="3" stroke-miterlimit="8" fill="none" fill-rule="evenodd"/><rect x="367.5" y="434.5" width="74" height="28" stroke="#000000" stroke-width="3" stroke-miterlimit="8" fill="#00B0F0"/><text fill="#FFFFFF" font-family="Segoe UI,Segoe UI_MSFontService,sans-serif" font-weight="400" font-size="16" transform="translate(390.418 454)">dad</text><rect x="441.5" y="434.5" width="75" height="28" stroke="#000000" stroke-width="3" stroke-miterlimit="8" fill="#FFC000"/><text font-family="Segoe UI,Segoe UI_MSFontService,sans-serif" font-weight="400" font-size="16" transform="translate(465.41 454)">had</text><rect x="516.5" y="434.5" width="75" height="28" stroke="#000000" stroke-width="3" stroke-miterlimit="8" fill="#FFC000"/><text font-family="Segoe UI,Segoe UI_MSFontService,sans-serif" font-weight="400" font-size="16" transform="translate(527.105 454)">surgery</text><rect x="492.5" y="478.5" width="48" height="20" stroke="#000000" stroke-width="3" stroke-miterlimit="8" fill="#0070C0"/><path d="M0 0 37.3708 16.5745" stroke="#000000" stroke-width="3" stroke-miterlimit="8" fill="none" fill-rule="evenodd" transform="matrix(-1 -8.74228e-08 -8.74228e-08 1 553.871 462.5)"/><path d="M404.5 462.5 516.612 479.074" stroke="#000000" stroke-width="3" stroke-miterlimit="8" fill="none" fill-rule="evenodd"/><rect x="292.5" y="434.5" width="75" height="28" stroke="#000000" stroke-width="3" stroke-miterlimit="8" fill="#FFC000"/><text font-family="Segoe UI,Segoe UI_MSFontService,sans-serif" font-weight="400" font-size="16" transform="translate(308.677 454)">friend</text><rect x="342.5" y="998.5" width="49" height="20" stroke="#000000" stroke-width="3" stroke-miterlimit="8" fill="#0070C0"/><path d="M0 0 37.3708 16.5744" stroke="#000000" stroke-width="3" stroke-miterlimit="8" fill="none" fill-rule="evenodd" transform="matrix(-1 -8.74228e-08 -8.74228e-08 1 404.871 982.5)"/><path d="M0 0 112.112 16.5749" stroke="#000000" stroke-width="3" stroke-miterlimit="8" fill="none" fill-rule="evenodd" transform="matrix(1 0 0 -1 367.5 999.075)"/><rect x="441.5" y="954.5" width="75" height="28" stroke="#000000" stroke-width="3" stroke-miterlimit="8" fill="#00B0F0"/><text fill="#FFFFFF" font-family="Segoe UI,Segoe UI_MSFontService,sans-serif" font-weight="400" font-size="16" transform="translate(455.91 974)">cancer</text><rect x="367.5" y="954.5" width="74" height="28" stroke="#000000" stroke-width="3" stroke-miterlimit="8" fill="#FFC000"/><text font-family="Segoe UI,Segoe UI_MSFontService,sans-serif" font-weight="400" font-size="16" transform="translate(380.835 974)">kidney</text><rect x="292.5" y="954.5" width="75" height="28" stroke="#000000" stroke-width="3" stroke-miterlimit="8" fill="#FFC000"/><text font-family="Segoe UI,Segoe UI_MSFontService,sans-serif" font-weight="400" font-size="16" transform="translate(302.913 974)">remove</text><rect x="417.5" y="998.5" width="49" height="20" stroke="#000000" stroke-width="3" stroke-miterlimit="8" fill="#0070C0"/><path d="M329.5 982.5 441.612 999.075" stroke="#000000" stroke-width="3" stroke-miterlimit="8" fill="none" fill-rule="evenodd"/><path d="M0 0 37.3708 16.5749" stroke="#000000" stroke-width="3" stroke-miterlimit="8" fill="none" fill-rule="evenodd" transform="matrix(-1 -8.74228e-08 -8.74228e-08 1 478.871 982.5)"/><rect x="492.5" y="553.5" width="48" height="19" stroke="#000000" stroke-width="3" stroke-miterlimit="8" fill="#0070C0"/><path d="M0 0 37.3708 16.5744" stroke="#000000" stroke-width="3" stroke-miterlimit="8" fill="none" fill-rule="evenodd" transform="matrix(-1 -8.74228e-08 -8.74228e-08 1 553.871 536.5)"/><path d="M516.871 553.074 479.5 536.5" stroke="#000000" stroke-width="3" stroke-miterlimit="8" fill="none" fill-rule="evenodd"/><rect x="441.5" y="509.5" width="75" height="27" stroke="#000000" stroke-width="3" stroke-miterlimit="8" fill="#00B0F0"/><text fill="#FFFFFF" font-family="Segoe UI,Segoe UI_MSFontService,sans-serif" font-weight="400" font-size="16" transform="translate(465.41 529)">had</text><rect x="516.5" y="509.5" width="75" height="27" stroke="#000000" stroke-width="3" stroke-miterlimit="8" fill="#FFC000"/><text font-family="Segoe UI,Segoe UI_MSFontService,sans-serif" font-weight="400" font-size="16" transform="translate(527.105 529)">surgery</text><rect x="591.5" y="509.5" width="75" height="27" stroke="#000000" stroke-width="3" stroke-miterlimit="8" fill="#FFC000"/><text font-family="Segoe UI,Segoe UI_MSFontService,sans-serif" font-weight="400" font-size="16" transform="translate(616.06 529)">last</text><rect x="566.5" y="553.5" width="49" height="19" stroke="#000000" stroke-width="3" stroke-miterlimit="8" fill="#0070C0"/><path d="M0 0 37.3708 16.5745" stroke="#000000" stroke-width="3" stroke-miterlimit="8" fill="none" fill-rule="evenodd" transform="matrix(-1 -8.74228e-08 -8.74228e-08 1 628.871 536.5)"/><path d="M479.5 536.5 591.612 553.074" stroke="#000000" stroke-width="3" stroke-miterlimit="8" fill="none" fill-rule="evenodd"/><rect x="367.5" y="509.5" width="74" height="27" stroke="#000000" stroke-width="3" stroke-miterlimit="8" fill="#FFC000"/><text font-family="Segoe UI,Segoe UI_MSFontService,sans-serif" font-weight="400" font-size="16" transform="translate(390.418 529)">dad</text><rect x="292.5" y="509.5" width="75" height="27" stroke="#000000" stroke-width="3" stroke-miterlimit="8" fill="#FFC000"/><text font-family="Segoe UI,Segoe UI_MSFontService,sans-serif" font-weight="400" font-size="16" transform="translate(308.677 529)">friend</text><rect x="342.5" y="553.5" width="49" height="19" stroke="#000000" stroke-width="3" stroke-miterlimit="8" fill="#0070C0"/><path d="M329.5 536.5 366.871 553.075" stroke="#000000" stroke-width="3" stroke-miterlimit="8" fill="none" fill-rule="evenodd"/><path d="M0 0 112.112 16.5744" stroke="#000000" stroke-width="3" stroke-miterlimit="8" fill="none" fill-rule="evenodd" transform="matrix(1 0 0 -1 367.5 553.074)"/><rect x="417.5" y="553.5" width="49" height="19" stroke="#000000" stroke-width="3" stroke-miterlimit="8" fill="#0070C0"/><path d="M0 0 37.3708 17.1639" stroke="#000000" stroke-width="3" stroke-miterlimit="8" fill="none" fill-rule="evenodd" transform="matrix(1 0 0 -1 441.5 553.664)"/><path d="M404.5 536.5 441.871 553.664" stroke="#000000" stroke-width="3" stroke-miterlimit="8" fill="none" fill-rule="evenodd"/><rect x="492.5" y="627.5" width="48" height="19" stroke="#000000" stroke-width="3" stroke-miterlimit="8" fill="#0070C0"/><path d="M0 0 37.3708 16.5744" stroke="#000000" stroke-width="3" stroke-miterlimit="8" fill="none" fill-rule="evenodd" transform="matrix(-1 -8.74228e-08 -8.74228e-08 1 553.871 610.5)"/><path d="M516.871 627.074 479.5 610.5" stroke="#000000" stroke-width="3" stroke-miterlimit="8" fill="none" fill-rule="evenodd"/><rect x="441.5" y="583.5" width="75" height="27" stroke="#000000" stroke-width="3" stroke-miterlimit="8" fill="#00B0F0"/><text fill="#FFFFFF" font-family="Segoe UI,Segoe UI_MSFontService,sans-serif" font-weight="400" font-size="16" transform="translate(452.363 603)">surgery</text><rect x="516.5" y="583.5" width="75" height="27" stroke="#000000" stroke-width="3" stroke-miterlimit="8" fill="#FFC000"/><text font-family="Segoe UI,Segoe UI_MSFontService,sans-serif" font-weight="400" font-size="16" transform="translate(541.318 603)">last</text><rect x="591.5" y="583.5" width="75" height="27" stroke="#000000" stroke-width="3" stroke-miterlimit="8" fill="#FFC000"/><text font-family="Segoe UI,Segoe UI_MSFontService,sans-serif" font-weight="400" font-size="16" transform="translate(613.433 603)">year</text><rect x="566.5" y="627.5" width="49" height="19" stroke="#000000" stroke-width="3" stroke-miterlimit="8" fill="#0070C0"/><path d="M0 0 37.3708 16.5745" stroke="#000000" stroke-width="3" stroke-miterlimit="8" fill="none" fill-rule="evenodd" transform="matrix(-1 -8.74228e-08 -8.74228e-08 1 628.871 610.5)"/><path d="M479.5 610.5 591.612 627.074" stroke="#000000" stroke-width="3" stroke-miterlimit="8" fill="none" fill-rule="evenodd"/><rect x="367.5" y="583.5" width="74" height="27" stroke="#000000" stroke-width="3" stroke-miterlimit="8" fill="#FFC000"/><text font-family="Segoe UI,Segoe UI_MSFontService,sans-serif" font-weight="400" font-size="16" transform="translate(390.668 603)">had</text><rect x="292.5" y="583.5" width="75" height="27" stroke="#000000" stroke-width="3" stroke-miterlimit="8" fill="#FFC000"/><text font-family="Segoe UI,Segoe UI_MSFontService,sans-serif" font-weight="400" font-size="16" transform="translate(315.677 603)">dad</text><rect x="342.5" y="627.5" width="49" height="19" stroke="#000000" stroke-width="3" stroke-miterlimit="8" fill="#0070C0"/><path d="M329.5 610.5 366.871 627.075" stroke="#000000" stroke-width="3" stroke-miterlimit="8" fill="none" fill-rule="evenodd"/><path d="M0 0 112.112 16.5744" stroke="#000000" stroke-width="3" stroke-miterlimit="8" fill="none" fill-rule="evenodd" transform="matrix(1 0 0 -1 367.5 627.074)"/><rect x="417.5" y="627.5" width="49" height="20" stroke="#000000" stroke-width="3" stroke-miterlimit="8" fill="#0070C0"/><path d="M0 0 37.3708 17.1639" stroke="#000000" stroke-width="3" stroke-miterlimit="8" fill="none" fill-rule="evenodd" transform="matrix(1 0 0 -1 441.5 627.664)"/><path d="M404.5 610.5 441.871 627.664" stroke="#000000" stroke-width="3" stroke-miterlimit="8" fill="none" fill-rule="evenodd"/><rect x="492.5" y="701.5" width="48" height="19" stroke="#000000" stroke-width="3" stroke-miterlimit="8" fill="#0070C0"/><path d="M0 0 37.3708 16.5744" stroke="#000000" stroke-width="3" stroke-miterlimit="8" fill="none" fill-rule="evenodd" transform="matrix(-1 -8.74228e-08 -8.74228e-08 1 553.871 684.5)"/><path d="M516.871 701.074 479.5 684.5" stroke="#000000" stroke-width="3" stroke-miterlimit="8" fill="none" fill-rule="evenodd"/><rect x="441.5" y="657.5" width="75" height="27" stroke="#000000" stroke-width="3" stroke-miterlimit="8" fill="#00B0F0"/><text fill="#FFFFFF" font-family="Segoe UI,Segoe UI_MSFontService,sans-serif" font-weight="400" font-size="16" transform="translate(466.577 677)">last</text><rect x="516.5" y="657.5" width="75" height="27" stroke="#000000" stroke-width="3" stroke-miterlimit="8" fill="#FFC000"/><text font-family="Segoe UI,Segoe UI_MSFontService,sans-serif" font-weight="400" font-size="16" transform="translate(538.692 677)">year</text><rect x="591.5" y="657.5" width="75" height="27" stroke="#000000" stroke-width="3" stroke-miterlimit="8" fill="#FFC000"/><text font-family="Segoe UI,Segoe UI_MSFontService,sans-serif" font-weight="400" font-size="16" transform="translate(601.88 677)">remove</text><rect x="566.5" y="701.5" width="49" height="19" stroke="#000000" stroke-width="3" stroke-miterlimit="8" fill="#0070C0"/><path d="M0 0 37.3708 16.5745" stroke="#000000" stroke-width="3" stroke-miterlimit="8" fill="none" fill-rule="evenodd" transform="matrix(-1 -8.74228e-08 -8.74228e-08 1 628.871 684.5)"/><path d="M479.5 684.5 591.612 701.074" stroke="#000000" stroke-width="3" stroke-miterlimit="8" fill="none" fill-rule="evenodd"/><rect x="367.5" y="657.5" width="74" height="27" stroke="#000000" stroke-width="3" stroke-miterlimit="8" fill="#FFC000"/><text font-family="Segoe UI,Segoe UI_MSFontService,sans-serif" font-weight="400" font-size="16" transform="translate(377.622 677)">surgery</text><rect x="292.5" y="657.5" width="75" height="27" stroke="#000000" stroke-width="3" stroke-miterlimit="8" fill="#FFC000"/><text font-family="Segoe UI,Segoe UI_MSFontService,sans-serif" font-weight="400" font-size="16" transform="translate(315.927 677)">had</text><rect x="342.5" y="701.5" width="49" height="19" stroke="#000000" stroke-width="3" stroke-miterlimit="8" fill="#0070C0"/><path d="M329.5 684.5 366.871 701.075" stroke="#000000" stroke-width="3" stroke-miterlimit="8" fill="none" fill-rule="evenodd"/><path d="M0 0 112.112 16.5744" stroke="#000000" stroke-width="3" stroke-miterlimit="8" fill="none" fill-rule="evenodd" transform="matrix(1 0 0 -1 367.5 701.074)"/><rect x="417.5" y="702.5" width="49" height="19" stroke="#000000" stroke-width="3" stroke-miterlimit="8" fill="#0070C0"/><path d="M0 0 37.3708 17.1639" stroke="#000000" stroke-width="3" stroke-miterlimit="8" fill="none" fill-rule="evenodd" transform="matrix(1 0 0 -1 441.5 701.664)"/><path d="M404.5 684.5 441.871 701.664" stroke="#000000" stroke-width="3" stroke-miterlimit="8" fill="none" fill-rule="evenodd"/><rect x="492.5" y="775.5" width="48" height="19" stroke="#000000" stroke-width="3" stroke-miterlimit="8" fill="#0070C0"/><path d="M0 0 37.3708 16.5744" stroke="#000000" stroke-width="3" stroke-miterlimit="8" fill="none" fill-rule="evenodd" transform="matrix(-1 -8.74228e-08 -8.74228e-08 1 553.871 759.5)"/><path d="M516.871 776.074 479.5 759.5" stroke="#000000" stroke-width="3" stroke-miterlimit="8" fill="none" fill-rule="evenodd"/><rect x="441.5" y="731.5" width="75" height="28" stroke="#000000" stroke-width="3" stroke-miterlimit="8" fill="#00B0F0"/><text fill="#FFFFFF" font-family="Segoe UI,Segoe UI_MSFontService,sans-serif" font-weight="400" font-size="16" transform="translate(463.963 751)">year</text><rect x="516.5" y="731.5" width="75" height="28" stroke="#000000" stroke-width="3" stroke-miterlimit="8" fill="#FFC000"/><text font-family="Segoe UI,Segoe UI_MSFontService,sans-serif" font-weight="400" font-size="16" transform="translate(527.151 751)">remove</text><rect x="591.5" y="731.5" width="75" height="28" stroke="#000000" stroke-width="3" stroke-miterlimit="8" fill="#FFC000"/><text font-family="Segoe UI,Segoe UI_MSFontService,sans-serif" font-weight="400" font-size="16" transform="translate(605.072 751)">kidney</text><rect x="566.5" y="775.5" width="49" height="19" stroke="#000000" stroke-width="3" stroke-miterlimit="8" fill="#0070C0"/><path d="M0 0 37.3708 16.5745" stroke="#000000" stroke-width="3" stroke-miterlimit="8" fill="none" fill-rule="evenodd" transform="matrix(-1 -8.74228e-08 -8.74228e-08 1 628.871 759.5)"/><path d="M479.5 759.5 591.612 776.074" stroke="#000000" stroke-width="3" stroke-miterlimit="8" fill="none" fill-rule="evenodd"/><rect x="367.5" y="731.5" width="74" height="28" stroke="#000000" stroke-width="3" stroke-miterlimit="8" fill="#FFC000"/><text font-family="Segoe UI,Segoe UI_MSFontService,sans-serif" font-weight="400" font-size="16" transform="translate(391.848 751)">last</text><rect x="292.5" y="731.5" width="75" height="28" stroke="#000000" stroke-width="3" stroke-miterlimit="8" fill="#FFC000"/><text font-family="Segoe UI,Segoe UI_MSFontService,sans-serif" font-weight="400" font-size="16" transform="translate(302.893 751)">surgery</text><rect x="342.5" y="775.5" width="49" height="19" stroke="#000000" stroke-width="3" stroke-miterlimit="8" fill="#0070C0"/><path d="M329.5 759.5 366.871 776.075" stroke="#000000" stroke-width="3" stroke-miterlimit="8" fill="none" fill-rule="evenodd"/><path d="M0 0 112.112 16.5744" stroke="#000000" stroke-width="3" stroke-miterlimit="8" fill="none" fill-rule="evenodd" transform="matrix(1 0 0 -1 367.5 776.074)"/><rect x="417.5" y="776.5" width="49" height="19" stroke="#000000" stroke-width="3" stroke-miterlimit="8" fill="#0070C0"/><path d="M0 0 37.3708 17.1639" stroke="#000000" stroke-width="3" stroke-miterlimit="8" fill="none" fill-rule="evenodd" transform="matrix(1 0 0 -1 441.5 776.664)"/><path d="M404.5 759.5 441.871 776.664" stroke="#000000" stroke-width="3" stroke-miterlimit="8" fill="none" fill-rule="evenodd"/><rect x="492.5" y="850.5" width="48" height="19" stroke="#000000" stroke-width="3" stroke-miterlimit="8" fill="#0070C0"/><path d="M0 0 37.3708 16.5744" stroke="#000000" stroke-width="3" stroke-miterlimit="8" fill="none" fill-rule="evenodd" transform="matrix(-1 -8.74228e-08 -8.74228e-08 1 553.871 833.5)"/><path d="M516.871 850.074 479.5 833.5" stroke="#000000" stroke-width="3" stroke-miterlimit="8" fill="none" fill-rule="evenodd"/><rect x="441.5" y="806.5" width="75" height="27" stroke="#000000" stroke-width="3" stroke-miterlimit="8" fill="#00B0F0"/><text fill="#FFFFFF" font-family="Segoe UI,Segoe UI_MSFontService,sans-serif" font-weight="400" font-size="16" transform="translate(452.397 826)">remove</text><rect x="516.5" y="806.5" width="75" height="27" stroke="#000000" stroke-width="3" stroke-miterlimit="8" fill="#FFC000"/><text font-family="Segoe UI,Segoe UI_MSFontService,sans-serif" font-weight="400" font-size="16" transform="translate(530.318 826)">kidney</text><rect x="591.5" y="806.5" width="75" height="27" stroke="#000000" stroke-width="3" stroke-miterlimit="8" fill="#FFC000"/><text font-family="Segoe UI,Segoe UI_MSFontService,sans-serif" font-weight="400" font-size="16" transform="translate(605.393 826)">cancer</text><rect x="566.5" y="850.5" width="49" height="19" stroke="#000000" stroke-width="3" stroke-miterlimit="8" fill="#0070C0"/><path d="M0 0 37.3708 16.5745" stroke="#000000" stroke-width="3" stroke-miterlimit="8" fill="none" fill-rule="evenodd" transform="matrix(-1 -8.74228e-08 -8.74228e-08 1 628.871 833.5)"/><path d="M479.5 833.5 591.612 850.074" stroke="#000000" stroke-width="3" stroke-miterlimit="8" fill="none" fill-rule="evenodd"/><rect x="367.5" y="806.5" width="74" height="27" stroke="#000000" stroke-width="3" stroke-miterlimit="8" fill="#FFC000"/><text font-family="Segoe UI,Segoe UI_MSFontService,sans-serif" font-weight="400" font-size="16" transform="translate(389.208 826)">year</text><rect x="292.5" y="806.5" width="75" height="27" stroke="#000000" stroke-width="3" stroke-miterlimit="8" fill="#FFC000"/><text font-family="Segoe UI,Segoe UI_MSFontService,sans-serif" font-weight="400" font-size="16" transform="translate(317.093 826)">last</text><rect x="342.5" y="850.5" width="49" height="19" stroke="#000000" stroke-width="3" stroke-miterlimit="8" fill="#0070C0"/><path d="M329.5 833.5 366.871 850.075" stroke="#000000" stroke-width="3" stroke-miterlimit="8" fill="none" fill-rule="evenodd"/><path d="M0 0 112.112 16.5744" stroke="#000000" stroke-width="3" stroke-miterlimit="8" fill="none" fill-rule="evenodd" transform="matrix(1 0 0 -1 367.5 850.074)"/><rect x="417.5" y="850.5" width="49" height="19" stroke="#000000" stroke-width="3" stroke-miterlimit="8" fill="#0070C0"/><path d="M0 0 37.3708 17.1639" stroke="#000000" stroke-width="3" stroke-miterlimit="8" fill="none" fill-rule="evenodd" transform="matrix(1 0 0 -1 441.5 850.664)"/><path d="M404.5 833.5 441.871 850.664" stroke="#000000" stroke-width="3" stroke-miterlimit="8" fill="none" fill-rule="evenodd"/><rect x="342.5" y="478.5" width="49" height="20" stroke="#000000" stroke-width="3" stroke-miterlimit="8" fill="#0070C0"/><path d="M329.5 462.5 366.871 479.075" stroke="#000000" stroke-width="3" stroke-miterlimit="8" fill="none" fill-rule="evenodd"/><path d="M0 0 37.3708 16.5744" stroke="#000000" stroke-width="3" stroke-miterlimit="8" fill="none" fill-rule="evenodd" transform="matrix(-1 -8.74228e-08 -8.74228e-08 1 404.871 462.5)"/><rect x="417.5" y="924.5" width="49" height="19" stroke="#000000" stroke-width="3" stroke-miterlimit="8" fill="#0070C0"/><path d="M404.5 907.5 441.871 924.075" stroke="#000000" stroke-width="3" stroke-miterlimit="8" fill="none" fill-rule="evenodd"/><path d="M0 0 37.3708 16.5746" stroke="#000000" stroke-width="3" stroke-miterlimit="8" fill="none" fill-rule="evenodd" transform="matrix(1 0 0 -1 441.5 924.075)"/><rect x="441.5" y="879.5" width="75" height="28" stroke="#000000" stroke-width="3" stroke-miterlimit="8" fill="#00B0F0"/><text fill="#FFFFFF" font-family="Segoe UI,Segoe UI_MSFontService,sans-serif" font-weight="400" font-size="16" transform="translate(455.577 900)">kidney</text><rect x="367.5" y="879.5" width="74" height="28" stroke="#000000" stroke-width="3" stroke-miterlimit="8" fill="#FFC000"/><text font-family="Segoe UI,Segoe UI_MSFontService,sans-serif" font-weight="400" font-size="16" transform="translate(377.655 900)">remove</text><rect x="516.5" y="879.5" width="75" height="28" stroke="#000000" stroke-width="3" stroke-miterlimit="8" fill="#FFC000"/><text font-family="Segoe UI,Segoe UI_MSFontService,sans-serif" font-weight="400" font-size="16" transform="translate(530.652 900)">cancer</text><rect x="492.5" y="924.5" width="48" height="19" stroke="#000000" stroke-width="3" stroke-miterlimit="8" fill="#0070C0"/><path d="M0 0 37.3708 16.5745" stroke="#000000" stroke-width="3" stroke-miterlimit="8" fill="none" fill-rule="evenodd" transform="matrix(-1 -8.74228e-08 -8.74228e-08 1 553.871 907.5)"/><path d="M479.5 907.5 516.871 924.075" stroke="#000000" stroke-width="3" stroke-miterlimit="8" fill="none" fill-rule="evenodd"/><rect x="292.5" y="879.5" width="75" height="28" stroke="#000000" stroke-width="3" stroke-miterlimit="8" fill="#FFC000"/><text font-family="Segoe UI,Segoe UI_MSFontService,sans-serif" font-weight="400" font-size="16" transform="translate(314.467 900)">year</text><rect x="342.5" y="924.5" width="49" height="19" stroke="#000000" stroke-width="3" stroke-miterlimit="8" fill="#0070C0"/><path d="M329.5 907.5 366.871 924.075" stroke="#000000" stroke-width="3" stroke-miterlimit="8" fill="none" fill-rule="evenodd"/><path d="M0 0 112.112 16.5746" stroke="#000000" stroke-width="3" stroke-miterlimit="8" fill="none" fill-rule="evenodd" transform="matrix(-1 -8.74228e-08 -8.74228e-08 1 479.612 907.5)"/><rect x="52.5001" y="404.5" width="137" height="28" stroke="#000000" stroke-width="3" stroke-miterlimit="8" fill="#00B0F0"/><text fill="#FFFFFF" font-family="Segoe UI,Segoe UI_MSFontService,sans-serif" font-weight="400" font-size="16" transform="translate(77.0722 424)">Target Word</text><rect x="52.5001" y="432.5" width="137" height="28" stroke="#000000" stroke-width="3" stroke-miterlimit="8" fill="#FFC000"/><text font-family="Segoe UI,Segoe UI_MSFontService,sans-serif" font-weight="400" font-size="16" transform="translate(71.4323 452)">Context Word</text><rect x="52.5001" y="460.5" width="137" height="28" stroke="#000000" stroke-width="3" stroke-miterlimit="8" fill="#0070C0"/><text fill="#FFFFFF" font-family="Segoe UI,Segoe UI_MSFontService,sans-serif" font-weight="400" font-size="16" transform="translate(66.5122 480)">Similarity Score</text><rect x="405.5" y="1159.5" width="75" height="27" stroke="#000000" stroke-width="3" stroke-miterlimit="8" fill="#43B7DB"/><text font-family="Segoe UI,Segoe UI_MSFontService,sans-serif" font-weight="400" font-size="16" transform="translate(419.926 1179)">cancer</text><rect x="480.5" y="1159.5" width="75" height="27" stroke="#000000" stroke-width="3" stroke-miterlimit="8" fill="#2D84B2"/><text fill="#FFFFFF" font-family="Segoe UI,Segoe UI_MSFontService,sans-serif" font-weight="400" font-size="16" transform="translate(494.334 1179)">kidney</text><rect x="555.5" y="1159.5" width="75" height="27" stroke="#000000" stroke-width="3" stroke-miterlimit="8" fill="#0A3571"/><text fill="#FFFFFF" font-family="Segoe UI,Segoe UI_MSFontService,sans-serif" font-weight="400" font-size="16" transform="translate(565.863 1179)">surgery</text><rect x="331.5" y="1159.5" width="74" height="27" stroke="#000000" stroke-width="3" stroke-miterlimit="8" fill="#4ED0EF"/><text font-family="Segoe UI,Segoe UI_MSFontService,sans-serif" font-weight="400" font-size="16" transform="translate(354.434 1179)">dad</text><rect x="256.5" y="1159.5" width="75" height="27" stroke="#000000" stroke-width="3" stroke-miterlimit="8" fill="#57E3FF"/><text font-family="Segoe UI,Segoe UI_MSFontService,sans-serif" font-weight="400" font-size="16" transform="translate(272.693 1179)">friend</text><g clip-path="url(#clip2)"><g clip-path="url(#clip3)"><g clip-path="url(#clip4)"><path d="M4.79976 13.3695C2.15275 13.3695 0 15.5222 0 18.1686 0 20.8155 2.15275 22.9677 4.79976 22.9677 7.44517 22.9677 9.59888 20.8156 9.59888 18.1686 9.59888 15.5222 7.44517 13.3695 4.79976 13.3695Z" transform="matrix(1.07328 0 -0 1 646 1155.84)"/><path d="M18.404 13.3695C15.7573 13.3695 13.6042 15.5222 13.6042 18.1686 13.6042 20.8155 15.7573 22.9677 18.404 22.9677 21.0505 22.9677 23.2039 20.8156 23.2039 18.1686 23.2039 15.5222 21.0505 13.3695 18.404 13.3695Z" transform="matrix(1.07328 0 -0 1 646 1155.84)"/><path d="M31.5383 13.3695C28.8923 13.3695 26.7389 15.5222 26.7389 18.1686 26.7389 20.8155 28.8923 22.9677 31.5383 22.9677 34.1837 22.9677 36.3372 20.8156 36.3372 18.1686 36.3372 15.5222 34.1837 13.3695 31.5383 13.3695Z" transform="matrix(1.07328 0 -0 1 646 1155.84)"/></g></g></g><rect x="52.5001" y="376.5" width="137" height="28" stroke="#000000" stroke-width="3" stroke-miterlimit="8"/><text fill="#FFFFFF" font-family="Segoe UI,Segoe UI_MSFontService,sans-serif" font-weight="400" font-size="16" transform="translate(107.762 397)">Key</text></g></svg>