<svg width="1155" height="1251" xmlns="http://www.w3.org/2000/svg" xmlns:xlink="http://www.w3.org/1999/xlink" overflow="hidden"><defs><clipPath id="clip0"><path d="M-2-2 1153-2 1153 1249-2 1249Z" fill-rule="evenodd" clip-rule="evenodd"/></clipPath><linearGradient x1="241" y1="1031.5" x2="684" y2="1031.5" gradientUnits="userSpaceOnUse" spreadMethod="reflect" id="fill1"><stop offset="0" stop-color="#57E3FF"/><stop offset="0.00515464" stop-color="#56E2FE"/><stop offset="0.0103093" stop-color="#56E2FE"/><stop offset="0.0154639" stop-color="#56E2FE"/><stop offset="0.0206186" stop-color="#56E2FE"/><stop offset="0.0257732" stop-color="#56E2FE"/><stop offset="0.0309278" stop-color="#56E2FE"/><stop offset="0.0360825" stop-color="#56E2FE"/><stop offset="0.0412371" stop-color="#56E2FE"/><stop offset="0.0463918" stop-color="#56E2FE"/><stop offset="0.0515464" stop-color="#56E2FE"/><stop offset="0.056701" stop-color="#56E2FE"/><stop offset="0.0618557" stop-color="#56E1FE"/><stop offset="0.0670103" stop-color="#56E1FD"/><stop offset="0.0721649" stop-color="#56E1FD"/><stop offset="0.0773196" stop-color="#56E1FD"/><stop offset="0.0824742" stop-color="#56E1FD"/><stop offset="0.0876289" stop-color="#56E0FD"/><stop offset="0.0927835" stop-color="#55E0FD"/><stop offset="0.0979381" stop-color="#55E0FC"/><stop offset="0.103093" stop-color="#55E0FC"/><stop offset="0.108247" stop-color="#55DFFC"/><stop offset="0.113402" stop-color="#55DFFC"/><stop offset="0.118557" stop-color="#55DFFC"/><stop offset="0.123711" stop-color="#55DFFB"/><stop offset="0.128866" stop-color="#55DEFB"/><stop offset="0.134021" stop-color="#54DEFB"/><stop offset="0.139175" stop-color="#54DEFB"/><stop offset="0.14433" stop-color="#54DDFA"/><stop offset="0.149485" stop-color="#54DDFA"/><stop offset="0.154639" stop-color="#54DDFA"/><stop offset="0.159794" stop-color="#54DCF9"/><stop offset="0.164948" stop-color="#54DCF9"/><stop offset="0.170103" stop-color="#53DBF9"/><stop offset="0.175258" stop-color="#53DBF8"/><stop offset="0.180412" stop-color="#53DBF8"/><stop offset="0.185567" stop-color="#53DAF8"/><stop offset="0.190722" stop-color="#53DAF7"/><stop offset="0.195876" stop-color="#52D9F7"/><stop offset="0.201031" stop-color="#52D9F7"/><stop offset="0.206186" stop-color="#52D8F6"/><stop offset="0.21134" stop-color="#52D8F6"/><stop offset="0.216495" stop-color="#52D7F5"/><stop offset="0.221649" stop-color="#51D7F5"/><stop offset="0.226804" stop-color="#51D6F5"/><stop offset="0.231959" stop-color="#51D6F4"/><stop offset="0.237113" stop-color="#51D5F4"/><stop offset="0.242268" stop-color="#50D5F3"/><stop offset="0.247423" stop-color="#50D4F3"/><stop offset="0.252577" stop-color="#50D4F2"/><stop offset="0.257732" stop-color="#50D3F2"/><stop offset="0.262887" stop-color="#4FD3F2"/><stop offset="0.268041" stop-color="#4FD2F1"/><stop offset="0.273196" stop-color="#4FD1F1"/><stop offset="0.278351" stop-color="#4FD1F0"/><stop offset="0.283505" stop-color="#4ED0F0"/><stop offset="0.28866" stop-color="#4ED0EF"/><stop offset="0.293814" stop-color="#4ECFEF"/><stop offset="0.298969" stop-color="#4DCEEE"/><stop offset="0.304124" stop-color="#4DCEED"/><stop offset="0.309278" stop-color="#4DCDED"/><stop offset="0.314433" stop-color="#4DCCEC"/><stop offset="0.319588" stop-color="#4CCCEC"/><stop offset="0.324742" stop-color="#4CCBEB"/><stop offset="0.329897" stop-color="#4CCAEB"/><stop offset="0.335052" stop-color="#4BC9EA"/><stop offset="0.340206" stop-color="#4BC9E9"/><stop offset="0.345361" stop-color="#4BC8E9"/><stop offset="0.350515" stop-color="#4AC7E8"/><stop offset="0.35567" stop-color="#4AC6E8"/><stop offset="0.360825" stop-color="#4AC6E7"/><stop offset="0.365979" stop-color="#49C5E6"/><stop offset="0.371134" stop-color="#49C4E6"/><stop offset="0.376289" stop-color="#49C3E5"/><stop offset="0.381443" stop-color="#48C2E4"/><stop offset="0.386598" stop-color="#48C2E4"/><stop offset="0.391753" stop-color="#47C1E3"/><stop offset="0.396907" stop-color="#47C0E2"/><stop offset="0.402062" stop-color="#47BFE2"/><stop offset="0.407216" stop-color="#46BEE1"/><stop offset="0.412371" stop-color="#46BDE0"/><stop offset="0.417526" stop-color="#46BDE0"/><stop offset="0.42268" stop-color="#45BCDF"/><stop offset="0.427835" stop-color="#45BBDE"/><stop offset="0.43299" stop-color="#44BADD"/><stop offset="0.438144" stop-color="#44B9DD"/><stop offset="0.443299" stop-color="#44B8DC"/><stop offset="0.448454" stop-color="#43B7DB"/><stop offset="0.453608" stop-color="#43B6DA"/><stop offset="0.458763" stop-color="#42B5DA"/><stop offset="0.463918" stop-color="#42B4D9"/><stop offset="0.469072" stop-color="#41B3D8"/><stop offset="0.474227" stop-color="#41B2D7"/><stop offset="0.479381" stop-color="#41B1D6"/><stop offset="0.484536" stop-color="#40B0D6"/><stop offset="0.489691" stop-color="#40AFD5"/><stop offset="0.494845" stop-color="#3FAED4"/><stop offset="0.5" stop-color="#3FADD3"/><stop offset="0.505155" stop-color="#3EACD2"/><stop offset="0.510309" stop-color="#3EABD1"/><stop offset="0.515464" stop-color="#3DAAD1"/><stop offset="0.520619" stop-color="#3DA9D0"/><stop offset="0.525773" stop-color="#3CA8CF"/><stop offset="0.530928" stop-color="#3CA7CE"/><stop offset="0.536082" stop-color="#3BA6CD"/><stop offset="0.541237" stop-color="#3BA5CC"/><stop offset="0.546392" stop-color="#3AA4CB"/><stop offset="0.551546" stop-color="#3AA3CA"/><stop offset="0.556701" stop-color="#39A1C9"/><stop offset="0.561856" stop-color="#39A0C9"/><stop offset="0.56701" stop-color="#389FC8"/><stop offset="0.572165" stop-color="#389EC7"/><stop offset="0.57732" stop-color="#379DC6"/><stop offset="0.582474" stop-color="#379CC5"/><stop offset="0.587629" stop-color="#369BC4"/><stop offset="0.592784" stop-color="#3699C3"/><stop offset="0.597938" stop-color="#3598C2"/><stop offset="0.603093" stop-color="#3597C1"/><stop offset="0.608247" stop-color="#3496C0"/><stop offset="0.613402" stop-color="#3495BF"/><stop offset="0.618557" stop-color="#3393BE"/><stop offset="0.623711" stop-color="#3392BD"/><stop offset="0.628866" stop-color="#3291BC"/><stop offset="0.634021" stop-color="#3190BB"/><stop offset="0.639175" stop-color="#318EBA"/><stop offset="0.64433" stop-color="#308DB9"/><stop offset="0.649485" stop-color="#308CB8"/><stop offset="0.654639" stop-color="#2F8AB7"/><stop offset="0.659794" stop-color="#2F89B6"/><stop offset="0.664948" stop-color="#2E88B5"/><stop offset="0.670103" stop-color="#2D86B3"/><stop offset="0.675258" stop-color="#2D85B2"/><stop offset="0.680412" stop-color="#2C84B1"/><stop offset="0.685567" stop-color="#2C82B0"/><stop offset="0.690722" stop-color="#2B81AF"/><stop offset="0.695876" stop-color="#2A80AE"/><stop offset="0.701031" stop-color="#2A7EAD"/><stop offset="0.706186" stop-color="#297DAC"/><stop offset="0.71134" stop-color="#297CAB"/><stop offset="0.716495" stop-color="#287AA9"/><stop offset="0.721649" stop-color="#2779A8"/><stop offset="0.726804" stop-color="#2777A7"/><stop offset="0.731959" stop-color="#2676A6"/><stop offset="0.737113" stop-color="#2574A5"/><stop offset="0.742268" stop-color="#2573A4"/><stop offset="0.747423" stop-color="#2472A2"/><stop offset="0.752577" stop-color="#2370A1"/><stop offset="0.757732" stop-color="#236FA0"/><stop offset="0.762887" stop-color="#226D9F"/><stop offset="0.768041" stop-color="#216C9E"/><stop offset="0.773196" stop-color="#216A9C"/><stop offset="0.778351" stop-color="#20699B"/><stop offset="0.783505" stop-color="#1F679A"/><stop offset="0.78866" stop-color="#1F6699"/><stop offset="0.793814" stop-color="#1E6497"/><stop offset="0.798969" stop-color="#1D6296"/><stop offset="0.804124" stop-color="#1D6195"/><stop offset="0.809278" stop-color="#1C5F94"/><stop offset="0.814433" stop-color="#1B5E92"/><stop offset="0.819588" stop-color="#1B5C91"/><stop offset="0.824742" stop-color="#1A5B90"/><stop offset="0.829897" stop-color="#19598E"/><stop offset="0.835052" stop-color="#18578D"/><stop offset="0.840206" stop-color="#18568C"/><stop offset="0.845361" stop-color="#17548A"/><stop offset="0.850515" stop-color="#165389"/><stop offset="0.85567" stop-color="#165188"/><stop offset="0.860825" stop-color="#154F86"/><stop offset="0.865979" stop-color="#144E85"/><stop offset="0.871134" stop-color="#134C84"/><stop offset="0.876289" stop-color="#134A82"/><stop offset="0.881443" stop-color="#124981"/><stop offset="0.886598" stop-color="#114780"/><stop offset="0.891753" stop-color="#10457E"/><stop offset="0.896907" stop-color="#10437D"/><stop offset="0.902062" stop-color="#0F427B"/><stop offset="0.907216" stop-color="#0E407A"/><stop offset="0.912371" stop-color="#0D3E79"/><stop offset="0.917526" stop-color="#0C3D77"/><stop offset="0.92268" stop-color="#0C3B76"/><stop offset="0.927835" stop-color="#0B3974"/><stop offset="0.93299" stop-color="#0A3773"/><stop offset="0.938144" stop-color="#093671"/><stop offset="0.943299" stop-color="#093470"/><stop offset="0.948454" stop-color="#08326F"/><stop offset="0.953608" stop-color="#07306D"/><stop offset="0.958763" stop-color="#062E6C"/><stop offset="0.963918" stop-color="#052C6A"/><stop offset="0.969072" stop-color="#042B69"/><stop offset="0.974227" stop-color="#042967"/><stop offset="0.979381" stop-color="#032766"/><stop offset="0.984536" stop-color="#022564"/><stop offset="0.989691" stop-color="#012363"/><stop offset="0.994845" stop-color="#002161"/><stop offset="1" stop-color="#002060"/></linearGradient></defs><g clip-path="url(#clip0)" transform="translate(2 2)"><rect x="0" y="0" width="1154" height="1249" fill="#FFFFFF" transform="matrix(-1 -8.74228e-08 -8.74228e-08 1 1152 -1)"/><text font-family="Calibri,Calibri_MSFontService,sans-serif" font-weight="400" font-size="32" transform="translate(248.611 97)">“My pet dog ate my homework!”</text><rect x="242.5" y="197.5" width="111" height="28" stroke="#000000" stroke-width="3" stroke-miterlimit="8" fill="#00B0F0"/><text fill="#FFFFFF" font-family="Calibri,Calibri_MSFontService,sans-serif" font-weight="400" font-size="20" transform="translate(284.323 218)">pet</text><rect x="352.5" y="197.5" width="111" height="28" stroke="#000000" stroke-width="3" stroke-miterlimit="8" fill="#00B0F0"/><text fill="#FFFFFF" font-family="Calibri,Calibri_MSFontService,sans-serif" font-weight="400" font-size="20" transform="translate(392.719 218)">dog</text><rect x="463.5" y="197.5" width="111" height="28" stroke="#000000" stroke-width="3" stroke-miterlimit="8" fill="#00B0F0"/><text fill="#FFFFFF" font-family="Calibri,Calibri_MSFontService,sans-serif" font-weight="400" font-size="20" transform="translate(505.876 218)">eat</text><rect x="574.5" y="197.5" width="111" height="28" stroke="#000000" stroke-width="3" stroke-miterlimit="8" fill="#00B0F0"/><text fill="#FFFFFF" font-family="Calibri,Calibri_MSFontService,sans-serif" font-weight="400" font-size="20" transform="translate(585.991 218)">homework</text><path d="M241 239C235.477 239 231 234.685 231 229.362L231 193.638C231 188.315 235.477 184 241 184" stroke="#000000" stroke-width="6" stroke-miterlimit="8" fill="none" fill-rule="evenodd"/><rect x="38" y="192" width="137" height="39"/><text fill="#FFFFFF" font-family="Calibri,Calibri_MSFontService,sans-serif" font-weight="400" font-size="24" transform="translate(58.1996 219)">Figure 1.2</text><path d="M175 211 231.438 211" stroke="#000000" stroke-width="6" stroke-miterlimit="8" fill="none" fill-rule="evenodd"/><path d="M11 55C4.92487 55 0 50.2536 0 44.3987L0 10.6013C-1.75056e-15 4.74638 4.92487 0 11 0" stroke="#000000" stroke-width="6" stroke-miterlimit="8" fill="none" fill-rule="evenodd" transform="matrix(-1 -8.74228e-08 -8.74228e-08 1 696 184)"/><path d="M241 114C235.477 114 231 109.685 231 104.362L231 68.6376C231 63.3149 235.477 59 241 59" stroke="#000000" stroke-width="6" stroke-miterlimit="8" fill="none" fill-rule="evenodd"/><path d="M175 87 231.438 87.0002" stroke="#000000" stroke-width="6" stroke-miterlimit="8" fill="none" fill-rule="evenodd"/><path d="M11 55C4.92487 55 0 50.2536 0 44.3987L0 10.6013C-1.75056e-15 4.74638 4.92487 0 11 0" stroke="#000000" stroke-width="6" stroke-miterlimit="8" fill="none" fill-rule="evenodd" transform="matrix(-1 -8.74228e-08 -8.74228e-08 1 696 59)"/><rect x="38" y="67" width="137" height="39"/><text fill="#FFFFFF" font-family="Calibri,Calibri_MSFontService,sans-serif" font-weight="400" font-size="24" transform="translate(58.1996 94)">Figure 1.1</text><rect x="241.5" y="324.5" width="110" height="27" stroke="#000000" stroke-width="3" stroke-miterlimit="8" fill="#00B0F0"/><text fill="#FFFFFF" font-family="Calibri,Calibri_MSFontService,sans-serif" font-weight="400" font-size="20" transform="translate(282.461 344)">pet</text><rect x="351.5" y="324.5" width="111" height="27" stroke="#000000" stroke-width="3" stroke-miterlimit="8" fill="#FFC000"/><text font-family="Calibri,Calibri_MSFontService,sans-serif" font-weight="400" font-size="20" transform="translate(391.771 344)">dog</text><rect x="463.5" y="324.5" width="111" height="27" stroke="#000000" stroke-width="3" stroke-miterlimit="8" fill="#FFC000"/><text font-family="Calibri,Calibri_MSFontService,sans-serif" font-weight="400" font-size="20" transform="translate(505.402 345)">eat</text><rect x="351.5" y="391.5" width="111" height="28" stroke="#000000" stroke-width="3" stroke-miterlimit="8" fill="#FFC000"/><text font-family="Calibri,Calibri_MSFontService,sans-serif" font-weight="400" font-size="20" transform="translate(392.974 412)">pet</text><rect x="572.5" y="391.5" width="111" height="28" stroke="#000000" stroke-width="3" stroke-miterlimit="8" fill="#FFC000"/><text font-family="Calibri,Calibri_MSFontService,sans-serif" font-weight="400" font-size="20" transform="translate(584.094 412)">homework</text><rect x="462.5" y="391.5" width="111" height="28" stroke="#000000" stroke-width="3" stroke-miterlimit="8" fill="#FFC000"/><text font-family="Calibri,Calibri_MSFontService,sans-serif" font-weight="400" font-size="20" transform="translate(504.454 412)">eat</text><rect x="241.5" y="460.5" width="111" height="28" stroke="#000000" stroke-width="3" stroke-miterlimit="8" fill="#00B0F0"/><text fill="#FFFFFF" font-family="Calibri,Calibri_MSFontService,sans-serif" font-weight="400" font-size="20" transform="translate(283.333 481)">eat</text><rect x="352.5" y="460.5" width="111" height="28" stroke="#000000" stroke-width="3" stroke-miterlimit="8" fill="#FFC000"/><text font-family="Calibri,Calibri_MSFontService,sans-serif" font-weight="400" font-size="20" transform="translate(393.757 481)">pet</text><rect x="573.5" y="460.5" width="111" height="28" stroke="#000000" stroke-width="3" stroke-miterlimit="8" fill="#FFC000"/><text font-family="Calibri,Calibri_MSFontService,sans-serif" font-weight="400" font-size="20" transform="translate(584.918 481)">homework</text><rect x="463.5" y="460.5" width="111" height="28" stroke="#000000" stroke-width="3" stroke-miterlimit="8" fill="#FFC000"/><text font-family="Calibri,Calibri_MSFontService,sans-serif" font-weight="400" font-size="20" transform="translate(503.101 481)">dog</text><rect x="241.5" y="528.5" width="111" height="27" stroke="#000000" stroke-width="3" stroke-miterlimit="8" fill="#00B0F0"/><text fill="#FFFFFF" font-family="Calibri,Calibri_MSFontService,sans-serif" font-weight="400" font-size="20" transform="translate(252.45 549)">homework</text><rect x="351.5" y="528.5" width="111" height="27" stroke="#000000" stroke-width="3" stroke-miterlimit="8" fill="#FFC000"/><text font-family="Calibri,Calibri_MSFontService,sans-serif" font-weight="400" font-size="20" transform="translate(391.297 549)">dog</text><rect x="462.5" y="528.5" width="111" height="27" stroke="#000000" stroke-width="3" stroke-miterlimit="8" fill="#FFC000"/><text font-family="Calibri,Calibri_MSFontService,sans-serif" font-weight="400" font-size="20" transform="translate(504.294 549)">eat</text><path d="M241 571C235.477 571 231 566.685 231 561.362L231 317.638C231 312.315 235.477 308 241 308" stroke="#000000" stroke-width="6" stroke-miterlimit="8" fill="none" fill-rule="evenodd"/><rect x="38" y="420" width="137" height="39"/><text fill="#FFFFFF" font-family="Calibri,Calibri_MSFontService,sans-serif" font-weight="400" font-size="24" transform="translate(58.1995 447)">Figure 1.3</text><path d="M175 439 230.964 439" stroke="#000000" stroke-width="6" stroke-miterlimit="8" fill="none" fill-rule="evenodd"/><path d="M11 263C4.92487 263 0 258.254 0 252.399L0 10.6011C-4.18552e-15 4.74628 4.92487 0 11 0" stroke="#000000" stroke-width="6" stroke-miterlimit="8" fill="none" fill-rule="evenodd" transform="matrix(-1 -8.74228e-08 -8.74228e-08 1 696 308)"/><rect x="241" y="1016" width="443" height="31" fill="url(#fill1)"/><text fill="#FFFFFF" font-family="Calibri,Calibri_MSFontService,sans-serif" font-weight="400" font-size="21" transform="translate(599.726 1038)">Common<tspan fill="#000000" x="-354.543" y="0">Unique</tspan></text><rect x="575.5" y="1072.5" width="111" height="27" stroke="#000000" stroke-width="3" stroke-miterlimit="8" fill="#124982"/><text fill="#FFFFFF" font-family="Calibri,Calibri_MSFontService,sans-serif" font-weight="400" font-size="20" transform="translate(616.948 1093)">pet</text><rect x="242.5" y="1072.5" width="111" height="27" stroke="#000000" stroke-width="3" stroke-miterlimit="8" fill="#56E0FD"/><text font-family="Calibri,Calibri_MSFontService,sans-serif" font-weight="400" font-size="20" transform="translate(253.796 1093)">homework</text><rect x="353.5" y="1072.5" width="111" height="27" stroke="#000000" stroke-width="3" stroke-miterlimit="8" fill="#4AC6E7"/><text font-family="Calibri,Calibri_MSFontService,sans-serif" font-weight="400" font-size="20" transform="translate(395.169 1093)">eat</text><rect x="464.5" y="1072.5" width="111" height="27" stroke="#000000" stroke-width="3" stroke-miterlimit="8" fill="#2D86B3"/><text fill="#FFFFFF" font-family="Calibri,Calibri_MSFontService,sans-serif" font-weight="400" font-size="20" transform="translate(503.973 1093)">dog</text><path d="M11 112C4.92487 112 0 107.254 0 101.399L0 10.6013C-1.78239e-15 4.74636 4.92487 0 11 0" stroke="#000000" stroke-width="6" stroke-miterlimit="8" fill="none" fill-rule="evenodd" transform="matrix(-1 -8.74228e-08 -8.74228e-08 1 696 1001)"/><path d="M241 1112C234.925 1112 230 1107.25 230 1101.4L230 1011.6C230 1005.75 234.925 1001 241 1001" stroke="#000000" stroke-width="6" stroke-miterlimit="8" fill="none" fill-rule="evenodd"/><rect x="38" y="1037" width="137" height="39"/><text fill="#FFFFFF" font-family="Calibri,Calibri_MSFontService,sans-serif" font-weight="400" font-size="24" transform="translate(58.4274 1064)">Figure 1.5</text><path d="M175 1056 230.49 1056" stroke="#000000" stroke-width="6" stroke-miterlimit="8" fill="none" fill-rule="evenodd"/><text font-family="Calibri,Calibri_MSFontService,sans-serif" font-weight="400" font-size="37" transform="translate(256.489 1201)">[“homework”, “eat”, “dog”]</text><path d="M10 55C4.47715 55 0 50.6851 0 45.3624L0 9.63757C0 4.31489 4.47715 0 10 0" stroke="#000000" stroke-width="6" stroke-miterlimit="8" fill="none" fill-rule="evenodd" transform="matrix(-1 -8.74228e-08 -8.74228e-08 1 695 1164)"/><path d="M175 1192 231.439 1192.11" stroke="#000000" stroke-width="6" stroke-miterlimit="8" fill="none" fill-rule="evenodd"/><path d="M241 1219C235.477 1219 231 1214.69 231 1209.36L231 1173.64C231 1168.31 235.477 1164 241 1164" stroke="#000000" stroke-width="6" stroke-miterlimit="8" fill="none" fill-rule="evenodd"/><rect x="38" y="1172" width="137" height="39"/><text fill="#FFFFFF" font-family="Calibri,Calibri_MSFontService,sans-serif" font-weight="400" font-size="24" transform="translate(58.1995 1199)">Figure 1.6</text><rect x="762" y="308" width="322" height="49" fill="#7F7F7F"/><text fill="#FFFFFF" font-family="Calibri,Calibri_MSFontService,sans-serif" font-weight="400" font-size="32" transform="translate(802.191 344)">Text Preprocessing</text><rect x="762" y="501" width="322" height="48" fill="#C55A11"/><text fill="#FFFFFF" font-family="Calibri,Calibri_MSFontService,sans-serif" font-weight="400" font-size="32" transform="translate(795.768 536)">Context Generation</text><rect x="762" y="357" width="322" height="144" fill="#0D0D0D"/><text fill="#FFFFFF" font-family="Calibri,Calibri_MSFontService,sans-serif" font-weight="400" font-size="24" transform="translate(814.552 393)">Filters out stop words, <tspan x="-30.98" y="29">removes punctuation marks, </tspan><tspan x="-31.6934" y="58">and splits the document into </tspan><tspan x="15.6266" y="87">lemmatized words.</tspan></text><rect x="762" y="549" width="322" height="252" fill="#0D0D0D"/><text fill="#FFFFFF" font-family="Calibri,Calibri_MSFontService,sans-serif" font-weight="400" font-size="24" transform="translate(821.915 582)">For each token, a set <tspan x="-44.18" y="29">containing the words within K </tspan><tspan x="-38.0333" y="58">words away is created. If the </tspan><tspan x="-17.9933" y="87">window size is K and the </tspan><tspan x="-40.3134" y="116">position of the target word is </tspan><tspan x="-11.32" y="144">C, then all words in the </tspan><tspan x="-44.86" y="173">domain [C</tspan><tspan x="54.9733" y="173">-</tspan><tspan x="62.3066" y="173">K, C+K] excluding C </tspan><tspan x="36.3134" y="202">are returned.</tspan></text><rect x="762" y="801" width="322" height="48" fill="#002060"/><text fill="#FFFFFF" font-family="Calibri,Calibri_MSFontService,sans-serif" font-weight="400" font-size="32" transform="translate(775.615 836)">Uniqueness Evaluation</text><rect x="762" y="849" width="322" height="176" fill="#0D0D0D"/><text fill="#FFFFFF" font-family="Calibri,Calibri_MSFontService,sans-serif" font-weight="400" font-size="24" transform="translate(776.718 887)">Each target word is assigned a <tspan x="26.7333" y="29">uniqueness value, which </tspan><tspan x="11.66" y="58">defines the uniqueness of a </tspan><tspan x="22.0467" y="87">word in comparison to its </tspan><tspan x="106.707" y="116">context.</tspan></text><path d="M548 158.5 560.75 158.5 560.75 114 586.25 114 586.25 158.5 599 158.5 573.5 184Z" fill="#124982" fill-rule="evenodd"/><path d="M327 158.5 339.75 158.5 339.75 114 365.25 114 365.25 158.5 378 158.5 352.5 184Z" fill="#124982" fill-rule="evenodd"/><text fill="#002060" font-family="Calibri,Calibri_MSFontService,sans-serif" font-weight="400" font-size="24" transform="translate(443.112 141)">Text <tspan x="-48.1933" y="29">Preprocessing</tspan></text><path d="M548 279.5 560.75 279.5 560.75 236 586.25 236 586.25 279.5 599 279.5 573.5 305Z" fill="#124982" fill-rule="evenodd"/><path d="M327 279.5 339.75 279.5 339.75 236 365.25 236 365.25 279.5 378 279.5 352.5 305Z" fill="#124982" fill-rule="evenodd"/><text fill="#002060" font-family="Calibri,Calibri_MSFontService,sans-serif" font-weight="400" font-size="24" transform="translate(426.458 262)">Context<tspan x="-17.0267" y="29">Generation</tspan><tspan x="9.97006" y="-217">Input</tspan></text><rect x="240.5" y="391.5" width="111" height="28" stroke="#000000" stroke-width="3" stroke-miterlimit="8" fill="#00B0F0"/><text fill="#FFFFFF" font-family="Calibri,Calibri_MSFontService,sans-serif" font-weight="400" font-size="20" transform="translate(280.816 412)">dog<tspan fill="#00B0F0" font-size="19" x="-29.5427" y="-96">Target Word</tspan></text><path d="M548 615.5 560.75 615.5 560.75 572 586.25 572 586.25 615.5 599 615.5 573.5 641Z" fill="#124982" fill-rule="evenodd"/><path d="M327 615.5 339.75 615.5 339.75 572 365.25 572 365.25 615.5 378 615.5 352.5 641Z" fill="#124982" fill-rule="evenodd"/><text fill="#002060" font-family="Calibri,Calibri_MSFontService,sans-serif" font-weight="400" font-size="24" transform="translate(418.908 598)">Similarity <tspan x="-5.26669" y="29">Evaluation</tspan></text><rect x="240.5" y="657.5" width="111" height="27" stroke="#000000" stroke-width="3" stroke-miterlimit="8" fill="#00B0F0"/><text fill="#FFFFFF" font-family="Calibri,Calibri_MSFontService,sans-serif" font-weight="400" font-size="20" transform="translate(281.938 677)">pet</text><rect x="351.5" y="657.5" width="111" height="27" stroke="#000000" stroke-width="3" stroke-miterlimit="8" fill="#FFC000"/><text font-family="Calibri,Calibri_MSFontService,sans-serif" font-weight="400" font-size="20" transform="translate(391.297 677)">dog</text><rect x="351.5" y="724.5" width="111" height="28" stroke="#000000" stroke-width="3" stroke-miterlimit="8" fill="#FFC000"/><text font-family="Calibri,Calibri_MSFontService,sans-serif" font-weight="400" font-size="20" transform="translate(392.5 745)">pet</text><rect x="572.5" y="724.5" width="111" height="28" stroke="#000000" stroke-width="3" stroke-miterlimit="8" fill="#FFC000"/><text font-family="Calibri,Calibri_MSFontService,sans-serif" font-weight="400" font-size="20" transform="translate(583.62 745)">homework</text><rect x="461.5" y="724.5" width="111" height="28" stroke="#000000" stroke-width="3" stroke-miterlimit="8" fill="#FFC000"/><text font-family="Calibri,Calibri_MSFontService,sans-serif" font-weight="400" font-size="20" transform="translate(503.98 745)">eat</text><rect x="240.5" y="793.5" width="111" height="28" stroke="#000000" stroke-width="3" stroke-miterlimit="8" fill="#00B0F0"/><text fill="#FFFFFF" font-family="Calibri,Calibri_MSFontService,sans-serif" font-weight="400" font-size="20" transform="translate(282.859 814)">eat</text><rect x="351.5" y="793.5" width="111" height="28" stroke="#000000" stroke-width="3" stroke-miterlimit="8" fill="#FFC000"/><text font-family="Calibri,Calibri_MSFontService,sans-serif" font-weight="400" font-size="20" transform="translate(393.283 814)">pet</text><rect x="573.5" y="793.5" width="111" height="28" stroke="#000000" stroke-width="3" stroke-miterlimit="8" fill="#FFC000"/><text font-family="Calibri,Calibri_MSFontService,sans-serif" font-weight="400" font-size="20" transform="translate(584.444 814)">homework</text><rect x="462.5" y="793.5" width="111" height="28" stroke="#000000" stroke-width="3" stroke-miterlimit="8" fill="#FFC000"/><text font-family="Calibri,Calibri_MSFontService,sans-serif" font-weight="400" font-size="20" transform="translate(502.627 814)">dog</text><rect x="240.5" y="861.5" width="111" height="27" stroke="#000000" stroke-width="3" stroke-miterlimit="8" fill="#00B0F0"/><text fill="#FFFFFF" font-family="Calibri,Calibri_MSFontService,sans-serif" font-weight="400" font-size="20" transform="translate(251.976 881)">homework</text><rect x="350.5" y="861.5" width="111" height="27" stroke="#000000" stroke-width="3" stroke-miterlimit="8" fill="#FFC000"/><text font-family="Calibri,Calibri_MSFontService,sans-serif" font-weight="400" font-size="20" transform="translate(390.823 881)">dog</text><rect x="462.5" y="861.5" width="111" height="27" stroke="#000000" stroke-width="3" stroke-miterlimit="8" fill="#FFC000"/><text font-family="Calibri,Calibri_MSFontService,sans-serif" font-weight="400" font-size="20" transform="translate(504.454 881)">eat</text><path d="M240 936C234.477 936 230 931.685 230 926.363L230 637.637C230 632.315 234.477 628 240 628" stroke="#000000" stroke-width="6" stroke-miterlimit="8" fill="none" fill-rule="evenodd"/><rect x="37" y="762" width="137" height="39"/><text fill="#FFFFFF" font-family="Calibri,Calibri_MSFontService,sans-serif" font-weight="400" font-size="24" transform="translate(57.6084 789)">Figure 1.4</text><path d="M174 782 230.081 782" stroke="#000000" stroke-width="6" stroke-miterlimit="8" fill="none" fill-rule="evenodd"/><path d="M10 308C4.47715 308 0 303.685 0 298.363L0 9.63746C-2.45081e-15 4.31484 4.47715-1.22539e-15 10-1.22539e-15" stroke="#000000" stroke-width="6" stroke-miterlimit="8" fill="none" fill-rule="evenodd" transform="matrix(-1 -8.74228e-08 -8.74228e-08 1 695 628)"/><rect x="240.5" y="724.5" width="111" height="28" stroke="#000000" stroke-width="3" stroke-miterlimit="8" fill="#00B0F0"/><text fill="#FFFFFF" font-family="Calibri,Calibri_MSFontService,sans-serif" font-weight="400" font-size="20" transform="translate(280.139 745)">dog<tspan fill="#00B0F0" font-size="19" x="-29.3405" y="-96">Target Word</tspan></text><rect x="462.5" y="657.5" width="111" height="27" stroke="#000000" stroke-width="3" stroke-miterlimit="8" fill="#FFC000"/><text font-family="Calibri,Calibri_MSFontService,sans-serif" font-weight="400" font-size="20" transform="translate(504.691 677)">eat</text><rect x="326.5" y="700.5" width="49" height="19" stroke="#000000" stroke-width="3" stroke-miterlimit="8" fill="#0070C0"/><text fill="#FFFFFF" font-family="Calibri,Calibri_MSFontService,sans-serif" font-weight="400" font-size="16" transform="translate(340.683 715)">0.8</text><path d="M295.5 684.5 350.882 700.126" stroke="#000000" stroke-width="3" stroke-miterlimit="8" fill="none" fill-rule="evenodd"/><path d="M0 0 55.6133 15.6016" stroke="#000000" stroke-width="3" stroke-miterlimit="8" fill="none" fill-rule="evenodd" transform="matrix(-1 -8.74228e-08 -8.74228e-08 1 407.113 684.5)"/><rect x="438.5" y="699.5" width="48" height="19" stroke="#000000" stroke-width="3" stroke-miterlimit="8" fill="#0070C0"/><text fill="#FFFFFF" font-family="Calibri,Calibri_MSFontService,sans-serif" font-weight="400" font-size="16" transform="translate(451.787 714)">0.4</text><path d="M295.5 684.5 461.986 699.54" stroke="#000000" stroke-width="3" stroke-miterlimit="8" fill="none" fill-rule="evenodd"/><path d="M0 0 55.7276 15.0401" stroke="#000000" stroke-width="3" stroke-miterlimit="8" fill="none" fill-rule="evenodd" transform="matrix(-1 -8.74228e-08 -8.74228e-08 1 518.228 684.5)"/><rect x="328.5" y="768.5" width="48" height="19" stroke="#000000" stroke-width="3" stroke-miterlimit="8" fill="#0070C0"/><text fill="#FFFFFF" font-family="Calibri,Calibri_MSFontService,sans-serif" font-weight="400" font-size="16" transform="translate(341.879 783)">0.8</text><path d="M295.5 752.5 352.239 768.887" stroke="#000000" stroke-width="3" stroke-miterlimit="8" fill="none" fill-rule="evenodd"/><path d="M0 0 53.9841 16.3855" stroke="#000000" stroke-width="3" stroke-miterlimit="8" fill="none" fill-rule="evenodd" transform="matrix(-1 -8.74228e-08 -8.74228e-08 1 406.484 752.5)"/><rect x="437.5" y="768.5" width="49" height="19" stroke="#000000" stroke-width="3" stroke-miterlimit="8" fill="#0070C0"/><text fill="#FFFFFF" font-family="Calibri,Calibri_MSFontService,sans-serif" font-weight="400" font-size="16" transform="translate(451.313 783)">0.5</text><path d="M295.5 752.5 461.674 768.887" stroke="#000000" stroke-width="3" stroke-miterlimit="8" fill="none" fill-rule="evenodd"/><path d="M0 0 55.4904 16.3855" stroke="#000000" stroke-width="3" stroke-miterlimit="8" fill="none" fill-rule="evenodd" transform="matrix(-1 -8.74228e-08 -8.74228e-08 1 516.99 752.5)"/><rect x="548.5" y="768.5" width="49" height="19" stroke="#000000" stroke-width="3" stroke-miterlimit="8" fill="#0070C0"/><text fill="#FFFFFF" font-family="Calibri,Calibri_MSFontService,sans-serif" font-weight="400" font-size="16" transform="translate(562.607 783)">0.1</text><path d="M295.5 752.5 572.968 768.647" stroke="#000000" stroke-width="3" stroke-miterlimit="8" fill="none" fill-rule="evenodd"/><path d="M0 0 54.7026 16.1456" stroke="#000000" stroke-width="3" stroke-miterlimit="8" fill="none" fill-rule="evenodd" transform="matrix(-1 -8.74228e-08 -8.74228e-08 1 628.203 752.5)"/><rect x="328.5" y="836.5" width="48" height="20" stroke="#000000" stroke-width="3" stroke-miterlimit="8" fill="#0070C0"/><text fill="#FFFFFF" font-family="Calibri,Calibri_MSFontService,sans-serif" font-weight="400" font-size="16" transform="translate(341.879 851)">0.4</text><path d="M295.5 820.5 352.239 836.887" stroke="#000000" stroke-width="3" stroke-miterlimit="8" fill="none" fill-rule="evenodd"/><path d="M0 0 54.7677 15.7391" stroke="#000000" stroke-width="3" stroke-miterlimit="8" fill="none" fill-rule="evenodd" transform="matrix(-1 -8.74228e-08 -8.74228e-08 1 407.268 821.5)"/><rect x="437.5" y="836.5" width="49" height="19" stroke="#000000" stroke-width="3" stroke-miterlimit="8" fill="#0070C0"/><text fill="#FFFFFF" font-family="Calibri,Calibri_MSFontService,sans-serif" font-weight="400" font-size="16" transform="translate(451.354 851)">0.5</text><path d="M0 0 56.2733 15.4212" stroke="#000000" stroke-width="3" stroke-miterlimit="8" fill="none" fill-rule="evenodd" transform="matrix(-1 -8.74228e-08 -8.74228e-08 1 518.773 821.5)"/><path d="M296.5 821.5 462.172 836.874" stroke="#000000" stroke-width="3" stroke-miterlimit="8" fill="none" fill-rule="evenodd"/><rect x="548.5" y="836.5" width="49" height="19" stroke="#000000" stroke-width="3" stroke-miterlimit="8" fill="#0070C0"/><text fill="#FFFFFF" font-family="Calibri,Calibri_MSFontService,sans-serif" font-weight="400" font-size="16" transform="translate(562.607 851)">0.1</text><path d="M296.5 821.5 573.425 836.511" stroke="#000000" stroke-width="3" stroke-miterlimit="8" fill="none" fill-rule="evenodd"/><path d="M0 0 55.5265 15.0576" stroke="#000000" stroke-width="3" stroke-miterlimit="8" fill="none" fill-rule="evenodd" transform="matrix(1 0 0 -1 573.5 836.558)"/><rect x="326.5" y="904.5" width="49" height="19" stroke="#000000" stroke-width="3" stroke-miterlimit="8" fill="#0070C0"/><text fill="#FFFFFF" font-family="Calibri,Calibri_MSFontService,sans-serif" font-weight="400" font-size="16" transform="translate(340.683 919)">0.1</text><path d="M296.5 888.5 351.518 903.921" stroke="#000000" stroke-width="3" stroke-miterlimit="8" fill="none" fill-rule="evenodd"/><path d="M0 0 55.1393 15.4212" stroke="#000000" stroke-width="3" stroke-miterlimit="8" fill="none" fill-rule="evenodd" transform="matrix(-1 -8.74228e-08 -8.74228e-08 1 406.639 888.5)"/><rect x="437.5" y="904.5" width="48" height="19" stroke="#000000" stroke-width="3" stroke-miterlimit="8" fill="#0070C0"/><text fill="#FFFFFF" font-family="Calibri,Calibri_MSFontService,sans-serif" font-weight="400" font-size="16" transform="translate(450.783 919)">0.1</text><path d="M0 0 56.4944 15.7603" stroke="#000000" stroke-width="3" stroke-miterlimit="8" fill="none" fill-rule="evenodd" transform="matrix(-1 -8.74228e-08 -8.74228e-08 1 517.994 888.5)"/><path d="M461.617 904.26 296.5 888.5" stroke="#000000" stroke-width="3" stroke-miterlimit="8" fill="none" fill-rule="evenodd"/><text fill="#002060" font-family="Calibri,Calibri_MSFontService,sans-serif" font-weight="700" font-size="19" transform="translate(617.668 1064)">0.6<tspan x="-115.794" y="0">0.47</tspan><tspan x="-226.8" y="1">0.33</tspan><tspan x="-332.116" y="1">0.1</tspan></text><path d="M546 978.5 558.75 978.5 558.75 934 584.25 934 584.25 978.5 597 978.5 571.5 1004Z" fill="#124982" fill-rule="evenodd"/><path d="M325 978.5 337.75 978.5 337.75 934 363.25 934 363.25 978.5 376 978.5 350.5 1004Z" fill="#124982" fill-rule="evenodd"/><text fill="#002060" font-family="Calibri,Calibri_MSFontService,sans-serif" font-weight="400" font-size="24" transform="translate(423.544 961)">Average<tspan x="-1.93332" y="29">and Sort</tspan><tspan fill="#000000" x="302.851" y="-665">Parameters: window size = 2, list size = 3</tspan></text><path d="M547 1148.5 559.75 1148.5 559.75 1104 585.25 1104 585.25 1148.5 598 1148.5 572.5 1174Z" fill="#124982" fill-rule="evenodd"/><path d="M326 1148.5 338.75 1148.5 338.75 1104 364.25 1104 364.25 1148.5 377 1148.5 351.5 1174Z" fill="#124982" fill-rule="evenodd"/><text fill="#002060" font-family="Calibri,Calibri_MSFontService,sans-serif" font-weight="400" font-size="24" transform="translate(426.033 1142)">Output</text><rect x="829" y="98" width="188" height="70"/><text fill="#FFFFFF" font-family="Calibri,Calibri_MSFontService,sans-serif" font-weight="400" font-size="43" transform="translate(853.384 147)">Figure 1</text></g></svg>