<svg width="768" height="1344" xmlns="http://www.w3.org/2000/svg" xmlns:xlink="http://www.w3.org/1999/xlink" overflow="hidden"><defs><clipPath id="clip0"><path d="M0 0 768 0 768 1344 0 1344Z" fill-rule="evenodd" clip-rule="evenodd"/></clipPath><linearGradient x1="255" y1="1129.5" x2="698" y2="1129.5" gradientUnits="userSpaceOnUse" spreadMethod="reflect" id="fill1"><stop offset="0" stop-color="#57E3FF"/><stop offset="0.77" stop-color="#57E3FF"/><stop offset="1" stop-color="#002060"/></linearGradient><clipPath id="clip2"><path d="M646 1171 685 1171 685 1182 646 1182Z" fill-rule="evenodd" clip-rule="evenodd"/></clipPath><clipPath id="clip3"><path d="M646 1171 685 1171 685 1182 646 1182Z" fill-rule="evenodd" clip-rule="evenodd"/></clipPath><clipPath id="clip4"><path d="M646 1156 685 1156 685 1197 646 1197Z" fill-rule="evenodd" clip-rule="evenodd"/></clipPath></defs><g clip-path="url(#clip0)"><rect x="0" y="0" width="768" height="1344" fill="#FFFFFF"/><rect x="0" y="0" width="768" height="1344" fill="#FFFFFF" transform="matrix(-1 -8.74228e-08 -8.74228e-08 1 768 0)"/><text font-family="Segoe UI,Segoe UI_MSFontService,sans-serif" font-weight="400" font-size="21" transform="translate(283.128 102)">My friend's dad had a surgery last year to <tspan x="74.1467" y="25">remove his kidney cancer.</tspan></text><path d="M256 267C250.477 267 246 262.685 246 257.362L246 221.638C246 216.315 250.477 212 256 212" stroke="#000000" stroke-width="6" stroke-miterlimit="8" fill="none" fill-rule="evenodd"/><rect x="52" y="220" width="137" height="39"/><text fill="#FFFFFF" font-family="Segoe UI,Segoe UI_MSFontService,sans-serif" font-weight="400" font-size="19" transform="translate(95.0736 246)">Step 2</text><path d="M189 239 245.438 239" stroke="#000000" stroke-width="6" stroke-miterlimit="8" fill="none" fill-rule="evenodd"/><path d="M10 55C4.47715 55 0 50.6851 0 45.3624L0 9.63757C0 4.31489 4.47715 0 10 0" stroke="#000000" stroke-width="6" stroke-miterlimit="8" fill="none" fill-rule="evenodd" transform="matrix(-1 -8.74228e-08 -8.74228e-08 1 710 212)"/><path d="M256 132C250.477 132 246 127.685 246 122.362L246 87.6376C246 82.3149 250.477 78 256 78" stroke="#000000" stroke-width="6" stroke-miterlimit="8" fill="none" fill-rule="evenodd"/><path d="M189 105 245.438 105" stroke="#000000" stroke-width="6" stroke-miterlimit="8" fill="none" fill-rule="evenodd"/><path d="M10 54C4.47715 54 0 49.6851 0 44.3624L0 9.63756C-3.43747e-15 4.31488 4.47715 0 10 0" stroke="#000000" stroke-width="6" stroke-miterlimit="8" fill="none" fill-rule="evenodd" transform="matrix(-1 -8.74228e-08 -8.74228e-08 1 710 78)"/><rect x="52" y="85" width="137" height="39"/><text fill="#FFFFFF" font-family="Segoe UI,Segoe UI_MSFontService,sans-serif" font-weight="400" font-size="19" transform="translate(95.0736 112)">Step 1</text><rect x="255" y="1114" width="443" height="31" fill="url(#fill1)"/><text font-family="Segoe UI,Segoe UI_MSFontService,sans-serif" font-weight="400" font-size="19" transform="translate(261.5 1136)">Unique</text><path d="M10 111C4.47715 111 0 106.685 0 101.362L0 9.6376C0 4.3149 4.47715 0 10 0" stroke="#000000" stroke-width="6" stroke-miterlimit="8" fill="none" fill-rule="evenodd" transform="matrix(-1 -8.74228e-08 -8.74228e-08 1 710 1100)"/><path d="M255 1210C249.477 1210 245 1205.69 245 1200.36L245 1108.64C245 1103.31 249.477 1099 255 1099" stroke="#000000" stroke-width="6" stroke-miterlimit="8" fill="none" fill-rule="evenodd"/><rect x="53" y="1135" width="136" height="39"/><text fill="#FFFFFF" font-family="Segoe UI,Segoe UI_MSFontService,sans-serif" font-weight="400" font-size="19" transform="translate(95.3015 1161)">Step 4</text><path d="M189 1155 244.49 1155" stroke="#000000" stroke-width="6" stroke-miterlimit="8" fill="none" fill-rule="evenodd"/><text font-family="Segoe UI,Segoe UI_MSFontService,sans-serif" font-weight="400" font-size="27" transform="translate(274.991 1299)">friend, dad, cancer, kidney, surgery</text><path d="M11 55C4.92487 55 0 50.2536 0 44.3987L0 10.6013C-1.75056e-15 4.74638 4.92487 0 11 0" stroke="#000000" stroke-width="6" stroke-miterlimit="8" fill="none" fill-rule="evenodd" transform="matrix(-1 -8.74228e-08 -8.74228e-08 1 710 1263)"/><path d="M189 1290 245.439 1290.11" stroke="#000000" stroke-width="6" stroke-miterlimit="8" fill="none" fill-rule="evenodd"/><path d="M256 1318C250.477 1318 246 1313.69 246 1308.36L246 1272.64C246 1267.31 250.477 1263 256 1263" stroke="#000000" stroke-width="6" stroke-miterlimit="8" fill="none" fill-rule="evenodd"/><rect x="52" y="1271" width="137" height="39"/><text fill="#FFFFFF" font-family="Segoe UI,Segoe UI_MSFontService,sans-serif" font-weight="400" font-size="19" transform="translate(95.0735 1297)">Step 5</text><path d="M562 181.5 574.75 181.5 574.75 137 600.25 137 600.25 181.5 613 181.5 587.5 207Z" fill="#124982" fill-rule="evenodd"/><path d="M341 181.5 353.75 181.5 353.75 137 379.25 137 379.25 181.5 392 181.5 366.5 207Z" fill="#124982" fill-rule="evenodd"/><text fill="#002060" font-family="Segoe UI,Segoe UI_MSFontService,sans-serif" font-weight="400" font-size="21" transform="translate(459.561 164)">Text <tspan x="-47.0733" y="25">Preprocessing</tspan></text><path d="M562 323.5 574.75 323.5 574.75 279 600.25 279 600.25 323.5 613 323.5 587.5 349Z" fill="#124982" fill-rule="evenodd"/><path d="M341 323.5 353.75 323.5 353.75 279 379.25 279 379.25 323.5 392 323.5 366.5 349Z" fill="#124982" fill-rule="evenodd"/><text fill="#002060" font-family="Segoe UI,Segoe UI_MSFontService,sans-serif" font-weight="400" font-size="21" transform="translate(441.558 309)">Context<tspan x="-15.6667" y="25">Generation</tspan><tspan x="11.4002" y="-238">Input</tspan></text><path d="M254.985 1024C249.47 1024 245 1019.69 245 1014.38L245 364.622C245 359.308 249.47 355 254.985 355" stroke="#000000" stroke-width="6" stroke-miterlimit="8" fill="none" fill-rule="evenodd"/><rect x="52" y="670" width="137" height="39"/><text fill="#FFFFFF" font-family="Segoe UI,Segoe UI_MSFontService,sans-serif" font-weight="400" font-size="19" transform="translate(94.5289 696)">Step 3</text><path d="M189 689 245.035 689" stroke="#000000" stroke-width="6" stroke-miterlimit="8" fill="none" fill-rule="evenodd"/><path d="M11 669C4.92487 669 0 664.254 0 658.399L0 10.6005C-1.33091e-15 4.74603 4.92487-1.33082e-15 11-1.33082e-15" stroke="#000000" stroke-width="6" stroke-miterlimit="8" fill="none" fill-rule="evenodd" transform="matrix(-1 -8.74228e-08 -8.74228e-08 1 710 355)"/><path d="M561 1076.5 573.75 1076.5 573.75 1033 599.25 1033 599.25 1076.5 612 1076.5 586.5 1102Z" fill="#124982" fill-rule="evenodd"/><path d="M340 1076.5 352.75 1076.5 352.75 1033 378.25 1033 378.25 1076.5 391 1076.5 365.5 1102Z" fill="#124982" fill-rule="evenodd"/><text fill="#002060" font-family="Segoe UI,Segoe UI_MSFontService,sans-serif" font-weight="400" font-size="21" transform="translate(404.099 1060)">Boost, Average, <tspan x="32.4066" y="25">and Sort</tspan><tspan fill="#000000" font-size="19" x="-186.723" y="-1028">Parameters: window size = 2, list size = 5</tspan></text><path d="M561 1247.5 573.75 1247.5 573.75 1203 599.25 1203 599.25 1247.5 612 1247.5 586.5 1273Z" fill="#124982" fill-rule="evenodd"/><path d="M340 1247.5 352.75 1247.5 352.75 1203 378.25 1203 378.25 1247.5 391 1247.5 365.5 1273Z" fill="#124982" fill-rule="evenodd"/><text fill="#002060" font-family="Segoe UI,Segoe UI_MSFontService,sans-serif" font-weight="400" font-size="21" transform="translate(406.002 1230)">Postprocessing<tspan x="11.7133" y="25">and Filtering</tspan></text><rect x="295.5" y="212.5" width="74" height="27" stroke="#000000" stroke-width="3" stroke-miterlimit="8" fill="#00B0F0"/><text fill="#FFFFFF" font-family="Segoe UI,Segoe UI_MSFontService,sans-serif" font-weight="400" font-size="16" transform="translate(311.392 232)">friend</text><rect x="369.5" y="212.5" width="75" height="27" stroke="#000000" stroke-width="3" stroke-miterlimit="8" fill="#00B0F0"/><text fill="#FFFFFF" font-family="Segoe UI,Segoe UI_MSFontService,sans-serif" font-weight="400" font-size="16" transform="translate(393.133 232)">dad</text><rect x="444.5" y="212.5" width="75" height="27" stroke="#000000" stroke-width="3" stroke-miterlimit="8" fill="#00B0F0"/><text fill="#FFFFFF" font-family="Segoe UI,Segoe UI_MSFontService,sans-serif" font-weight="400" font-size="16" transform="translate(468.125 232)">had</text><rect x="519.5" y="212.5" width="75" height="27" stroke="#000000" stroke-width="3" stroke-miterlimit="8" fill="#00B0F0"/><text fill="#FFFFFF" font-family="Segoe UI,Segoe UI_MSFontService,sans-serif" font-weight="400" font-size="16" transform="translate(529.82 232)">surgery</text><rect x="594.5" y="212.5" width="74" height="27" stroke="#000000" stroke-width="3" stroke-miterlimit="8" fill="#00B0F0"/><text fill="#FFFFFF" font-family="Segoe UI,Segoe UI_MSFontService,sans-serif" font-weight="400" font-size="16" transform="translate(618.775 232)">last</text><rect x="295.5" y="239.5" width="74" height="28" stroke="#000000" stroke-width="3" stroke-miterlimit="8" fill="#00B0F0"/><text fill="#FFFFFF" font-family="Segoe UI,Segoe UI_MSFontService,sans-serif" font-weight="400" font-size="16" transform="translate(317.182 259)">year</text><rect x="369.5" y="239.5" width="75" height="28" stroke="#000000" stroke-width="3" stroke-miterlimit="8" fill="#00B0F0"/><text fill="#FFFFFF" font-family="Segoe UI,Segoe UI_MSFontService,sans-serif" font-weight="400" font-size="16" transform="translate(380.37 259)">remove</text><rect x="444.5" y="239.5" width="75" height="28" stroke="#000000" stroke-width="3" stroke-miterlimit="8" fill="#00B0F0"/><text fill="#FFFFFF" font-family="Segoe UI,Segoe UI_MSFontService,sans-serif" font-weight="400" font-size="16" transform="translate(458.517 259)">kidney</text><rect x="519.5" y="239.5" width="75" height="28" stroke="#000000" stroke-width="3" stroke-miterlimit="8" fill="#00B0F0"/><text fill="#FFFFFF" font-family="Segoe UI,Segoe UI_MSFontService,sans-serif" font-weight="400" font-size="16" transform="translate(533.437 259)">cancer</text><rect x="342.5" y="404.5" width="49" height="20" stroke="#000000" stroke-width="3" stroke-miterlimit="8" fill="#0070C0"/><path d="M0 0 37.3708 16.5744" stroke="#000000" stroke-width="3" stroke-miterlimit="8" fill="none" fill-rule="evenodd" transform="matrix(-1 -8.74228e-08 -8.74228e-08 1 404.871 388.5)"/><path d="M366.871 405.074 329.5 388.5" stroke="#000000" stroke-width="3" stroke-miterlimit="8" fill="none" fill-rule="evenodd"/><rect x="292.5" y="360.5" width="75" height="28" stroke="#000000" stroke-width="3" stroke-miterlimit="8" fill="#00B0F0"/><text fill="#FFFFFF" font-family="Segoe UI,Segoe UI_MSFontService,sans-serif" font-weight="400" font-size="16" transform="translate(308.677 381)">friend</text><rect x="367.5" y="360.5" width="74" height="28" stroke="#000000" stroke-width="3" stroke-miterlimit="8" fill="#FFC000"/><text font-family="Segoe UI,Segoe UI_MSFontService,sans-serif" font-weight="400" font-size="16" transform="translate(390.418 381)">dad</text><rect x="441.5" y="360.5" width="75" height="28" stroke="#000000" stroke-width="3" stroke-miterlimit="8" fill="#FFC000"/><text font-family="Segoe UI,Segoe UI_MSFontService,sans-serif" font-weight="400" font-size="16" transform="translate(465.41 381)">had</text><rect x="417.5" y="404.5" width="49" height="20" stroke="#000000" stroke-width="3" stroke-miterlimit="8" fill="#0070C0"/><path d="M0 0 37.3708 16.5745" stroke="#000000" stroke-width="3" stroke-miterlimit="8" fill="none" fill-rule="evenodd" transform="matrix(-1 -8.74228e-08 -8.74228e-08 1 478.871 388.5)"/><path d="M329.5 388.5 441.612 405.074" stroke="#000000" stroke-width="3" stroke-miterlimit="8" fill="none" fill-rule="evenodd"/><rect x="417.5" y="478.5" width="49" height="20" stroke="#000000" stroke-width="3" stroke-miterlimit="8" fill="#0070C0"/><path d="M0 0 37.3708 16.5744" stroke="#000000" stroke-width="3" stroke-miterlimit="8" fill="none" fill-rule="evenodd" transform="matrix(-1 -8.74228e-08 -8.74228e-08 1 478.871 462.5)"/><path d="M441.871 479.074 404.5 462.5" stroke="#000000" stroke-width="3" stroke-miterlimit="8" fill="none" fill-rule="evenodd"/><rect x="367.5" y="434.5" width="74" height="28" stroke="#000000" stroke-width="3" stroke-miterlimit="8" fill="#00B0F0"/><text fill="#FFFFFF" font-family="Segoe UI,Segoe UI_MSFontService,sans-serif" font-weight="400" font-size="16" transform="translate(390.418 454)">dad</text><rect x="441.5" y="434.5" width="75" height="28" stroke="#000000" stroke-width="3" stroke-miterlimit="8" fill="#FFC000"/><text font-family="Segoe UI,Segoe UI_MSFontService,sans-serif" font-weight="400" font-size="16" transform="translate(465.41 454)">had</text><rect x="516.5" y="434.5" width="75" height="28" stroke="#000000" stroke-width="3" stroke-miterlimit="8" fill="#FFC000"/><text font-family="Segoe UI,Segoe UI_MSFontService,sans-serif" font-weight="400" font-size="16" transform="translate(527.105 454)">surgery</text><rect x="492.5" y="478.5" width="48" height="20" stroke="#000000" stroke-width="3" stroke-miterlimit="8" fill="#0070C0"/><path d="M0 0 37.3708 16.5745" stroke="#000000" stroke-width="3" stroke-miterlimit="8" fill="none" fill-rule="evenodd" transform="matrix(-1 -8.74228e-08 -8.74228e-08 1 553.871 462.5)"/><path d="M404.5 462.5 516.612 479.074" stroke="#000000" stroke-width="3" stroke-miterlimit="8" fill="none" fill-rule="evenodd"/><rect x="292.5" y="434.5" width="75" height="28" stroke="#000000" stroke-width="3" stroke-miterlimit="8" fill="#FFC000"/><text font-family="Segoe UI,Segoe UI_MSFontService,sans-serif" font-weight="400" font-size="16" transform="translate(308.677 454)">friend</text><rect x="342.5" y="998.5" width="49" height="20" stroke="#000000" stroke-width="3" stroke-miterlimit="8" fill="#0070C0"/><path d="M0 0 37.3708 16.5744" stroke="#000000" stroke-width="3" stroke-miterlimit="8" fill="none" fill-rule="evenodd" transform="matrix(-1 -8.74228e-08 -8.74228e-08 1 404.871 982.5)"/><path d="M0 0 112.112 16.5749" stroke="#000000" stroke-width="3" stroke-miterlimit="8" fill="none" fill-rule="evenodd" transform="matrix(1 0 0 -1 367.5 999.075)"/><rect x="441.5" y="954.5" width="75" height="28" stroke="#000000" stroke-width="3" stroke-miterlimit="8" fill="#00B0F0"/><text fill="#FFFFFF" font-family="Segoe UI,Segoe UI_MSFontService,sans-serif" font-weight="400" font-size="16" transform="translate(455.91 974)">cancer</text><rect x="367.5" y="954.5" width="74" height="28" stroke="#000000" stroke-width="3" stroke-miterlimit="8" fill="#FFC000"/><text font-family="Segoe UI,Segoe UI_MSFontService,sans-serif" font-weight="400" font-size="16" transform="translate(380.835 974)">kidney</text><rect x="292.5" y="954.5" width="75" height="28" stroke="#000000" stroke-width="3" stroke-miterlimit="8" fill="#FFC000"/><text font-family="Segoe UI,Segoe UI_MSFontService,sans-serif" font-weight="400" font-size="16" transform="translate(302.913 974)">remove</text><rect x="417.5" y="998.5" width="49" height="20" stroke="#000000" stroke-width="3" stroke-miterlimit="8" fill="#0070C0"/><path d="M329.5 982.5 441.612 999.075" stroke="#000000" stroke-width="3" stroke-miterlimit="8" fill="none" fill-rule="evenodd"/><path d="M0 0 37.3708 16.5749" stroke="#000000" stroke-width="3" stroke-miterlimit="8" fill="none" fill-rule="evenodd" transform="matrix(-1 -8.74228e-08 -8.74228e-08 1 478.871 982.5)"/><rect x="492.5" y="553.5" width="48" height="19" stroke="#000000" stroke-width="3" stroke-miterlimit="8" fill="#0070C0"/><path d="M0 0 37.3708 16.5744" stroke="#000000" stroke-width="3" stroke-miterlimit="8" fill="none" fill-rule="evenodd" transform="matrix(-1 -8.74228e-08 -8.74228e-08 1 553.871 536.5)"/><path d="M516.871 553.074 479.5 536.5" stroke="#000000" stroke-width="3" stroke-miterlimit="8" fill="none" fill-rule="evenodd"/><rect x="441.5" y="509.5" width="75" height="27" stroke="#000000" stroke-width="3" stroke-miterlimit="8" fill="#00B0F0"/><text fill="#FFFFFF" font-family="Segoe UI,Segoe UI_MSFontService,sans-serif" font-weight="400" font-size="16" transform="translate(465.41 529)">had</text><rect x="516.5" y="509.5" width="75" height="27" stroke="#000000" stroke-width="3" stroke-miterlimit="8" fill="#FFC000"/><text font-family="Segoe UI,Segoe UI_MSFontService,sans-serif" font-weight="400" font-size="16" transform="translate(527.105 529)">surgery</text><rect x="591.5" y="509.5" width="75" height="27" stroke="#000000" stroke-width="3" stroke-miterlimit="8" fill="#FFC000"/><text font-family="Segoe UI,Segoe UI_MSFontService,sans-serif" font-weight="400" font-size="16" transform="translate(616.06 529)">last</text><rect x="566.5" y="553.5" width="49" height="19" stroke="#000000" stroke-width="3" stroke-miterlimit="8" fill="#0070C0"/><path d="M0 0 37.3708 16.5745" stroke="#000000" stroke-width="3" stroke-miterlimit="8" fill="none" fill-rule="evenodd" transform="matrix(-1 -8.74228e-08 -8.74228e-08 1 628.871 536.5)"/><path d="M479.5 536.5 591.612 553.074" stroke="#000000" stroke-width="3" stroke-miterlimit="8" fill="none" fill-rule="evenodd"/><rect x="367.5" y="509.5" width="74" height="27" stroke="#000000" stroke-width="3" stroke-miterlimit="8" fill="#FFC000"/><text font-family="Segoe UI,Segoe UI_MSFontService,sans-serif" font-weight="400" font-size="16" transform="translate(390.418 529)">dad</text><rect x="292.5" y="509.5" width="75" height="27" stroke="#000000" stroke-width="3" stroke-miterlimit="8" fill="#FFC000"/><text font-family="Segoe UI,Segoe UI_MSFontService,sans-serif" font-weight="400" font-size="16" transform="translate(308.677 529)">friend</text><rect x="342.5" y="553.5" width="49" height="19" stroke="#000000" stroke-width="3" stroke-miterlimit="8" fill="#0070C0"/><path d="M329.5 536.5 366.871 553.075" stroke="#000000" stroke-width="3" stroke-miterlimit="8" fill="none" fill-rule="evenodd"/><path d="M0 0 112.112 16.5744" stroke="#000000" stroke-width="3" stroke-miterlimit="8" fill="none" fill-rule="evenodd" transform="matrix(1 0 0 -1 367.5 553.074)"/><rect x="417.5" y="553.5" width="49" height="19" stroke="#000000" stroke-width="3" stroke-miterlimit="8" fill="#0070C0"/><path d="M0 0 37.3708 17.1639" stroke="#000000" stroke-width="3" stroke-miterlimit="8" fill="none" fill-rule="evenodd" transform="matrix(1 0 0 -1 441.5 553.664)"/><path d="M404.5 536.5 441.871 553.664" stroke="#000000" stroke-width="3" stroke-miterlimit="8" fill="none" fill-rule="evenodd"/><rect x="492.5" y="627.5" width="48" height="19" stroke="#000000" stroke-width="3" stroke-miterlimit="8" fill="#0070C0"/><path d="M0 0 37.3708 16.5744" stroke="#000000" stroke-width="3" stroke-miterlimit="8" fill="none" fill-rule="evenodd" transform="matrix(-1 -8.74228e-08 -8.74228e-08 1 553.871 610.5)"/><path d="M516.871 627.074 479.5 610.5" stroke="#000000" stroke-width="3" stroke-miterlimit="8" fill="none" fill-rule="evenodd"/><rect x="441.5" y="583.5" width="75" height="27" stroke="#000000" stroke-width="3" stroke-miterlimit="8" fill="#00B0F0"/><text fill="#FFFFFF" font-family="Segoe UI,Segoe UI_MSFontService,sans-serif" font-weight="400" font-size="16" transform="translate(452.363 603)">surgery</text><rect x="516.5" y="583.5" width="75" height="27" stroke="#000000" stroke-width="3" stroke-miterlimit="8" fill="#FFC000"/><text font-family="Segoe UI,Segoe UI_MSFontService,sans-serif" font-weight="400" font-size="16" transform="translate(541.318 603)">last</text><rect x="591.5" y="583.5" width="75" height="27" stroke="#000000" stroke-width="3" stroke-miterlimit="8" fill="#FFC000"/><text font-family="Segoe UI,Segoe UI_MSFontService,sans-serif" font-weight="400" font-size="16" transform="translate(613.433 603)">year</text><rect x="566.5" y="627.5" width="49" height="19" stroke="#000000" stroke-width="3" stroke-miterlimit="8" fill="#0070C0"/><path d="M0 0 37.3708 16.5745" stroke="#000000" stroke-width="3" stroke-miterlimit="8" fill="none" fill-rule="evenodd" transform="matrix(-1 -8.74228e-08 -8.74228e-08 1 628.871 610.5)"/><path d="M479.5 610.5 591.612 627.074" stroke="#000000" stroke-width="3" stroke-miterlimit="8" fill="none" fill-rule="evenodd"/><rect x="367.5" y="583.5" width="74" height="27" stroke="#000000" stroke-width="3" stroke-miterlimit="8" fill="#FFC000"/><text font-family="Segoe UI,Segoe UI_MSFontService,sans-serif" font-weight="400" font-size="16" transform="translate(390.668 603)">had</text><rect x="292.5" y="583.5" width="75" height="27" stroke="#000000" stroke-width="3" stroke-miterlimit="8" fill="#FFC000"/><text font-family="Segoe UI,Segoe UI_MSFontService,sans-serif" font-weight="400" font-size="16" transform="translate(315.677 603)">dad</text><rect x="342.5" y="627.5" width="49" height="19" stroke="#000000" stroke-width="3" stroke-miterlimit="8" fill="#0070C0"/><path d="M329.5 610.5 366.871 627.075" stroke="#000000" stroke-width="3" stroke-miterlimit="8" fill="none" fill-rule="evenodd"/><path d="M0 0 112.112 16.5744" stroke="#000000" stroke-width="3" stroke-miterlimit="8" fill="none" fill-rule="evenodd" transform="matrix(1 0 0 -1 367.5 627.074)"/><rect x="417.5" y="627.5" width="49" height="20" stroke="#000000" stroke-width="3" stroke-miterlimit="8" fill="#0070C0"/><path d="M0 0 37.3708 17.1639" stroke="#000000" stroke-width="3" stroke-miterlimit="8" fill="none" fill-rule="evenodd" transform="matrix(1 0 0 -1 441.5 627.664)"/><path d="M404.5 610.5 441.871 627.664" stroke="#000000" stroke-width="3" stroke-miterlimit="8" fill="none" fill-rule="evenodd"/><rect x="492.5" y="701.5" width="48" height="19" stroke="#000000" stroke-width="3" stroke-miterlimit="8" fill="#0070C0"/><path d="M0 0 37.3708 16.5744" stroke="#000000" stroke-width="3" stroke-miterlimit="8" fill="none" fill-rule="evenodd" transform="matrix(-1 -8.74228e-08 -8.74228e-08 1 553.871 684.5)"/><path d="M516.871 701.074 479.5 684.5" stroke="#000000" stroke-width="3" stroke-miterlimit="8" fill="none" fill-rule="evenodd"/><rect x="441.5" y="657.5" width="75" height="27" stroke="#000000" stroke-width="3" stroke-miterlimit="8" fill="#00B0F0"/><text fill="#FFFFFF" font-family="Segoe UI,Segoe UI_MSFontService,sans-serif" font-weight="400" font-size="16" transform="translate(466.577 677)">last</text><rect x="516.5" y="657.5" width="75" height="27" stroke="#000000" stroke-width="3" stroke-miterlimit="8" fill="#FFC000"/><text font-family="Segoe UI,Segoe UI_MSFontService,sans-serif" font-weight="400" font-size="16" transform="translate(538.692 677)">year</text><rect x="591.5" y="657.5" width="75" height="27" stroke="#000000" stroke-width="3" stroke-miterlimit="8" fill="#FFC000"/><text font-family="Segoe UI,Segoe UI_MSFontService,sans-serif" font-weight="400" font-size="16" transform="translate(601.88 677)">remove</text><rect x="566.5" y="701.5" width="49" height="19" stroke="#000000" stroke-width="3" stroke-miterlimit="8" fill="#0070C0"/><path d="M0 0 37.3708 16.5745" stroke="#000000" stroke-width="3" stroke-miterlimit="8" fill="none" fill-rule="evenodd" transform="matrix(-1 -8.74228e-08 -8.74228e-08 1 628.871 684.5)"/><path d="M479.5 684.5 591.612 701.074" stroke="#000000" stroke-width="3" stroke-miterlimit="8" fill="none" fill-rule="evenodd"/><rect x="367.5" y="657.5" width="74" height="27" stroke="#000000" stroke-width="3" stroke-miterlimit="8" fill="#FFC000"/><text font-family="Segoe UI,Segoe UI_MSFontService,sans-serif" font-weight="400" font-size="16" transform="translate(377.622 677)">surgery</text><rect x="292.5" y="657.5" width="75" height="27" stroke="#000000" stroke-width="3" stroke-miterlimit="8" fill="#FFC000"/><text font-family="Segoe UI,Segoe UI_MSFontService,sans-serif" font-weight="400" font-size="16" transform="translate(315.927 677)">had</text><rect x="342.5" y="701.5" width="49" height="19" stroke="#000000" stroke-width="3" stroke-miterlimit="8" fill="#0070C0"/><path d="M329.5 684.5 366.871 701.075" stroke="#000000" stroke-width="3" stroke-miterlimit="8" fill="none" fill-rule="evenodd"/><path d="M0 0 112.112 16.5744" stroke="#000000" stroke-width="3" stroke-miterlimit="8" fill="none" fill-rule="evenodd" transform="matrix(1 0 0 -1 367.5 701.074)"/><rect x="417.5" y="702.5" width="49" height="19" stroke="#000000" stroke-width="3" stroke-miterlimit="8" fill="#0070C0"/><path d="M0 0 37.3708 17.1639" stroke="#000000" stroke-width="3" stroke-miterlimit="8" fill="none" fill-rule="evenodd" transform="matrix(1 0 0 -1 441.5 701.664)"/><path d="M404.5 684.5 441.871 701.664" stroke="#000000" stroke-width="3" stroke-miterlimit="8" fill="none" fill-rule="evenodd"/><rect x="492.5" y="775.5" width="48" height="19" stroke="#000000" stroke-width="3" stroke-miterlimit="8" fill="#0070C0"/><path d="M0 0 37.3708 16.5744" stroke="#000000" stroke-width="3" stroke-miterlimit="8" fill="none" fill-rule="evenodd" transform="matrix(-1 -8.74228e-08 -8.74228e-08 1 553.871 759.5)"/><path d="M516.871 776.074 479.5 759.5" stroke="#000000" stroke-width="3" stroke-miterlimit="8" fill="none" fill-rule="evenodd"/><rect x="441.5" y="731.5" width="75" height="28" stroke="#000000" stroke-width="3" stroke-miterlimit="8" fill="#00B0F0"/><text fill="#FFFFFF" font-family="Segoe UI,Segoe UI_MSFontService,sans-serif" font-weight="400" font-size="16" transform="translate(463.963 751)">year</text><rect x="516.5" y="731.5" width="75" height="28" stroke="#000000" stroke-width="3" stroke-miterlimit="8" fill="#FFC000"/><text font-family="Segoe UI,Segoe UI_MSFontService,sans-serif" font-weight="400" font-size="16" transform="translate(527.151 751)">remove</text><rect x="591.5" y="731.5" width="75" height="28" stroke="#000000" stroke-width="3" stroke-miterlimit="8" fill="#FFC000"/><text font-family="Segoe UI,Segoe UI_MSFontService,sans-serif" font-weight="400" font-size="16" transform="translate(605.072 751)">kidney</text><rect x="566.5" y="775.5" width="49" height="19" stroke="#000000" stroke-width="3" stroke-miterlimit="8" fill="#0070C0"/><path d="M0 0 37.3708 16.5745" stroke="#000000" stroke-width="3" stroke-miterlimit="8" fill="none" fill-rule="evenodd" transform="matrix(-1 -8.74228e-08 -8.74228e-08 1 628.871 759.5)"/><path d="M479.5 759.5 591.612 776.074" stroke="#000000" stroke-width="3" stroke-miterlimit="8" fill="none" fill-rule="evenodd"/><rect x="367.5" y="731.5" width="74" height="28" stroke="#000000" stroke-width="3" stroke-miterlimit="8" fill="#FFC000"/><text font-family="Segoe UI,Segoe UI_MSFontService,sans-serif" font-weight="400" font-size="16" transform="translate(391.848 751)">last</text><rect x="292.5" y="731.5" width="75" height="28" stroke="#000000" stroke-width="3" stroke-miterlimit="8" fill="#FFC000"/><text font-family="Segoe UI,Segoe UI_MSFontService,sans-serif" font-weight="400" font-size="16" transform="translate(302.893 751)">surgery</text><rect x="342.5" y="775.5" width="49" height="19" stroke="#000000" stroke-width="3" stroke-miterlimit="8" fill="#0070C0"/><path d="M329.5 759.5 366.871 776.075" stroke="#000000" stroke-width="3" stroke-miterlimit="8" fill="none" fill-rule="evenodd"/><path d="M0 0 112.112 16.5744" stroke="#000000" stroke-width="3" stroke-miterlimit="8" fill="none" fill-rule="evenodd" transform="matrix(1 0 0 -1 367.5 776.074)"/><rect x="417.5" y="776.5" width="49" height="19" stroke="#000000" stroke-width="3" stroke-miterlimit="8" fill="#0070C0"/><path d="M0 0 37.3708 17.1639" stroke="#000000" stroke-width="3" stroke-miterlimit="8" fill="none" fill-rule="evenodd" transform="matrix(1 0 0 -1 441.5 776.664)"/><path d="M404.5 759.5 441.871 776.664" stroke="#000000" stroke-width="3" stroke-miterlimit="8" fill="none" fill-rule="evenodd"/><rect x="492.5" y="850.5" width="48" height="19" stroke="#000000" stroke-width="3" stroke-miterlimit="8" fill="#0070C0"/><path d="M0 0 37.3708 16.5744" stroke="#000000" stroke-width="3" stroke-miterlimit="8" fill="none" fill-rule="evenodd" transform="matrix(-1 -8.74228e-08 -8.74228e-08 1 553.871 833.5)"/><path d="M516.871 850.074 479.5 833.5" stroke="#000000" stroke-width="3" stroke-miterlimit="8" fill="none" fill-rule="evenodd"/><rect x="441.5" y="806.5" width="75" height="27" stroke="#000000" stroke-width="3" stroke-miterlimit="8" fill="#00B0F0"/><text fill="#FFFFFF" font-family="Segoe UI,Segoe UI_MSFontService,sans-serif" font-weight="400" font-size="16" transform="translate(452.397 826)">remove</text><rect x="516.5" y="806.5" width="75" height="27" stroke="#000000" stroke-width="3" stroke-miterlimit="8" fill="#FFC000"/><text font-family="Segoe UI,Segoe UI_MSFontService,sans-serif" font-weight="400" font-size="16" transform="translate(530.318 826)">kidney</text><rect x="591.5" y="806.5" width="75" height="27" stroke="#000000" stroke-width="3" stroke-miterlimit="8" fill="#FFC000"/><text font-family="Segoe UI,Segoe UI_MSFontService,sans-serif" font-weight="400" font-size="16" transform="translate(605.393 826)">cancer</text><rect x="566.5" y="850.5" width="49" height="19" stroke="#000000" stroke-width="3" stroke-miterlimit="8" fill="#0070C0"/><path d="M0 0 37.3708 16.5745" stroke="#000000" stroke-width="3" stroke-miterlimit="8" fill="none" fill-rule="evenodd" transform="matrix(-1 -8.74228e-08 -8.74228e-08 1 628.871 833.5)"/><path d="M479.5 833.5 591.612 850.074" stroke="#000000" stroke-width="3" stroke-miterlimit="8" fill="none" fill-rule="evenodd"/><rect x="367.5" y="806.5" width="74" height="27" stroke="#000000" stroke-width="3" stroke-miterlimit="8" fill="#FFC000"/><text font-family="Segoe UI,Segoe UI_MSFontService,sans-serif" font-weight="400" font-size="16" transform="translate(389.208 826)">year</text><rect x="292.5" y="806.5" width="75" height="27" stroke="#000000" stroke-width="3" stroke-miterlimit="8" fill="#FFC000"/><text font-family="Segoe UI,Segoe UI_MSFontService,sans-serif" font-weight="400" font-size="16" transform="translate(317.093 826)">last</text><rect x="342.5" y="850.5" width="49" height="19" stroke="#000000" stroke-width="3" stroke-miterlimit="8" fill="#0070C0"/><path d="M329.5 833.5 366.871 850.075" stroke="#000000" stroke-width="3" stroke-miterlimit="8" fill="none" fill-rule="evenodd"/><path d="M0 0 112.112 16.5744" stroke="#000000" stroke-width="3" stroke-miterlimit="8" fill="none" fill-rule="evenodd" transform="matrix(1 0 0 -1 367.5 850.074)"/><rect x="417.5" y="850.5" width="49" height="19" stroke="#000000" stroke-width="3" stroke-miterlimit="8" fill="#0070C0"/><path d="M0 0 37.3708 17.1639" stroke="#000000" stroke-width="3" stroke-miterlimit="8" fill="none" fill-rule="evenodd" transform="matrix(1 0 0 -1 441.5 850.664)"/><path d="M404.5 833.5 441.871 850.664" stroke="#000000" stroke-width="3" stroke-miterlimit="8" fill="none" fill-rule="evenodd"/><rect x="342.5" y="478.5" width="49" height="20" stroke="#000000" stroke-width="3" stroke-miterlimit="8" fill="#0070C0"/><path d="M329.5 462.5 366.871 479.075" stroke="#000000" stroke-width="3" stroke-miterlimit="8" fill="none" fill-rule="evenodd"/><path d="M0 0 37.3708 16.5744" stroke="#000000" stroke-width="3" stroke-miterlimit="8" fill="none" fill-rule="evenodd" transform="matrix(-1 -8.74228e-08 -8.74228e-08 1 404.871 462.5)"/><rect x="417.5" y="924.5" width="49" height="19" stroke="#000000" stroke-width="3" stroke-miterlimit="8" fill="#0070C0"/><path d="M404.5 907.5 441.871 924.075" stroke="#000000" stroke-width="3" stroke-miterlimit="8" fill="none" fill-rule="evenodd"/><path d="M0 0 37.3708 16.5746" stroke="#000000" stroke-width="3" stroke-miterlimit="8" fill="none" fill-rule="evenodd" transform="matrix(1 0 0 -1 441.5 924.075)"/><rect x="441.5" y="879.5" width="75" height="28" stroke="#000000" stroke-width="3" stroke-miterlimit="8" fill="#00B0F0"/><text fill="#FFFFFF" font-family="Segoe UI,Segoe UI_MSFontService,sans-serif" font-weight="400" font-size="16" transform="translate(455.577 900)">kidney</text><rect x="367.5" y="879.5" width="74" height="28" stroke="#000000" stroke-width="3" stroke-miterlimit="8" fill="#FFC000"/><text font-family="Segoe UI,Segoe UI_MSFontService,sans-serif" font-weight="400" font-size="16" transform="translate(377.655 900)">remove</text><rect x="516.5" y="879.5" width="75" height="28" stroke="#000000" stroke-width="3" stroke-miterlimit="8" fill="#FFC000"/><text font-family="Segoe UI,Segoe UI_MSFontService,sans-serif" font-weight="400" font-size="16" transform="translate(530.652 900)">cancer</text><rect x="492.5" y="924.5" width="48" height="19" stroke="#000000" stroke-width="3" stroke-miterlimit="8" fill="#0070C0"/><path d="M0 0 37.3708 16.5745" stroke="#000000" stroke-width="3" stroke-miterlimit="8" fill="none" fill-rule="evenodd" transform="matrix(-1 -8.74228e-08 -8.74228e-08 1 553.871 907.5)"/><path d="M479.5 907.5 516.871 924.075" stroke="#000000" stroke-width="3" stroke-miterlimit="8" fill="none" fill-rule="evenodd"/><rect x="292.5" y="879.5" width="75" height="28" stroke="#000000" stroke-width="3" stroke-miterlimit="8" fill="#FFC000"/><text font-family="Segoe UI,Segoe UI_MSFontService,sans-serif" font-weight="400" font-size="16" transform="translate(314.467 900)">year</text><rect x="342.5" y="924.5" width="49" height="19" stroke="#000000" stroke-width="3" stroke-miterlimit="8" fill="#0070C0"/><path d="M329.5 907.5 366.871 924.075" stroke="#000000" stroke-width="3" stroke-miterlimit="8" fill="none" fill-rule="evenodd"/><path d="M0 0 112.112 16.5746" stroke="#000000" stroke-width="3" stroke-miterlimit="8" fill="none" fill-rule="evenodd" transform="matrix(-1 -8.74228e-08 -8.74228e-08 1 479.612 907.5)"/><rect x="52.5001" y="404.5" width="137" height="28" stroke="#000000" stroke-width="3" stroke-miterlimit="8" fill="#00B0F0"/><text fill="#FFFFFF" font-family="Segoe UI,Segoe UI_MSFontService,sans-serif" font-weight="400" font-size="16" transform="translate(77.0722 424)">Target Word</text><rect x="52.5001" y="432.5" width="137" height="28" stroke="#000000" stroke-width="3" stroke-miterlimit="8" fill="#FFC000"/><text font-family="Segoe UI,Segoe UI_MSFontService,sans-serif" font-weight="400" font-size="16" transform="translate(71.4323 452)">Context Word</text><rect x="52.5001" y="460.5" width="137" height="28" stroke="#000000" stroke-width="3" stroke-miterlimit="8" fill="#0070C0"/><text fill="#FFFFFF" font-family="Segoe UI,Segoe UI_MSFontService,sans-serif" font-weight="400" font-size="16" transform="translate(66.5122 480)">Similarity Score</text><rect x="405.5" y="1163.5" width="75" height="27" stroke="#000000" stroke-width="3" stroke-miterlimit="8" fill="#00B0F0"/><text fill="#FFFFFF" font-family="Segoe UI,Segoe UI_MSFontService,sans-serif" font-weight="400" font-size="16" transform="translate(419.927 1183)">cancer</text><rect x="480.5" y="1163.5" width="75" height="27" stroke="#000000" stroke-width="3" stroke-miterlimit="8" fill="#00B0F0"/><text fill="#FFFFFF" font-family="Segoe UI,Segoe UI_MSFontService,sans-serif" font-weight="400" font-size="16" transform="translate(494.336 1183)">kidney</text><rect x="555.5" y="1163.5" width="75" height="27" stroke="#000000" stroke-width="3" stroke-miterlimit="8" fill="#00B0F0"/><text fill="#FFFFFF" font-family="Segoe UI,Segoe UI_MSFontService,sans-serif" font-weight="400" font-size="16" transform="translate(565.864 1183)">surgery</text><rect x="331.5" y="1163.5" width="74" height="27" stroke="#000000" stroke-width="3" stroke-miterlimit="8" fill="#00B0F0"/><text fill="#FFFFFF" font-family="Segoe UI,Segoe UI_MSFontService,sans-serif" font-weight="400" font-size="16" transform="translate(354.436 1183)">dad</text><rect x="256.5" y="1163.5" width="75" height="27" stroke="#000000" stroke-width="3" stroke-miterlimit="8" fill="#00B0F0"/><text fill="#FFFFFF" font-family="Segoe UI,Segoe UI_MSFontService,sans-serif" font-weight="400" font-size="16" transform="translate(272.694 1183)">friend</text><g clip-path="url(#clip2)"><g clip-path="url(#clip3)"><g clip-path="url(#clip4)"><path d="M5.15148 14.3492C2.31051 14.3492 0 16.6597 0 19.5 0 22.3409 2.31051 24.6508 5.15148 24.6508 7.99075 24.6508 10.3023 22.341 10.3023 19.5 10.3023 16.6597 7.99075 14.3492 5.15148 14.3492Z" transform="matrix(1 0 -0 1.0249 646 1156.52)"/><path d="M19.7526 14.3492C16.912 14.3492 14.6012 16.6597 14.6012 19.5 14.6012 22.3409 16.912 24.6508 19.7526 24.6508 22.5931 24.6508 24.9042 22.341 24.9042 19.5 24.9042 16.6597 22.5931 14.3492 19.7526 14.3492Z" transform="matrix(1 0 -0 1.0249 646 1156.52)"/><path d="M33.8494 14.3492C31.0095 14.3492 28.6983 16.6597 28.6983 19.5 28.6983 22.3409 31.0095 24.6508 33.8494 24.6508 36.6887 24.6508 39 22.341 39 19.5 39 16.6597 36.6887 14.3492 33.8494 14.3492Z" transform="matrix(1 0 -0 1.0249 646 1156.52)"/></g></g></g><rect x="52.5001" y="376.5" width="137" height="28" stroke="#000000" stroke-width="3" stroke-miterlimit="8"/><text fill="#FFFFFF" font-family="Segoe UI,Segoe UI_MSFontService,sans-serif" font-weight="400" font-size="16" transform="translate(107.762 397)">Key<tspan fill="#000000" font-family="Calibri,Calibri_MSFontService,sans-serif" font-size="14" x="-51.1203" y="795">Similarity scores in this </tspan><tspan fill="#000000" font-family="Calibri,Calibri_MSFontService,sans-serif" font-size="14" x="-51.707" y="812">diagram are simulated.</tspan><tspan font-size="19" x="508.114" y="739">Common</tspan><tspan fill="#000000" font-family="Calibri,Calibri_MSFontService,sans-serif" font-weight="700" font-size="15" x="175.862" y="761">0.1</tspan><tspan fill="#000000" font-family="Calibri,Calibri_MSFontService,sans-serif" font-weight="700" font-size="15" x="251.373" y="762">0.2</tspan><tspan fill="#000000" font-family="Calibri,Calibri_MSFontService,sans-serif" font-weight="700" font-size="15" x="323.073" y="762">0.25</tspan><tspan fill="#000000" font-family="Calibri,Calibri_MSFontService,sans-serif" font-weight="700" font-size="15" x="401.564" y="761">0.3</tspan><tspan fill="#000000" font-family="Calibri,Calibri_MSFontService,sans-serif" font-weight="700" font-size="15" x="476.308" y="762">0.4</tspan><tspan fill="#000000" font-family="Calibri,Calibri_MSFontService,sans-serif" font-size="15" x="150.037" y="714">Smaller Scores</tspan><tspan fill="#000000" font-family="Calibri,Calibri_MSFontService,sans-serif" font-size="15" x="509.111" y="713">Larger Scores</tspan></text></g></svg>