<svg width="770" height="603" xmlns="http://www.w3.org/2000/svg" xmlns:xlink="http://www.w3.org/1999/xlink" overflow="hidden"><defs><clipPath id="clip0"><path d="M-1-1 769-1 769 602-1 602Z" fill-rule="evenodd" clip-rule="evenodd"/></clipPath></defs><g clip-path="url(#clip0)" transform="translate(1 1)"><rect x="0" y="0" width="768" height="599" fill="#FFFFFF" transform="matrix(-1 -8.74228e-08 -8.74228e-08 1 768 0)"/><rect x="0" y="0" width="768" height="601" fill="#FFFFFF" transform="matrix(-1 -8.74228e-08 -8.74228e-08 1 768 0)"/><rect x="241.5" y="43.5001" width="78" height="28" stroke="#000000" stroke-width="3" stroke-miterlimit="8" fill="#FFFFFF"/><text font-family="Segoe UI,Segoe UI_MSFontService,sans-serif" font-weight="400" font-size="21" transform="translate(276.988 65)">I</text><rect x="319.5" y="43.5001" width="78" height="28" stroke="#000000" stroke-width="3" stroke-miterlimit="8" fill="#FFFFFF"/><text font-family="Segoe UI,Segoe UI_MSFontService,sans-serif" font-weight="400" font-size="21" transform="translate(341.945 65)">use</text><rect x="397.5" y="43.5001" width="78" height="28" stroke="#000000" stroke-width="3" stroke-miterlimit="8" fill="#FFFFFF"/><text font-family="Segoe UI,Segoe UI_MSFontService,sans-serif" font-weight="400" font-size="19" transform="translate(407.293 64)">Python</text><rect x="475.5" y="43.5001" width="79" height="28" stroke="#000000" stroke-width="3" stroke-miterlimit="8" fill="#FFFFFF"/><text font-family="Segoe UI,Segoe UI_MSFontService,sans-serif" font-weight="400" font-size="21" transform="translate(501.111 65)">for</text><rect x="554.5" y="43.5001" width="78" height="28" stroke="#000000" stroke-width="3" stroke-miterlimit="8" fill="#FFFFFF"/><text font-family="Segoe UI,Segoe UI_MSFontService,sans-serif" font-weight="400" font-size="21" transform="translate(578.318 65)">my</text><rect x="632.5" y="43.5001" width="78" height="28" stroke="#000000" stroke-width="3" stroke-miterlimit="8" fill="#FFFFFF"/><text font-family="Segoe UI,Segoe UI_MSFontService,sans-serif" font-weight="400" font-size="16" transform="translate(642.966 63)">projects</text><path d="M10 55C4.47715 55 0 50.6851 0 45.3624L0 9.63757C0 4.31489 4.47715 0 10 0" stroke="#000000" stroke-width="6" stroke-miterlimit="8" fill="none" fill-rule="evenodd" transform="matrix(-1 -8.74228e-08 -8.74228e-08 1 720 29)"/><path d="M241 84C234.925 84 230 79.2536 230 73.3987L230 39.6013C230 33.7464 234.925 29 241 29" stroke="#000000" stroke-width="6" stroke-miterlimit="8" fill="none" fill-rule="evenodd"/><path d="M185 57 230.022 57.0001" stroke="#000000" stroke-width="6" stroke-miterlimit="8" fill="none" fill-rule="evenodd"/><rect x="49" y="37" width="136" height="39"/><text fill="#FFFFFF" font-family="Segoe UI,Segoe UI_MSFontService,sans-serif" font-weight="400" font-size="19" transform="translate(65.7216 64)">Original Text</text><rect x="241.5" y="142.5" width="78" height="28" stroke="#000000" stroke-width="3" stroke-miterlimit="8" fill="#FFFFFF"/><text font-family="Segoe UI,Segoe UI_MSFontService,sans-serif" font-weight="400" font-size="21" transform="translate(276.988 164)">I</text><rect x="319.5" y="142.5" width="78" height="28" stroke="#000000" stroke-width="3" stroke-miterlimit="8" fill="#FFFFFF"/><text font-family="Segoe UI,Segoe UI_MSFontService,sans-serif" font-weight="400" font-size="21" transform="translate(341.945 164)">use</text><rect x="397.5" y="142.5" width="78" height="28" stroke="#000000" stroke-width="3" stroke-miterlimit="8" fill="#002060"/><rect x="475.5" y="142.5" width="79" height="28" stroke="#000000" stroke-width="3" stroke-miterlimit="8" fill="#FFFFFF"/><text font-family="Segoe UI,Segoe UI_MSFontService,sans-serif" font-weight="400" font-size="21" transform="translate(501.111 164)">for</text><rect x="554.5" y="142.5" width="78" height="28" stroke="#000000" stroke-width="3" stroke-miterlimit="8" fill="#FFFFFF"/><text font-family="Segoe UI,Segoe UI_MSFontService,sans-serif" font-weight="400" font-size="21" transform="translate(578.318 164)">my</text><rect x="632.5" y="142.5" width="78" height="28" stroke="#000000" stroke-width="3" stroke-miterlimit="8" fill="#FFFFFF"/><text font-family="Segoe UI,Segoe UI_MSFontService,sans-serif" font-weight="400" font-size="16" transform="translate(642.966 162)">projects</text><path d="M10 55C4.47715 55 0 50.6851 0 45.3624L0 9.63757C0 4.31489 4.47715 0 10 0" stroke="#000000" stroke-width="6" stroke-miterlimit="8" fill="none" fill-rule="evenodd" transform="matrix(-1 -8.74228e-08 -8.74228e-08 1 720 129)"/><path d="M241 184C234.925 184 230 179.254 230 173.399L230 139.601C230 133.746 234.925 129 241 129" stroke="#000000" stroke-width="6" stroke-miterlimit="8" fill="none" fill-rule="evenodd"/><path d="M185 156 230.022 156" stroke="#000000" stroke-width="6" stroke-miterlimit="8" fill="none" fill-rule="evenodd"/><rect x="49" y="137" width="136" height="39" fill="#002060"/><text fill="#FFFFFF" font-family="Segoe UI,Segoe UI_MSFontService,sans-serif" font-weight="400" font-size="21" transform="translate(83.0116 164)">Blank 1</text><rect x="241.5" y="227.5" width="78" height="27" stroke="#000000" stroke-width="3" stroke-miterlimit="8" fill="#FFFFFF"/><text font-family="Segoe UI,Segoe UI_MSFontService,sans-serif" font-weight="400" font-size="21" transform="translate(276.988 249)">I</text><rect x="319.5" y="227.5" width="78" height="27" stroke="#000000" stroke-width="3" stroke-miterlimit="8" fill="#FFFFFF"/><text font-family="Segoe UI,Segoe UI_MSFontService,sans-serif" font-weight="400" font-size="21" transform="translate(341.945 249)">use</text><rect x="397.5" y="227.5" width="78" height="27" stroke="#000000" stroke-width="3" stroke-miterlimit="8" fill="#FFFFFF"/><text font-family="Segoe UI,Segoe UI_MSFontService,sans-serif" font-weight="400" font-size="19" transform="translate(407.293 247)">Python</text><rect x="475.5" y="227.5" width="79" height="27" stroke="#000000" stroke-width="3" stroke-miterlimit="8" fill="#FFFFFF"/><text font-family="Segoe UI,Segoe UI_MSFontService,sans-serif" font-weight="400" font-size="21" transform="translate(501.111 249)">for</text><rect x="554.5" y="227.5" width="78" height="27" stroke="#000000" stroke-width="3" stroke-miterlimit="8" fill="#FFFFFF"/><text font-family="Segoe UI,Segoe UI_MSFontService,sans-serif" font-weight="400" font-size="21" transform="translate(578.318 249)">my</text><rect x="632.5" y="227.5" width="78" height="27" stroke="#000000" stroke-width="3" stroke-miterlimit="8" fill="#006600"/><path d="M10 55C4.47715 55 0 50.6851 0 45.3624L0 9.63757C0 4.31489 4.47715 0 10 0" stroke="#000000" stroke-width="6" stroke-miterlimit="8" fill="none" fill-rule="evenodd" transform="matrix(-1 -8.74228e-08 -8.74228e-08 1 720 213)"/><path d="M241 268C234.925 268 230 263.254 230 257.399L230 223.601C230 217.746 234.925 213 241 213" stroke="#000000" stroke-width="6" stroke-miterlimit="8" fill="none" fill-rule="evenodd"/><path d="M185 241 230.022 241" stroke="#000000" stroke-width="6" stroke-miterlimit="8" fill="none" fill-rule="evenodd"/><rect x="49" y="221" width="136" height="39" fill="#006600"/><text fill="#FFFFFF" font-family="Segoe UI,Segoe UI_MSFontService,sans-serif" font-weight="400" font-size="21" transform="translate(83.0116 249)">Blank 2</text><rect x="49" y="298" width="204" height="146" stroke="#000000" stroke-width="4" stroke-miterlimit="8" fill="#002060"/><text fill="#FFFFFF" font-family="Segoe UI,Segoe UI_MSFontService,sans-serif" font-weight="400" font-size="19" transform="translate(58.3173 333)">Blank 1 Predictions:<tspan font-family="Arial,Arial_MSFontService,sans-serif" x="0" y="23">•</tspan><tspan x="30" y="23">Paper</tspan><tspan font-family="Arial,Arial_MSFontService,sans-serif" x="0" y="45">•</tspan><tspan x="30" y="45">Pencils</tspan><tspan font-family="Arial,Arial_MSFontService,sans-serif" x="0" y="67">•</tspan><tspan x="30" y="67">Textbooks</tspan><tspan font-family="Arial,Arial_MSFontService,sans-serif" x="0" y="90">•</tspan><tspan x="30" y="90">Books</tspan></text><rect x="253" y="298" width="204" height="146" stroke="#000000" stroke-width="4" stroke-miterlimit="8" fill="#006600"/><text fill="#FFFFFF" font-family="Segoe UI,Segoe UI_MSFontService,sans-serif" font-weight="400" font-size="19" transform="translate(262.503 333)">Blank 2 Predictions:<tspan font-family="Arial,Arial_MSFontService,sans-serif" x="0" y="23">•</tspan><tspan x="30" y="23">Programs</tspan><tspan font-family="Arial,Arial_MSFontService,sans-serif" x="0" y="45">•</tspan><tspan x="30" y="45">Projects</tspan><tspan font-family="Arial,Arial_MSFontService,sans-serif" x="0" y="67">•</tspan><tspan x="30" y="67">Games</tspan><tspan font-family="Arial,Arial_MSFontService,sans-serif" x="0" y="90">•</tspan><tspan x="30" y="90">Coding</tspan></text><rect x="476" y="315" width="244" height="112" stroke="#000000" stroke-width="4" stroke-miterlimit="8" fill="#FFC000"/><text font-family="Segoe UI,Segoe UI_MSFontService,sans-serif" font-weight="400" font-size="24" transform="translate(511.313 351)">Blank 1 is clearly <tspan x="1.83337" y="29">more difficult to </tspan><tspan x="-21.5067" y="58">predict than Blank 2.</tspan></text><path d="M601.173 427 601.173 494.701 148 494.701 148 459.5 154 459.5 154 491.701 151 488.701 598.173 488.701 595.173 491.701 595.173 427ZM142 462.5 151 444.5 160 462.5Z"/><rect x="49" y="519" width="666" height="43" stroke="#000000" stroke-width="4" stroke-miterlimit="8"/><text fill="#FFFFFF" font-family="Segoe UI,Segoe UI_MSFontService,sans-serif" font-weight="400" font-size="32" transform="translate(117.023 552)">“Python” ranks higher than “projects”. <tspan fill="#000000" font-size="12" x="125.882" y="-415">Context Word</tspan><tspan fill="#000000" font-size="12" x="204.09" y="-415">Context Word</tspan><tspan fill="#000000" font-size="12" x="360.505" y="-415">Context Word</tspan><tspan fill="#000000" font-size="12" x="438.713" y="-415">Context Word</tspan><tspan fill="#000000" font-size="12" x="516.92" y="-415">Context Word</tspan><tspan fill="#002060" font-weight="700" font-size="12" x="283.214" y="-415">Target Word</tspan><tspan fill="#000000" font-size="12" x="125.882" y="-330">Context Word</tspan><tspan fill="#000000" font-size="12" x="203.491" y="-330">Context Word</tspan><tspan fill="#000000" font-size="12" x="282.895" y="-330">Context Word</tspan><tspan fill="#000000" font-size="12" x="361.103" y="-330">Context Word</tspan><tspan fill="#000000" font-size="12" x="439.822" y="-331">Context Word</tspan><tspan fill="#006600" font-weight="700" font-size="12" x="517.216" y="-330">Target Word</tspan></text></g></svg>