<svg width="770" height="603" xmlns="http://www.w3.org/2000/svg" xmlns:xlink="http://www.w3.org/1999/xlink" overflow="hidden"><defs><clipPath id="clip0"><path d="M-1-1 769-1 769 602-1 602Z" fill-rule="evenodd" clip-rule="evenodd"/></clipPath></defs><g clip-path="url(#clip0)" transform="translate(1 1)"><rect x="0" y="0" width="768" height="601" fill="#FFFFFF" transform="matrix(-1 -8.74228e-08 -8.74228e-08 1 768 0)"/><rect x="241.5" y="43.5001" width="78" height="28" stroke="#000000" stroke-width="3" stroke-miterlimit="8" fill="#FFFFFF"/><text font-family="Segoe UI,Segoe UI_MSFontService,sans-serif" font-weight="400" font-size="16" transform="translate(277.654 63)">I</text><rect x="319.5" y="43.5001" width="78" height="28" stroke="#000000" stroke-width="3" stroke-miterlimit="8" fill="#FFFFFF"/><text font-family="Segoe UI,Segoe UI_MSFontService,sans-serif" font-weight="400" font-size="16" transform="translate(345.945 63)">use</text><rect x="397.5" y="43.5001" width="78" height="28" stroke="#000000" stroke-width="3" stroke-miterlimit="8" fill="#FFFFFF"/><text font-family="Segoe UI,Segoe UI_MSFontService,sans-serif" font-weight="400" font-size="16" transform="translate(411.463 63)">Python</text><rect x="475.5" y="43.5001" width="79" height="28" stroke="#000000" stroke-width="3" stroke-miterlimit="8" fill="#FFFFFF"/><text font-family="Segoe UI,Segoe UI_MSFontService,sans-serif" font-weight="400" font-size="16" transform="translate(504.527 63)">for</text><rect x="554.5" y="43.5001" width="78" height="28" stroke="#000000" stroke-width="3" stroke-miterlimit="8" fill="#FFFFFF"/><text font-family="Segoe UI,Segoe UI_MSFontService,sans-serif" font-weight="400" font-size="16" transform="translate(581.902 63)">m<tspan x="13.8333" y="0">y</tspan></text><rect x="632.5" y="43.5001" width="78" height="28" stroke="#000000" stroke-width="3" stroke-miterlimit="8" fill="#FFFFFF"/><text font-family="Segoe UI,Segoe UI_MSFontService,sans-serif" font-weight="400" font-size="16" transform="translate(642.966 63)">projects</text><path d="M10 55C4.47715 55 0 50.6851 0 45.3624L0 9.63757C0 4.31489 4.47715 0 10 0" stroke="#000000" stroke-width="6" stroke-miterlimit="8" fill="none" fill-rule="evenodd" transform="matrix(-1 -8.74228e-08 -8.74228e-08 1 720 29)"/><path d="M241 84C234.925 84 230 79.2536 230 73.3987L230 39.6013C230 33.7464 234.925 29 241 29" stroke="#000000" stroke-width="6" stroke-miterlimit="8" fill="none" fill-rule="evenodd"/><path d="M185 57 230.022 57.0001" stroke="#000000" stroke-width="6" stroke-miterlimit="8" fill="none" fill-rule="evenodd"/><rect x="49" y="37" width="136" height="39"/><text fill="#FFFFFF" font-family="Segoe UI,Segoe UI_MSFontService,sans-serif" font-weight="400" font-size="19" transform="translate(65.7216 64)">Original Text</text><rect x="241.5" y="142.5" width="78" height="28" stroke="#000000" stroke-width="3" stroke-miterlimit="8" fill="#FFFFFF"/><text font-family="Segoe UI,Segoe UI_MSFontService,sans-serif" font-weight="400" font-size="16" transform="translate(277.654 162)">I</text><rect x="319.5" y="142.5" width="78" height="28" stroke="#000000" stroke-width="3" stroke-miterlimit="8" fill="#FFFFFF"/><text font-family="Segoe UI,Segoe UI_MSFontService,sans-serif" font-weight="400" font-size="16" transform="translate(345.945 162)">use</text><rect x="397.5" y="142.5" width="78" height="28" stroke="#000000" stroke-width="3" stroke-miterlimit="8" fill="#002060"/><rect x="475.5" y="142.5" width="79" height="28" stroke="#000000" stroke-width="3" stroke-miterlimit="8" fill="#FFFFFF"/><text font-family="Segoe UI,Segoe UI_MSFontService,sans-serif" font-weight="400" font-size="16" transform="translate(504.527 162)">for</text><rect x="554.5" y="142.5" width="78" height="28" stroke="#000000" stroke-width="3" stroke-miterlimit="8" fill="#FFFFFF"/><text font-family="Segoe UI,Segoe UI_MSFontService,sans-serif" font-weight="400" font-size="16" transform="translate(581.902 162)">m<tspan x="13.8333" y="0">y</tspan></text><rect x="632.5" y="142.5" width="78" height="28" stroke="#000000" stroke-width="3" stroke-miterlimit="8" fill="#FFFFFF"/><text font-family="Segoe UI,Segoe UI_MSFontService,sans-serif" font-weight="400" font-size="16" transform="translate(642.966 162)">projects</text><path d="M10 55C4.47715 55 0 50.6851 0 45.3624L0 9.63757C0 4.31489 4.47715 0 10 0" stroke="#000000" stroke-width="6" stroke-miterlimit="8" fill="none" fill-rule="evenodd" transform="matrix(-1 -8.74228e-08 -8.74228e-08 1 720 129)"/><path d="M241 184C234.925 184 230 179.254 230 173.399L230 139.601C230 133.746 234.925 129 241 129" stroke="#000000" stroke-width="6" stroke-miterlimit="8" fill="none" fill-rule="evenodd"/><path d="M185 156 230.022 156" stroke="#000000" stroke-width="6" stroke-miterlimit="8" fill="none" fill-rule="evenodd"/><rect x="49" y="137" width="136" height="39" fill="#002060"/><text fill="#FFFFFF" font-family="Segoe UI,Segoe UI_MSFontService,sans-serif" font-weight="400" font-size="19" transform="translate(87.2615 163)">Blank 1</text><rect x="241.5" y="227.5" width="78" height="27" stroke="#000000" stroke-width="3" stroke-miterlimit="8" fill="#FFFFFF"/><text font-family="Segoe UI,Segoe UI_MSFontService,sans-serif" font-weight="400" font-size="16" transform="translate(277.654 247)">I</text><rect x="319.5" y="227.5" width="78" height="27" stroke="#000000" stroke-width="3" stroke-miterlimit="8" fill="#FFFFFF"/><text font-family="Segoe UI,Segoe UI_MSFontService,sans-serif" font-weight="400" font-size="16" transform="translate(345.945 247)">use</text><rect x="397.5" y="227.5" width="78" height="27" stroke="#000000" stroke-width="3" stroke-miterlimit="8" fill="#FFFFFF"/><text font-family="Segoe UI,Segoe UI_MSFontService,sans-serif" font-weight="400" font-size="16" transform="translate(411.463 247)">Python</text><rect x="475.5" y="227.5" width="79" height="27" stroke="#000000" stroke-width="3" stroke-miterlimit="8" fill="#FFFFFF"/><text font-family="Segoe UI,Segoe UI_MSFontService,sans-serif" font-weight="400" font-size="16" transform="translate(504.527 247)">for</text><rect x="554.5" y="227.5" width="78" height="27" stroke="#000000" stroke-width="3" stroke-miterlimit="8" fill="#FFFFFF"/><text font-family="Segoe UI,Segoe UI_MSFontService,sans-serif" font-weight="400" font-size="16" transform="translate(581.902 247)">m<tspan x="13.8333" y="0">y</tspan></text><rect x="632.5" y="227.5" width="78" height="27" stroke="#000000" stroke-width="3" stroke-miterlimit="8" fill="#006600"/><path d="M10 55C4.47715 55 0 50.6851 0 45.3624L0 9.63757C0 4.31489 4.47715 0 10 0" stroke="#000000" stroke-width="6" stroke-miterlimit="8" fill="none" fill-rule="evenodd" transform="matrix(-1 -8.74228e-08 -8.74228e-08 1 720 213)"/><path d="M241 268C234.925 268 230 263.254 230 257.399L230 223.601C230 217.746 234.925 213 241 213" stroke="#000000" stroke-width="6" stroke-miterlimit="8" fill="none" fill-rule="evenodd"/><path d="M185 241 230.022 241" stroke="#000000" stroke-width="6" stroke-miterlimit="8" fill="none" fill-rule="evenodd"/><rect x="49" y="221" width="136" height="39" fill="#006600"/><text fill="#FFFFFF" font-family="Segoe UI,Segoe UI_MSFontService,sans-serif" font-weight="400" font-size="19" transform="translate(87.2615 247)">Blank 2<tspan fill="#000000" font-family="Calibri,Calibri_MSFontService,sans-serif" font-size="12" x="158.393" y="-111">Context Word</tspan><tspan fill="#000000" font-family="Calibri,Calibri_MSFontService,sans-serif" font-size="12" x="236.601" y="-111">Context Word</tspan><tspan fill="#000000" font-family="Calibri,Calibri_MSFontService,sans-serif" font-size="12" x="393.016" y="-111">Context Word</tspan><tspan fill="#000000" font-family="Calibri,Calibri_MSFontService,sans-serif" font-size="12" x="471.224" y="-111">Context Word</tspan><tspan fill="#000000" font-family="Calibri,Calibri_MSFontService,sans-serif" font-size="12" x="549.431" y="-111">Context Word</tspan><tspan fill="#002060" font-family="Calibri,Calibri_MSFontService,sans-serif" font-weight="700" font-size="12" x="317.475" y="-111">Target Word</tspan><tspan fill="#000000" font-family="Calibri,Calibri_MSFontService,sans-serif" font-size="12" x="158.393" y="-26">Context Word</tspan><tspan fill="#000000" font-family="Calibri,Calibri_MSFontService,sans-serif" font-size="12" x="236.003" y="-26">Context Word</tspan><tspan fill="#000000" font-family="Calibri,Calibri_MSFontService,sans-serif" font-size="12" x="315.406" y="-26">Context Word</tspan><tspan fill="#000000" font-family="Calibri,Calibri_MSFontService,sans-serif" font-size="12" x="393.614" y="-26">Context Word</tspan><tspan fill="#000000" font-family="Calibri,Calibri_MSFontService,sans-serif" font-size="12" x="472.333" y="-27">Context Word</tspan><tspan fill="#006600" font-family="Calibri,Calibri_MSFontService,sans-serif" font-weight="700" font-size="12" x="551.477" y="-26">Target Word</tspan></text><rect x="49" y="298" width="204" height="146" stroke="#000000" stroke-width="4" stroke-miterlimit="8" fill="#002060"/><text fill="#FFFFFF" font-family="Segoe UI,Segoe UI_MSFontService,sans-serif" font-weight="400" font-size="19" transform="translate(58.3173 333)">Blank 1 Predictions:<tspan font-family="Arial,Arial_MSFontService,sans-serif" x="0" y="23">•</tspan><tspan x="30" y="23">Paper</tspan><tspan font-family="Arial,Arial_MSFontService,sans-serif" x="0" y="45">•</tspan><tspan x="30" y="45">Pencils</tspan><tspan font-family="Arial,Arial_MSFontService,sans-serif" x="0" y="67">•</tspan><tspan x="30" y="67">Textbooks</tspan><tspan font-family="Arial,Arial_MSFontService,sans-serif" x="0" y="90">•</tspan><tspan x="30" y="90">Books</tspan></text><rect x="253" y="298" width="204" height="146" stroke="#000000" stroke-width="4" stroke-miterlimit="8" fill="#006600"/><text fill="#FFFFFF" font-family="Segoe UI,Segoe UI_MSFontService,sans-serif" font-weight="400" font-size="19" transform="translate(262.503 333)">Blank 2 Predictions:<tspan font-family="Arial,Arial_MSFontService,sans-serif" x="0" y="23">•</tspan><tspan x="30" y="23">Programs</tspan><tspan font-family="Arial,Arial_MSFontService,sans-serif" x="0" y="45">•</tspan><tspan x="30" y="45">Projects</tspan><tspan font-family="Arial,Arial_MSFontService,sans-serif" x="0" y="67">•</tspan><tspan x="30" y="67">Games</tspan><tspan font-family="Arial,Arial_MSFontService,sans-serif" x="0" y="90">•</tspan><tspan x="30" y="90">Codin</tspan>g</text><rect x="471" y="298" width="244" height="74" stroke="#000000" stroke-width="4" stroke-miterlimit="8" fill="#FFC000"/><text font-family="Calibri,Calibri_MSFontService,sans-serif" font-weight="400" font-size="24" transform="translate(483.779 328)">Blank 1 is clearly more <tspan x="18.6533" y="29">difficult to predict.</tspan></text><path d="M596.062 372 596.062 486.823 148 486.823 148 458.824 154 458.824 154 483.823 151 480.823 593.062 480.823 590.062 483.823 590.062 372ZM142 461.824 151 443.824 160 461.824Z"/><rect x="49" y="519" width="666" height="43" stroke="#000000" stroke-width="4" stroke-miterlimit="8"/><text fill="#FFFFFF" font-family="Segoe UI,Segoe UI_MSFontService,sans-serif" font-weight="400" font-size="19" transform="translate(159.289 547)">“Python” is more important to the text than “projects”. </text></g></svg>